<mxfile host="app.diagrams.net" agent="Mozilla/5.0 (Windows NT 10.0; Win64; x64) AppleWebKit/537.36 (KHTML, like Gecko) Chrome/135.0.0.0 Safari/537.36" version="26.2.14" pages="8">
  <diagram name="Page-1" id="B9ajltxnWcTQiOBloLtk">
    <mxGraphModel dx="3488" dy="2044" grid="1" gridSize="10" guides="1" tooltips="1" connect="1" arrows="1" fold="1" page="1" pageScale="1" pageWidth="850" pageHeight="1100" math="0" shadow="0">
      <root>
        <mxCell id="0" />
        <mxCell id="1" parent="0" />
        <mxCell id="gnuGHhX0t3bhiIQXMIf--3" value="" style="edgeStyle=orthogonalEdgeStyle;rounded=0;orthogonalLoop=1;jettySize=auto;html=1;" parent="1" source="gnuGHhX0t3bhiIQXMIf--1" target="gnuGHhX0t3bhiIQXMIf--2" edge="1">
          <mxGeometry relative="1" as="geometry" />
        </mxCell>
        <mxCell id="gnuGHhX0t3bhiIQXMIf--1" value="Start" style="strokeWidth=2;html=1;shape=mxgraph.flowchart.start_1;whiteSpace=wrap;" parent="1" vertex="1">
          <mxGeometry x="90" y="50" width="100" height="60" as="geometry" />
        </mxCell>
        <mxCell id="gnuGHhX0t3bhiIQXMIf--5" value="" style="edgeStyle=orthogonalEdgeStyle;rounded=0;orthogonalLoop=1;jettySize=auto;html=1;" parent="1" source="gnuGHhX0t3bhiIQXMIf--2" target="gnuGHhX0t3bhiIQXMIf--4" edge="1">
          <mxGeometry relative="1" as="geometry" />
        </mxCell>
        <mxCell id="gnuGHhX0t3bhiIQXMIf--2" value="output&lt;div&gt;&lt;div&gt;1. Login&lt;/div&gt;&lt;div&gt;2. Daftar&lt;/div&gt;&lt;div&gt;3. Keluar&lt;/div&gt;&lt;/div&gt;" style="shape=parallelogram;perimeter=parallelogramPerimeter;whiteSpace=wrap;html=1;fixedSize=1;strokeWidth=2;" parent="1" vertex="1">
          <mxGeometry x="80" y="160" width="120" height="60" as="geometry" />
        </mxCell>
        <mxCell id="gnuGHhX0t3bhiIQXMIf--7" value="" style="edgeStyle=orthogonalEdgeStyle;rounded=0;orthogonalLoop=1;jettySize=auto;html=1;" parent="1" source="gnuGHhX0t3bhiIQXMIf--4" target="gnuGHhX0t3bhiIQXMIf--6" edge="1">
          <mxGeometry relative="1" as="geometry" />
        </mxCell>
        <mxCell id="gnuGHhX0t3bhiIQXMIf--21" value="false" style="edgeLabel;html=1;align=center;verticalAlign=middle;resizable=0;points=[];" parent="gnuGHhX0t3bhiIQXMIf--7" vertex="1" connectable="0">
          <mxGeometry x="-0.1319" y="-2" relative="1" as="geometry">
            <mxPoint as="offset" />
          </mxGeometry>
        </mxCell>
        <mxCell id="gnuGHhX0t3bhiIQXMIf--11" value="" style="edgeStyle=orthogonalEdgeStyle;rounded=0;orthogonalLoop=1;jettySize=auto;html=1;" parent="1" source="gnuGHhX0t3bhiIQXMIf--4" target="gnuGHhX0t3bhiIQXMIf--10" edge="1">
          <mxGeometry relative="1" as="geometry" />
        </mxCell>
        <mxCell id="gnuGHhX0t3bhiIQXMIf--20" value="true" style="edgeLabel;html=1;align=center;verticalAlign=middle;resizable=0;points=[];" parent="gnuGHhX0t3bhiIQXMIf--11" vertex="1" connectable="0">
          <mxGeometry x="-0.219" y="-1" relative="1" as="geometry">
            <mxPoint as="offset" />
          </mxGeometry>
        </mxCell>
        <mxCell id="gnuGHhX0t3bhiIQXMIf--4" value="opsi 1" style="rhombus;whiteSpace=wrap;html=1;strokeWidth=2;" parent="1" vertex="1">
          <mxGeometry x="250" y="150" width="80" height="80" as="geometry" />
        </mxCell>
        <mxCell id="gnuGHhX0t3bhiIQXMIf--9" value="" style="edgeStyle=orthogonalEdgeStyle;rounded=0;orthogonalLoop=1;jettySize=auto;html=1;" parent="1" source="gnuGHhX0t3bhiIQXMIf--6" target="gnuGHhX0t3bhiIQXMIf--8" edge="1">
          <mxGeometry relative="1" as="geometry" />
        </mxCell>
        <mxCell id="gnuGHhX0t3bhiIQXMIf--22" value="false" style="edgeLabel;html=1;align=center;verticalAlign=middle;resizable=0;points=[];" parent="gnuGHhX0t3bhiIQXMIf--9" vertex="1" connectable="0">
          <mxGeometry x="0.0922" relative="1" as="geometry">
            <mxPoint as="offset" />
          </mxGeometry>
        </mxCell>
        <mxCell id="gnuGHhX0t3bhiIQXMIf--13" value="" style="edgeStyle=orthogonalEdgeStyle;rounded=0;orthogonalLoop=1;jettySize=auto;html=1;" parent="1" source="gnuGHhX0t3bhiIQXMIf--6" target="gnuGHhX0t3bhiIQXMIf--12" edge="1">
          <mxGeometry relative="1" as="geometry" />
        </mxCell>
        <mxCell id="gnuGHhX0t3bhiIQXMIf--23" value="true" style="edgeLabel;html=1;align=center;verticalAlign=middle;resizable=0;points=[];" parent="gnuGHhX0t3bhiIQXMIf--13" vertex="1" connectable="0">
          <mxGeometry x="-0.219" y="3" relative="1" as="geometry">
            <mxPoint as="offset" />
          </mxGeometry>
        </mxCell>
        <mxCell id="gnuGHhX0t3bhiIQXMIf--6" value="opsi 2" style="rhombus;whiteSpace=wrap;html=1;strokeWidth=2;" parent="1" vertex="1">
          <mxGeometry x="410" y="150" width="80" height="80" as="geometry" />
        </mxCell>
        <mxCell id="gnuGHhX0t3bhiIQXMIf--25" value="" style="edgeStyle=orthogonalEdgeStyle;rounded=0;orthogonalLoop=1;jettySize=auto;html=1;" parent="1" source="gnuGHhX0t3bhiIQXMIf--8" target="gnuGHhX0t3bhiIQXMIf--24" edge="1">
          <mxGeometry relative="1" as="geometry" />
        </mxCell>
        <mxCell id="gnuGHhX0t3bhiIQXMIf--32" value="false" style="edgeLabel;html=1;align=center;verticalAlign=middle;resizable=0;points=[];" parent="gnuGHhX0t3bhiIQXMIf--25" vertex="1" connectable="0">
          <mxGeometry x="-0.1867" y="-1" relative="1" as="geometry">
            <mxPoint as="offset" />
          </mxGeometry>
        </mxCell>
        <mxCell id="gnuGHhX0t3bhiIQXMIf--27" value="" style="edgeStyle=orthogonalEdgeStyle;rounded=0;orthogonalLoop=1;jettySize=auto;html=1;" parent="1" source="gnuGHhX0t3bhiIQXMIf--8" target="gnuGHhX0t3bhiIQXMIf--26" edge="1">
          <mxGeometry relative="1" as="geometry" />
        </mxCell>
        <mxCell id="gnuGHhX0t3bhiIQXMIf--29" value="true" style="edgeLabel;html=1;align=center;verticalAlign=middle;resizable=0;points=[];" parent="gnuGHhX0t3bhiIQXMIf--27" vertex="1" connectable="0">
          <mxGeometry x="-0.0214" relative="1" as="geometry">
            <mxPoint as="offset" />
          </mxGeometry>
        </mxCell>
        <mxCell id="gnuGHhX0t3bhiIQXMIf--8" value="opsi 3" style="rhombus;whiteSpace=wrap;html=1;strokeWidth=2;" parent="1" vertex="1">
          <mxGeometry x="570" y="150" width="80" height="80" as="geometry" />
        </mxCell>
        <mxCell id="gnuGHhX0t3bhiIQXMIf--17" value="" style="edgeStyle=orthogonalEdgeStyle;rounded=0;orthogonalLoop=1;jettySize=auto;html=1;" parent="1" source="gnuGHhX0t3bhiIQXMIf--10" target="gnuGHhX0t3bhiIQXMIf--16" edge="1">
          <mxGeometry relative="1" as="geometry" />
        </mxCell>
        <mxCell id="gnuGHhX0t3bhiIQXMIf--10" value="login" style="shape=process;whiteSpace=wrap;html=1;backgroundOutline=1;strokeWidth=2;" parent="1" vertex="1">
          <mxGeometry x="240" y="270" width="100" height="50" as="geometry" />
        </mxCell>
        <mxCell id="gnuGHhX0t3bhiIQXMIf--19" value="" style="edgeStyle=orthogonalEdgeStyle;rounded=0;orthogonalLoop=1;jettySize=auto;html=1;" parent="1" source="gnuGHhX0t3bhiIQXMIf--12" target="gnuGHhX0t3bhiIQXMIf--18" edge="1">
          <mxGeometry relative="1" as="geometry" />
        </mxCell>
        <mxCell id="gnuGHhX0t3bhiIQXMIf--12" value="daftar" style="shape=process;whiteSpace=wrap;html=1;backgroundOutline=1;strokeWidth=2;" parent="1" vertex="1">
          <mxGeometry x="400" y="270" width="100" height="50" as="geometry" />
        </mxCell>
        <mxCell id="gnuGHhX0t3bhiIQXMIf--16" value="1" style="ellipse;whiteSpace=wrap;html=1;strokeWidth=2;fillColor=#dae8fc;strokeColor=#6c8ebf;" parent="1" vertex="1">
          <mxGeometry x="265" y="350" width="50" height="50" as="geometry" />
        </mxCell>
        <mxCell id="gnuGHhX0t3bhiIQXMIf--18" value="2" style="ellipse;whiteSpace=wrap;html=1;strokeWidth=2;fillColor=#d5e8d4;strokeColor=#82b366;" parent="1" vertex="1">
          <mxGeometry x="425" y="350" width="50" height="50" as="geometry" />
        </mxCell>
        <mxCell id="gnuGHhX0t3bhiIQXMIf--24" value="output&lt;div&gt;input tidak valid&lt;/div&gt;" style="shape=parallelogram;perimeter=parallelogramPerimeter;whiteSpace=wrap;html=1;fixedSize=1;strokeWidth=2;" parent="1" vertex="1">
          <mxGeometry x="690" y="160" width="120" height="60" as="geometry" />
        </mxCell>
        <mxCell id="gnuGHhX0t3bhiIQXMIf--26" value="end" style="strokeWidth=2;html=1;shape=mxgraph.flowchart.start_1;whiteSpace=wrap;" parent="1" vertex="1">
          <mxGeometry x="560" y="270" width="100" height="60" as="geometry" />
        </mxCell>
        <mxCell id="gnuGHhX0t3bhiIQXMIf--30" value="" style="endArrow=classic;html=1;rounded=0;exitX=0.5;exitY=1;exitDx=0;exitDy=0;entryX=0.5;entryY=1;entryDx=0;entryDy=0;" parent="1" source="gnuGHhX0t3bhiIQXMIf--24" target="gnuGHhX0t3bhiIQXMIf--2" edge="1">
          <mxGeometry width="50" height="50" relative="1" as="geometry">
            <mxPoint x="740" y="230" as="sourcePoint" />
            <mxPoint x="130" y="420" as="targetPoint" />
            <Array as="points">
              <mxPoint x="750" y="420" />
              <mxPoint x="140" y="420" />
            </Array>
          </mxGeometry>
        </mxCell>
        <mxCell id="gnuGHhX0t3bhiIQXMIf--66" value="" style="edgeStyle=orthogonalEdgeStyle;rounded=0;orthogonalLoop=1;jettySize=auto;html=1;" parent="1" source="gnuGHhX0t3bhiIQXMIf--33" target="gnuGHhX0t3bhiIQXMIf--65" edge="1">
          <mxGeometry relative="1" as="geometry" />
        </mxCell>
        <mxCell id="gnuGHhX0t3bhiIQXMIf--33" value="1" style="ellipse;whiteSpace=wrap;html=1;strokeWidth=2;fillColor=#dae8fc;strokeColor=#6c8ebf;" parent="1" vertex="1">
          <mxGeometry x="1060" y="40" width="50" height="50" as="geometry" />
        </mxCell>
        <mxCell id="gnuGHhX0t3bhiIQXMIf--34" value="" style="edgeStyle=orthogonalEdgeStyle;rounded=0;orthogonalLoop=1;jettySize=auto;html=1;" parent="1" source="gnuGHhX0t3bhiIQXMIf--35" target="gnuGHhX0t3bhiIQXMIf--37" edge="1">
          <mxGeometry relative="1" as="geometry" />
        </mxCell>
        <mxCell id="gnuGHhX0t3bhiIQXMIf--35" value="output&lt;div&gt;daftar akun&lt;/div&gt;" style="shape=parallelogram;perimeter=parallelogramPerimeter;whiteSpace=wrap;html=1;fixedSize=1;strokeWidth=2;" parent="1" vertex="1">
          <mxGeometry x="1820" y="120" width="120" height="60" as="geometry" />
        </mxCell>
        <mxCell id="gnuGHhX0t3bhiIQXMIf--36" value="" style="edgeStyle=orthogonalEdgeStyle;rounded=0;orthogonalLoop=1;jettySize=auto;html=1;entryX=0.5;entryY=0;entryDx=0;entryDy=0;" parent="1" source="gnuGHhX0t3bhiIQXMIf--37" target="gnuGHhX0t3bhiIQXMIf--46" edge="1">
          <mxGeometry relative="1" as="geometry">
            <mxPoint x="1880" y="334.9999999999999" as="targetPoint" />
          </mxGeometry>
        </mxCell>
        <mxCell id="gnuGHhX0t3bhiIQXMIf--37" value="input&lt;div&gt;usn&lt;/div&gt;" style="shape=parallelogram;perimeter=parallelogramPerimeter;whiteSpace=wrap;html=1;fixedSize=1;strokeWidth=2;" parent="1" vertex="1">
          <mxGeometry x="1820" y="230" width="120" height="60" as="geometry" />
        </mxCell>
        <mxCell id="gnuGHhX0t3bhiIQXMIf--57" value="" style="edgeStyle=orthogonalEdgeStyle;rounded=0;orthogonalLoop=1;jettySize=auto;html=1;" parent="1" source="gnuGHhX0t3bhiIQXMIf--46" target="gnuGHhX0t3bhiIQXMIf--50" edge="1">
          <mxGeometry relative="1" as="geometry" />
        </mxCell>
        <mxCell id="gnuGHhX0t3bhiIQXMIf--46" value="input&lt;div&gt;pw&lt;/div&gt;" style="shape=parallelogram;perimeter=parallelogramPerimeter;whiteSpace=wrap;html=1;fixedSize=1;strokeWidth=2;" parent="1" vertex="1">
          <mxGeometry x="1820" y="340" width="120" height="60" as="geometry" />
        </mxCell>
        <mxCell id="gnuGHhX0t3bhiIQXMIf--59" value="" style="edgeStyle=orthogonalEdgeStyle;rounded=0;orthogonalLoop=1;jettySize=auto;html=1;" parent="1" source="gnuGHhX0t3bhiIQXMIf--50" target="gnuGHhX0t3bhiIQXMIf--58" edge="1">
          <mxGeometry relative="1" as="geometry" />
        </mxCell>
        <mxCell id="gnuGHhX0t3bhiIQXMIf--50" value="masukkan akun&lt;div&gt;ke data_akun&lt;/div&gt;" style="whiteSpace=wrap;html=1;strokeWidth=2;" parent="1" vertex="1">
          <mxGeometry x="1820" y="450" width="120" height="60" as="geometry" />
        </mxCell>
        <mxCell id="gnuGHhX0t3bhiIQXMIf--51" value="" style="edgeStyle=orthogonalEdgeStyle;rounded=0;orthogonalLoop=1;jettySize=auto;html=1;" parent="1" source="gnuGHhX0t3bhiIQXMIf--52" target="gnuGHhX0t3bhiIQXMIf--53" edge="1">
          <mxGeometry relative="1" as="geometry" />
        </mxCell>
        <mxCell id="gnuGHhX0t3bhiIQXMIf--52" value="output&lt;div&gt;pendaftaran akun&lt;/div&gt;&lt;div&gt;berhasil&lt;/div&gt;" style="shape=parallelogram;perimeter=parallelogramPerimeter;whiteSpace=wrap;html=1;fixedSize=1;strokeWidth=2;" parent="1" vertex="1">
          <mxGeometry x="1820" y="660" width="120" height="60" as="geometry" />
        </mxCell>
        <mxCell id="gnuGHhX0t3bhiIQXMIf--53" value="" style="ellipse;whiteSpace=wrap;html=1;strokeWidth=2;fillColor=#6d8764;strokeColor=#3A5431;fontColor=#ffffff;" parent="1" vertex="1">
          <mxGeometry x="1855" y="770" width="50" height="50" as="geometry" />
        </mxCell>
        <mxCell id="gnuGHhX0t3bhiIQXMIf--56" value="" style="edgeStyle=orthogonalEdgeStyle;rounded=0;orthogonalLoop=1;jettySize=auto;html=1;" parent="1" source="gnuGHhX0t3bhiIQXMIf--55" target="gnuGHhX0t3bhiIQXMIf--35" edge="1">
          <mxGeometry relative="1" as="geometry" />
        </mxCell>
        <mxCell id="gnuGHhX0t3bhiIQXMIf--55" value="2" style="ellipse;whiteSpace=wrap;html=1;strokeWidth=2;fillColor=#d5e8d4;strokeColor=#82b366;" parent="1" vertex="1">
          <mxGeometry x="1855" y="30" width="50" height="50" as="geometry" />
        </mxCell>
        <mxCell id="gnuGHhX0t3bhiIQXMIf--60" value="" style="edgeStyle=orthogonalEdgeStyle;rounded=0;orthogonalLoop=1;jettySize=auto;html=1;" parent="1" source="gnuGHhX0t3bhiIQXMIf--58" target="gnuGHhX0t3bhiIQXMIf--52" edge="1">
          <mxGeometry relative="1" as="geometry" />
        </mxCell>
        <mxCell id="gnuGHhX0t3bhiIQXMIf--58" value="data_akun" style="strokeWidth=2;html=1;shape=mxgraph.flowchart.database;whiteSpace=wrap;" parent="1" vertex="1">
          <mxGeometry x="1850" y="560" width="60" height="60" as="geometry" />
        </mxCell>
        <mxCell id="gnuGHhX0t3bhiIQXMIf--62" value="" style="edgeStyle=orthogonalEdgeStyle;rounded=0;orthogonalLoop=1;jettySize=auto;html=1;" parent="1" source="gnuGHhX0t3bhiIQXMIf--61" target="gnuGHhX0t3bhiIQXMIf--2" edge="1">
          <mxGeometry relative="1" as="geometry">
            <Array as="points">
              <mxPoint x="50" y="190" />
            </Array>
          </mxGeometry>
        </mxCell>
        <mxCell id="gnuGHhX0t3bhiIQXMIf--61" value="" style="ellipse;whiteSpace=wrap;html=1;strokeWidth=2;fillColor=#6d8764;strokeColor=#3A5431;fontColor=#ffffff;" parent="1" vertex="1">
          <mxGeometry x="20" y="130" width="50" height="50" as="geometry" />
        </mxCell>
        <mxCell id="gnuGHhX0t3bhiIQXMIf--68" value="" style="edgeStyle=orthogonalEdgeStyle;rounded=0;orthogonalLoop=1;jettySize=auto;html=1;" parent="1" source="gnuGHhX0t3bhiIQXMIf--65" target="gnuGHhX0t3bhiIQXMIf--67" edge="1">
          <mxGeometry relative="1" as="geometry" />
        </mxCell>
        <mxCell id="gnuGHhX0t3bhiIQXMIf--65" value="akun_admin =&amp;nbsp;&lt;div&gt;MarshaAuliaFakhriza,&lt;/div&gt;&lt;div&gt;2409106116&lt;br&gt;&lt;/div&gt;" style="whiteSpace=wrap;html=1;strokeWidth=2;" parent="1" vertex="1">
          <mxGeometry x="1025" y="150" width="120" height="60" as="geometry" />
        </mxCell>
        <mxCell id="gnuGHhX0t3bhiIQXMIf--70" value="" style="edgeStyle=orthogonalEdgeStyle;rounded=0;orthogonalLoop=1;jettySize=auto;html=1;" parent="1" source="gnuGHhX0t3bhiIQXMIf--67" target="gnuGHhX0t3bhiIQXMIf--69" edge="1">
          <mxGeometry relative="1" as="geometry" />
        </mxCell>
        <mxCell id="gnuGHhX0t3bhiIQXMIf--67" value="input&lt;div&gt;masukkan usn&lt;/div&gt;" style="shape=parallelogram;perimeter=parallelogramPerimeter;whiteSpace=wrap;html=1;fixedSize=1;strokeWidth=2;" parent="1" vertex="1">
          <mxGeometry x="1025" y="260" width="120" height="60" as="geometry" />
        </mxCell>
        <mxCell id="gnuGHhX0t3bhiIQXMIf--74" value="" style="edgeStyle=orthogonalEdgeStyle;rounded=0;orthogonalLoop=1;jettySize=auto;html=1;" parent="1" source="gnuGHhX0t3bhiIQXMIf--69" target="gnuGHhX0t3bhiIQXMIf--73" edge="1">
          <mxGeometry relative="1" as="geometry" />
        </mxCell>
        <mxCell id="gnuGHhX0t3bhiIQXMIf--69" value="input&lt;div&gt;masukkan pw&lt;/div&gt;" style="shape=parallelogram;perimeter=parallelogramPerimeter;whiteSpace=wrap;html=1;fixedSize=1;strokeWidth=2;" parent="1" vertex="1">
          <mxGeometry x="1025" y="360" width="120" height="60" as="geometry" />
        </mxCell>
        <mxCell id="gnuGHhX0t3bhiIQXMIf--76" value="" style="edgeStyle=orthogonalEdgeStyle;rounded=0;orthogonalLoop=1;jettySize=auto;html=1;" parent="1" source="gnuGHhX0t3bhiIQXMIf--73" target="gnuGHhX0t3bhiIQXMIf--75" edge="1">
          <mxGeometry relative="1" as="geometry" />
        </mxCell>
        <mxCell id="gnuGHhX0t3bhiIQXMIf--73" value="cek data_akun" style="whiteSpace=wrap;html=1;strokeWidth=2;" parent="1" vertex="1">
          <mxGeometry x="1025" y="480" width="120" height="60" as="geometry" />
        </mxCell>
        <mxCell id="gnuGHhX0t3bhiIQXMIf--80" value="" style="edgeStyle=orthogonalEdgeStyle;rounded=0;orthogonalLoop=1;jettySize=auto;html=1;" parent="1" source="gnuGHhX0t3bhiIQXMIf--75" target="gnuGHhX0t3bhiIQXMIf--79" edge="1">
          <mxGeometry relative="1" as="geometry" />
        </mxCell>
        <mxCell id="gnuGHhX0t3bhiIQXMIf--81" value="true" style="edgeLabel;html=1;align=center;verticalAlign=middle;resizable=0;points=[];" parent="gnuGHhX0t3bhiIQXMIf--80" vertex="1" connectable="0">
          <mxGeometry x="-0.0667" y="-1" relative="1" as="geometry">
            <mxPoint as="offset" />
          </mxGeometry>
        </mxCell>
        <mxCell id="gnuGHhX0t3bhiIQXMIf--83" value="" style="edgeStyle=orthogonalEdgeStyle;rounded=0;orthogonalLoop=1;jettySize=auto;html=1;" parent="1" source="gnuGHhX0t3bhiIQXMIf--75" target="gnuGHhX0t3bhiIQXMIf--82" edge="1">
          <mxGeometry relative="1" as="geometry" />
        </mxCell>
        <mxCell id="gnuGHhX0t3bhiIQXMIf--84" value="false" style="edgeLabel;html=1;align=center;verticalAlign=middle;resizable=0;points=[];" parent="gnuGHhX0t3bhiIQXMIf--83" vertex="1" connectable="0">
          <mxGeometry x="-0.2213" y="1" relative="1" as="geometry">
            <mxPoint as="offset" />
          </mxGeometry>
        </mxCell>
        <mxCell id="gnuGHhX0t3bhiIQXMIf--75" value="akun_admin ==&lt;div&gt;usn,pw&lt;/div&gt;" style="rhombus;whiteSpace=wrap;html=1;strokeWidth=2;" parent="1" vertex="1">
          <mxGeometry x="1030" y="580" width="110" height="90" as="geometry" />
        </mxCell>
        <mxCell id="gnuGHhX0t3bhiIQXMIf--103" value="" style="edgeStyle=orthogonalEdgeStyle;rounded=0;orthogonalLoop=1;jettySize=auto;html=1;" parent="1" source="gnuGHhX0t3bhiIQXMIf--79" target="gnuGHhX0t3bhiIQXMIf--102" edge="1">
          <mxGeometry relative="1" as="geometry" />
        </mxCell>
        <mxCell id="gnuGHhX0t3bhiIQXMIf--79" value="output&lt;div&gt;login berhasil&lt;/div&gt;&lt;div&gt;sebagai admin&lt;/div&gt;" style="shape=parallelogram;perimeter=parallelogramPerimeter;whiteSpace=wrap;html=1;fixedSize=1;strokeWidth=2;" parent="1" vertex="1">
          <mxGeometry x="1190" y="595" width="120" height="60" as="geometry" />
        </mxCell>
        <mxCell id="gnuGHhX0t3bhiIQXMIf--86" value="" style="edgeStyle=orthogonalEdgeStyle;rounded=0;orthogonalLoop=1;jettySize=auto;html=1;" parent="1" source="gnuGHhX0t3bhiIQXMIf--82" target="gnuGHhX0t3bhiIQXMIf--85" edge="1">
          <mxGeometry relative="1" as="geometry" />
        </mxCell>
        <mxCell id="gnuGHhX0t3bhiIQXMIf--87" value="true" style="edgeLabel;html=1;align=center;verticalAlign=middle;resizable=0;points=[];" parent="gnuGHhX0t3bhiIQXMIf--86" vertex="1" connectable="0">
          <mxGeometry x="0.0321" y="-1" relative="1" as="geometry">
            <mxPoint as="offset" />
          </mxGeometry>
        </mxCell>
        <mxCell id="gnuGHhX0t3bhiIQXMIf--89" value="" style="edgeStyle=orthogonalEdgeStyle;rounded=0;orthogonalLoop=1;jettySize=auto;html=1;" parent="1" source="gnuGHhX0t3bhiIQXMIf--82" target="gnuGHhX0t3bhiIQXMIf--88" edge="1">
          <mxGeometry relative="1" as="geometry" />
        </mxCell>
        <mxCell id="gnuGHhX0t3bhiIQXMIf--90" value="false" style="edgeLabel;html=1;align=center;verticalAlign=middle;resizable=0;points=[];" parent="gnuGHhX0t3bhiIQXMIf--89" vertex="1" connectable="0">
          <mxGeometry x="-0.1418" y="1" relative="1" as="geometry">
            <mxPoint as="offset" />
          </mxGeometry>
        </mxCell>
        <mxCell id="gnuGHhX0t3bhiIQXMIf--82" value="data_akun ==&lt;div&gt;usn,pw&lt;/div&gt;" style="rhombus;whiteSpace=wrap;html=1;strokeWidth=2;" parent="1" vertex="1">
          <mxGeometry x="1030" y="730" width="110" height="90" as="geometry" />
        </mxCell>
        <mxCell id="gnuGHhX0t3bhiIQXMIf--107" value="" style="edgeStyle=orthogonalEdgeStyle;rounded=0;orthogonalLoop=1;jettySize=auto;html=1;" parent="1" source="gnuGHhX0t3bhiIQXMIf--85" target="gnuGHhX0t3bhiIQXMIf--106" edge="1">
          <mxGeometry relative="1" as="geometry" />
        </mxCell>
        <mxCell id="gnuGHhX0t3bhiIQXMIf--85" value="output&lt;div&gt;login berhasil&amp;nbsp;&lt;/div&gt;&lt;div&gt;sebagai user&lt;/div&gt;" style="shape=parallelogram;perimeter=parallelogramPerimeter;whiteSpace=wrap;html=1;fixedSize=1;strokeWidth=2;" parent="1" vertex="1">
          <mxGeometry x="1190" y="745" width="120" height="60" as="geometry" />
        </mxCell>
        <mxCell id="gnuGHhX0t3bhiIQXMIf--95" value="" style="edgeStyle=orthogonalEdgeStyle;rounded=0;orthogonalLoop=1;jettySize=auto;html=1;" parent="1" source="gnuGHhX0t3bhiIQXMIf--88" target="gnuGHhX0t3bhiIQXMIf--94" edge="1">
          <mxGeometry relative="1" as="geometry" />
        </mxCell>
        <mxCell id="gnuGHhX0t3bhiIQXMIf--99" value="false" style="edgeLabel;html=1;align=center;verticalAlign=middle;resizable=0;points=[];" parent="gnuGHhX0t3bhiIQXMIf--95" vertex="1" connectable="0">
          <mxGeometry x="-0.2083" y="2" relative="1" as="geometry">
            <mxPoint as="offset" />
          </mxGeometry>
        </mxCell>
        <mxCell id="gnuGHhX0t3bhiIQXMIf--97" value="" style="edgeStyle=orthogonalEdgeStyle;rounded=0;orthogonalLoop=1;jettySize=auto;html=1;" parent="1" source="gnuGHhX0t3bhiIQXMIf--88" target="gnuGHhX0t3bhiIQXMIf--96" edge="1">
          <mxGeometry relative="1" as="geometry" />
        </mxCell>
        <mxCell id="gnuGHhX0t3bhiIQXMIf--98" value="true" style="edgeLabel;html=1;align=center;verticalAlign=middle;resizable=0;points=[];" parent="gnuGHhX0t3bhiIQXMIf--97" vertex="1" connectable="0">
          <mxGeometry x="-0.08" y="-2" relative="1" as="geometry">
            <mxPoint as="offset" />
          </mxGeometry>
        </mxCell>
        <mxCell id="gnuGHhX0t3bhiIQXMIf--88" value="login &amp;lt; 3" style="rhombus;whiteSpace=wrap;html=1;strokeWidth=2;" parent="1" vertex="1">
          <mxGeometry x="1030" y="890" width="110" height="90" as="geometry" />
        </mxCell>
        <mxCell id="gnuGHhX0t3bhiIQXMIf--92" value="" style="endArrow=classic;html=1;rounded=0;" parent="1" target="gnuGHhX0t3bhiIQXMIf--67" edge="1">
          <mxGeometry width="50" height="50" relative="1" as="geometry">
            <mxPoint x="940" y="900" as="sourcePoint" />
            <mxPoint x="960" y="248.5185185185185" as="targetPoint" />
            <Array as="points">
              <mxPoint x="940" y="290" />
            </Array>
          </mxGeometry>
        </mxCell>
        <mxCell id="gnuGHhX0t3bhiIQXMIf--101" value="" style="edgeStyle=orthogonalEdgeStyle;rounded=0;orthogonalLoop=1;jettySize=auto;html=1;" parent="1" source="gnuGHhX0t3bhiIQXMIf--94" target="gnuGHhX0t3bhiIQXMIf--100" edge="1">
          <mxGeometry relative="1" as="geometry" />
        </mxCell>
        <mxCell id="gnuGHhX0t3bhiIQXMIf--94" value="output&lt;div&gt;Anda telah gagal&amp;nbsp;&lt;/div&gt;&lt;div&gt;login 3 kali. Kembali ke menu utama&lt;br&gt;&lt;div&gt;&lt;br&gt;&lt;/div&gt;&lt;/div&gt;" style="shape=parallelogram;perimeter=parallelogramPerimeter;whiteSpace=wrap;html=1;fixedSize=1;strokeWidth=2;" parent="1" vertex="1">
          <mxGeometry x="1010" y="1020" width="150" height="70" as="geometry" />
        </mxCell>
        <mxCell id="gnuGHhX0t3bhiIQXMIf--96" value="output&lt;div&gt;Login gagal! Username atau password salah.&lt;br&gt;&lt;/div&gt;" style="shape=parallelogram;perimeter=parallelogramPerimeter;whiteSpace=wrap;html=1;fixedSize=1;strokeWidth=2;" parent="1" vertex="1">
          <mxGeometry x="870" y="905" width="120" height="60" as="geometry" />
        </mxCell>
        <mxCell id="gnuGHhX0t3bhiIQXMIf--100" value="" style="ellipse;whiteSpace=wrap;html=1;strokeWidth=2;fillColor=#6d8764;strokeColor=#3A5431;fontColor=#ffffff;" parent="1" vertex="1">
          <mxGeometry x="1200" y="1030" width="50" height="50" as="geometry" />
        </mxCell>
        <mxCell id="gnuGHhX0t3bhiIQXMIf--105" value="" style="edgeStyle=orthogonalEdgeStyle;rounded=0;orthogonalLoop=1;jettySize=auto;html=1;" parent="1" source="gnuGHhX0t3bhiIQXMIf--102" target="gnuGHhX0t3bhiIQXMIf--104" edge="1">
          <mxGeometry relative="1" as="geometry" />
        </mxCell>
        <mxCell id="gnuGHhX0t3bhiIQXMIf--102" value="admin" style="shape=process;whiteSpace=wrap;html=1;backgroundOutline=1;strokeWidth=2;" parent="1" vertex="1">
          <mxGeometry x="1350" y="595" width="120" height="60" as="geometry" />
        </mxCell>
        <mxCell id="gnuGHhX0t3bhiIQXMIf--104" value="" style="ellipse;whiteSpace=wrap;html=1;strokeWidth=2;fillColor=#647687;strokeColor=#314354;fontColor=#ffffff;" parent="1" vertex="1">
          <mxGeometry x="1520" y="600" width="50" height="50" as="geometry" />
        </mxCell>
        <mxCell id="gnuGHhX0t3bhiIQXMIf--109" value="" style="edgeStyle=orthogonalEdgeStyle;rounded=0;orthogonalLoop=1;jettySize=auto;html=1;" parent="1" source="gnuGHhX0t3bhiIQXMIf--106" target="gnuGHhX0t3bhiIQXMIf--108" edge="1">
          <mxGeometry relative="1" as="geometry" />
        </mxCell>
        <mxCell id="gnuGHhX0t3bhiIQXMIf--106" value="user" style="shape=process;whiteSpace=wrap;html=1;backgroundOutline=1;strokeWidth=2;" parent="1" vertex="1">
          <mxGeometry x="1350" y="745" width="120" height="60" as="geometry" />
        </mxCell>
        <mxCell id="gnuGHhX0t3bhiIQXMIf--108" value="" style="ellipse;whiteSpace=wrap;html=1;strokeWidth=2;fillColor=#76608a;strokeColor=#432D57;fontColor=#ffffff;" parent="1" vertex="1">
          <mxGeometry x="1520" y="750" width="50" height="50" as="geometry" />
        </mxCell>
        <mxCell id="gnuGHhX0t3bhiIQXMIf--112" value="" style="edgeStyle=orthogonalEdgeStyle;rounded=0;orthogonalLoop=1;jettySize=auto;html=1;" parent="1" source="gnuGHhX0t3bhiIQXMIf--110" target="gnuGHhX0t3bhiIQXMIf--111" edge="1">
          <mxGeometry relative="1" as="geometry" />
        </mxCell>
        <mxCell id="gnuGHhX0t3bhiIQXMIf--110" value="" style="ellipse;whiteSpace=wrap;html=1;strokeWidth=2;fillColor=#647687;strokeColor=#314354;fontColor=#ffffff;" parent="1" vertex="1">
          <mxGeometry x="1070" y="1140" width="50" height="50" as="geometry" />
        </mxCell>
        <mxCell id="gnuGHhX0t3bhiIQXMIf--114" value="" style="edgeStyle=orthogonalEdgeStyle;rounded=0;orthogonalLoop=1;jettySize=auto;html=1;" parent="1" source="gnuGHhX0t3bhiIQXMIf--111" target="gnuGHhX0t3bhiIQXMIf--113" edge="1">
          <mxGeometry relative="1" as="geometry" />
        </mxCell>
        <mxCell id="gnuGHhX0t3bhiIQXMIf--111" value="output&lt;div&gt;&lt;div&gt;1. Lihat Daftar Sandal&lt;/div&gt;&lt;div&gt;2. Tambah Sandal&lt;/div&gt;&lt;div&gt;3. Edit Sandal&lt;/div&gt;&lt;div&gt;4. Hapus Sandal&lt;/div&gt;&lt;div&gt;5.Urutkan sendal&lt;/div&gt;&lt;div&gt;6. Log out&lt;/div&gt;&lt;/div&gt;" style="shape=parallelogram;perimeter=parallelogramPerimeter;whiteSpace=wrap;html=1;fixedSize=1;strokeWidth=2;" parent="1" vertex="1">
          <mxGeometry x="1000" y="1250" width="190" height="120" as="geometry" />
        </mxCell>
        <mxCell id="gnuGHhX0t3bhiIQXMIf--118" value="" style="edgeStyle=orthogonalEdgeStyle;rounded=0;orthogonalLoop=1;jettySize=auto;html=1;" parent="1" source="gnuGHhX0t3bhiIQXMIf--113" target="gnuGHhX0t3bhiIQXMIf--117" edge="1">
          <mxGeometry relative="1" as="geometry" />
        </mxCell>
        <mxCell id="gnuGHhX0t3bhiIQXMIf--124" value="false" style="edgeLabel;html=1;align=center;verticalAlign=middle;resizable=0;points=[];" parent="gnuGHhX0t3bhiIQXMIf--118" vertex="1" connectable="0">
          <mxGeometry x="-0.125" y="1" relative="1" as="geometry">
            <mxPoint as="offset" />
          </mxGeometry>
        </mxCell>
        <mxCell id="gnuGHhX0t3bhiIQXMIf--120" value="" style="edgeStyle=orthogonalEdgeStyle;rounded=0;orthogonalLoop=1;jettySize=auto;html=1;" parent="1" source="gnuGHhX0t3bhiIQXMIf--113" target="gnuGHhX0t3bhiIQXMIf--119" edge="1">
          <mxGeometry relative="1" as="geometry" />
        </mxCell>
        <mxCell id="gnuGHhX0t3bhiIQXMIf--123" value="true" style="edgeLabel;html=1;align=center;verticalAlign=middle;resizable=0;points=[];" parent="gnuGHhX0t3bhiIQXMIf--120" vertex="1" connectable="0">
          <mxGeometry x="-0.1387" relative="1" as="geometry">
            <mxPoint as="offset" />
          </mxGeometry>
        </mxCell>
        <mxCell id="gnuGHhX0t3bhiIQXMIf--113" value="opsi 1" style="rhombus;whiteSpace=wrap;html=1;strokeWidth=2;" parent="1" vertex="1">
          <mxGeometry x="1055" y="1425" width="80" height="80" as="geometry" />
        </mxCell>
        <mxCell id="gnuGHhX0t3bhiIQXMIf--126" value="" style="edgeStyle=orthogonalEdgeStyle;rounded=0;orthogonalLoop=1;jettySize=auto;html=1;" parent="1" source="gnuGHhX0t3bhiIQXMIf--117" target="gnuGHhX0t3bhiIQXMIf--125" edge="1">
          <mxGeometry relative="1" as="geometry" />
        </mxCell>
        <mxCell id="gnuGHhX0t3bhiIQXMIf--158" value="true" style="edgeLabel;html=1;align=center;verticalAlign=middle;resizable=0;points=[];" parent="gnuGHhX0t3bhiIQXMIf--126" vertex="1" connectable="0">
          <mxGeometry x="-0.1385" y="-4" relative="1" as="geometry">
            <mxPoint as="offset" />
          </mxGeometry>
        </mxCell>
        <mxCell id="gnuGHhX0t3bhiIQXMIf--144" value="" style="edgeStyle=orthogonalEdgeStyle;rounded=0;orthogonalLoop=1;jettySize=auto;html=1;" parent="1" source="gnuGHhX0t3bhiIQXMIf--117" target="gnuGHhX0t3bhiIQXMIf--143" edge="1">
          <mxGeometry relative="1" as="geometry" />
        </mxCell>
        <mxCell id="gnuGHhX0t3bhiIQXMIf--145" value="false" style="edgeLabel;html=1;align=center;verticalAlign=middle;resizable=0;points=[];" parent="gnuGHhX0t3bhiIQXMIf--144" vertex="1" connectable="0">
          <mxGeometry x="-0.0578" y="1" relative="1" as="geometry">
            <mxPoint as="offset" />
          </mxGeometry>
        </mxCell>
        <mxCell id="gnuGHhX0t3bhiIQXMIf--117" value="opsi 2" style="rhombus;whiteSpace=wrap;html=1;strokeWidth=2;" parent="1" vertex="1">
          <mxGeometry x="1055" y="1614.67" width="80" height="80" as="geometry" />
        </mxCell>
        <mxCell id="gnuGHhX0t3bhiIQXMIf--122" value="" style="edgeStyle=orthogonalEdgeStyle;rounded=0;orthogonalLoop=1;jettySize=auto;html=1;" parent="1" source="gnuGHhX0t3bhiIQXMIf--119" target="gnuGHhX0t3bhiIQXMIf--121" edge="1">
          <mxGeometry relative="1" as="geometry" />
        </mxCell>
        <mxCell id="gnuGHhX0t3bhiIQXMIf--119" value="data_sandal" style="strokeWidth=2;html=1;shape=mxgraph.flowchart.database;whiteSpace=wrap;" parent="1" vertex="1">
          <mxGeometry x="1180" y="1430" width="70" height="70" as="geometry" />
        </mxCell>
        <mxCell id="gnuGHhX0t3bhiIQXMIf--121" value="output&lt;div&gt;menampilkan&amp;nbsp;&lt;/div&gt;&lt;div&gt;data_sandal&lt;/div&gt;" style="shape=parallelogram;perimeter=parallelogramPerimeter;whiteSpace=wrap;html=1;fixedSize=1;strokeWidth=2;" parent="1" vertex="1">
          <mxGeometry x="1305" y="1435" width="120" height="60" as="geometry" />
        </mxCell>
        <mxCell id="gnuGHhX0t3bhiIQXMIf--130" value="" style="edgeStyle=orthogonalEdgeStyle;rounded=0;orthogonalLoop=1;jettySize=auto;html=1;" parent="1" source="gnuGHhX0t3bhiIQXMIf--125" target="gnuGHhX0t3bhiIQXMIf--129" edge="1">
          <mxGeometry relative="1" as="geometry">
            <Array as="points">
              <mxPoint x="1240" y="1560" />
            </Array>
          </mxGeometry>
        </mxCell>
        <mxCell id="gnuGHhX0t3bhiIQXMIf--131" value="true" style="edgeLabel;html=1;align=center;verticalAlign=middle;resizable=0;points=[];" parent="gnuGHhX0t3bhiIQXMIf--130" vertex="1" connectable="0">
          <mxGeometry x="-0.5877" y="-1" relative="1" as="geometry">
            <mxPoint as="offset" />
          </mxGeometry>
        </mxCell>
        <mxCell id="gnuGHhX0t3bhiIQXMIf--133" value="" style="edgeStyle=orthogonalEdgeStyle;rounded=0;orthogonalLoop=1;jettySize=auto;html=1;" parent="1" source="gnuGHhX0t3bhiIQXMIf--125" target="gnuGHhX0t3bhiIQXMIf--132" edge="1">
          <mxGeometry relative="1" as="geometry">
            <Array as="points">
              <mxPoint x="1240" y="1740" />
            </Array>
          </mxGeometry>
        </mxCell>
        <mxCell id="gnuGHhX0t3bhiIQXMIf--142" value="false" style="edgeLabel;html=1;align=center;verticalAlign=middle;resizable=0;points=[];" parent="gnuGHhX0t3bhiIQXMIf--133" vertex="1" connectable="0">
          <mxGeometry x="-0.5996" relative="1" as="geometry">
            <mxPoint as="offset" />
          </mxGeometry>
        </mxCell>
        <mxCell id="gnuGHhX0t3bhiIQXMIf--125" value="data_sandal&lt;div&gt;== 5&lt;/div&gt;" style="rhombus;whiteSpace=wrap;html=1;strokeWidth=2;" parent="1" vertex="1">
          <mxGeometry x="1200" y="1614.67" width="80" height="80" as="geometry" />
        </mxCell>
        <mxCell id="gnuGHhX0t3bhiIQXMIf--129" value="output&lt;div&gt;kapasitas penuh&lt;/div&gt;" style="shape=parallelogram;perimeter=parallelogramPerimeter;whiteSpace=wrap;html=1;fixedSize=1;strokeWidth=2;" parent="1" vertex="1">
          <mxGeometry x="1300" y="1530" width="120" height="60" as="geometry" />
        </mxCell>
        <mxCell id="gnuGHhX0t3bhiIQXMIf--135" value="" style="edgeStyle=orthogonalEdgeStyle;rounded=0;orthogonalLoop=1;jettySize=auto;html=1;" parent="1" source="gnuGHhX0t3bhiIQXMIf--132" target="gnuGHhX0t3bhiIQXMIf--134" edge="1">
          <mxGeometry relative="1" as="geometry" />
        </mxCell>
        <mxCell id="gnuGHhX0t3bhiIQXMIf--132" value="input&lt;div&gt;nama sandal&lt;/div&gt;" style="shape=parallelogram;perimeter=parallelogramPerimeter;whiteSpace=wrap;html=1;fixedSize=1;strokeWidth=2;" parent="1" vertex="1">
          <mxGeometry x="1280" y="1710" width="120" height="60" as="geometry" />
        </mxCell>
        <mxCell id="gnuGHhX0t3bhiIQXMIf--137" value="" style="edgeStyle=orthogonalEdgeStyle;rounded=0;orthogonalLoop=1;jettySize=auto;html=1;" parent="1" source="gnuGHhX0t3bhiIQXMIf--134" target="gnuGHhX0t3bhiIQXMIf--136" edge="1">
          <mxGeometry relative="1" as="geometry" />
        </mxCell>
        <mxCell id="gnuGHhX0t3bhiIQXMIf--134" value="input&lt;div&gt;harga&lt;/div&gt;" style="shape=parallelogram;perimeter=parallelogramPerimeter;whiteSpace=wrap;html=1;fixedSize=1;strokeWidth=2;" parent="1" vertex="1">
          <mxGeometry x="1430" y="1710" width="120" height="60" as="geometry" />
        </mxCell>
        <mxCell id="gnuGHhX0t3bhiIQXMIf--139" value="" style="edgeStyle=orthogonalEdgeStyle;rounded=0;orthogonalLoop=1;jettySize=auto;html=1;" parent="1" source="gnuGHhX0t3bhiIQXMIf--136" target="gnuGHhX0t3bhiIQXMIf--138" edge="1">
          <mxGeometry relative="1" as="geometry" />
        </mxCell>
        <mxCell id="gnuGHhX0t3bhiIQXMIf--136" value="input&lt;div&gt;stok&lt;/div&gt;" style="shape=parallelogram;perimeter=parallelogramPerimeter;whiteSpace=wrap;html=1;fixedSize=1;strokeWidth=2;" parent="1" vertex="1">
          <mxGeometry x="1580" y="1710" width="120" height="60" as="geometry" />
        </mxCell>
        <mxCell id="gnuGHhX0t3bhiIQXMIf--141" value="" style="edgeStyle=orthogonalEdgeStyle;rounded=0;orthogonalLoop=1;jettySize=auto;html=1;" parent="1" source="gnuGHhX0t3bhiIQXMIf--138" target="gnuGHhX0t3bhiIQXMIf--140" edge="1">
          <mxGeometry relative="1" as="geometry" />
        </mxCell>
        <mxCell id="gnuGHhX0t3bhiIQXMIf--138" value="data_sandal" style="strokeWidth=2;html=1;shape=mxgraph.flowchart.database;whiteSpace=wrap;" parent="1" vertex="1">
          <mxGeometry x="1730" y="1705" width="70" height="70" as="geometry" />
        </mxCell>
        <mxCell id="gnuGHhX0t3bhiIQXMIf--140" value="output&lt;div&gt;berhasil ditambah&lt;/div&gt;" style="shape=parallelogram;perimeter=parallelogramPerimeter;whiteSpace=wrap;html=1;fixedSize=1;strokeWidth=2;" parent="1" vertex="1">
          <mxGeometry x="1855" y="1710" width="120" height="60" as="geometry" />
        </mxCell>
        <mxCell id="gnuGHhX0t3bhiIQXMIf--147" value="" style="edgeStyle=orthogonalEdgeStyle;rounded=0;orthogonalLoop=1;jettySize=auto;html=1;" parent="1" source="gnuGHhX0t3bhiIQXMIf--143" target="gnuGHhX0t3bhiIQXMIf--146" edge="1">
          <mxGeometry relative="1" as="geometry" />
        </mxCell>
        <mxCell id="gnuGHhX0t3bhiIQXMIf--159" value="true" style="edgeLabel;html=1;align=center;verticalAlign=middle;resizable=0;points=[];" parent="gnuGHhX0t3bhiIQXMIf--147" vertex="1" connectable="0">
          <mxGeometry x="-0.1238" y="3" relative="1" as="geometry">
            <mxPoint as="offset" />
          </mxGeometry>
        </mxCell>
        <mxCell id="gnuGHhX0t3bhiIQXMIf--161" value="" style="edgeStyle=orthogonalEdgeStyle;rounded=0;orthogonalLoop=1;jettySize=auto;html=1;" parent="1" source="gnuGHhX0t3bhiIQXMIf--143" target="gnuGHhX0t3bhiIQXMIf--160" edge="1">
          <mxGeometry relative="1" as="geometry" />
        </mxCell>
        <mxCell id="gnuGHhX0t3bhiIQXMIf--162" value="false" style="edgeLabel;html=1;align=center;verticalAlign=middle;resizable=0;points=[];" parent="gnuGHhX0t3bhiIQXMIf--161" vertex="1" connectable="0">
          <mxGeometry x="-0.0611" y="-2" relative="1" as="geometry">
            <mxPoint as="offset" />
          </mxGeometry>
        </mxCell>
        <mxCell id="gnuGHhX0t3bhiIQXMIf--143" value="opsi 3" style="rhombus;whiteSpace=wrap;html=1;strokeWidth=2;" parent="1" vertex="1">
          <mxGeometry x="1055" y="1810" width="80" height="80" as="geometry" />
        </mxCell>
        <mxCell id="gnuGHhX0t3bhiIQXMIf--149" value="" style="edgeStyle=orthogonalEdgeStyle;rounded=0;orthogonalLoop=1;jettySize=auto;html=1;" parent="1" source="gnuGHhX0t3bhiIQXMIf--146" target="gnuGHhX0t3bhiIQXMIf--148" edge="1">
          <mxGeometry relative="1" as="geometry" />
        </mxCell>
        <mxCell id="gnuGHhX0t3bhiIQXMIf--146" value="inpu&lt;div&gt;masukkan nomor&lt;/div&gt;&lt;div&gt;sandal yg di edit&lt;/div&gt;" style="shape=parallelogram;perimeter=parallelogramPerimeter;whiteSpace=wrap;html=1;fixedSize=1;strokeWidth=2;" parent="1" vertex="1">
          <mxGeometry x="1195" y="1820" width="120" height="60" as="geometry" />
        </mxCell>
        <mxCell id="gnuGHhX0t3bhiIQXMIf--151" value="" style="edgeStyle=orthogonalEdgeStyle;rounded=0;orthogonalLoop=1;jettySize=auto;html=1;" parent="1" source="gnuGHhX0t3bhiIQXMIf--148" target="gnuGHhX0t3bhiIQXMIf--150" edge="1">
          <mxGeometry relative="1" as="geometry" />
        </mxCell>
        <mxCell id="gnuGHhX0t3bhiIQXMIf--148" value="input&lt;div&gt;nama sandal&amp;nbsp;&lt;/div&gt;&lt;div&gt;baru&lt;/div&gt;" style="shape=parallelogram;perimeter=parallelogramPerimeter;whiteSpace=wrap;html=1;fixedSize=1;strokeWidth=2;" parent="1" vertex="1">
          <mxGeometry x="1340" y="1820" width="120" height="60" as="geometry" />
        </mxCell>
        <mxCell id="gnuGHhX0t3bhiIQXMIf--153" value="" style="edgeStyle=orthogonalEdgeStyle;rounded=0;orthogonalLoop=1;jettySize=auto;html=1;" parent="1" source="gnuGHhX0t3bhiIQXMIf--150" target="gnuGHhX0t3bhiIQXMIf--152" edge="1">
          <mxGeometry relative="1" as="geometry" />
        </mxCell>
        <mxCell id="gnuGHhX0t3bhiIQXMIf--150" value="input&lt;div&gt;harga baru&lt;/div&gt;" style="shape=parallelogram;perimeter=parallelogramPerimeter;whiteSpace=wrap;html=1;fixedSize=1;strokeWidth=2;" parent="1" vertex="1">
          <mxGeometry x="1490" y="1820" width="120" height="60" as="geometry" />
        </mxCell>
        <mxCell id="gnuGHhX0t3bhiIQXMIf--155" value="" style="edgeStyle=orthogonalEdgeStyle;rounded=0;orthogonalLoop=1;jettySize=auto;html=1;" parent="1" source="gnuGHhX0t3bhiIQXMIf--152" target="gnuGHhX0t3bhiIQXMIf--154" edge="1">
          <mxGeometry relative="1" as="geometry" />
        </mxCell>
        <mxCell id="gnuGHhX0t3bhiIQXMIf--152" value="input&lt;div&gt;stok baru&lt;/div&gt;" style="shape=parallelogram;perimeter=parallelogramPerimeter;whiteSpace=wrap;html=1;fixedSize=1;strokeWidth=2;" parent="1" vertex="1">
          <mxGeometry x="1630" y="1820" width="120" height="60" as="geometry" />
        </mxCell>
        <mxCell id="gnuGHhX0t3bhiIQXMIf--157" value="" style="edgeStyle=orthogonalEdgeStyle;rounded=0;orthogonalLoop=1;jettySize=auto;html=1;" parent="1" source="gnuGHhX0t3bhiIQXMIf--154" target="gnuGHhX0t3bhiIQXMIf--156" edge="1">
          <mxGeometry relative="1" as="geometry" />
        </mxCell>
        <mxCell id="gnuGHhX0t3bhiIQXMIf--154" value="data_sandal" style="strokeWidth=2;html=1;shape=mxgraph.flowchart.database;whiteSpace=wrap;" parent="1" vertex="1">
          <mxGeometry x="1780" y="1815" width="70" height="70" as="geometry" />
        </mxCell>
        <mxCell id="gnuGHhX0t3bhiIQXMIf--156" value="output&lt;div&gt;berhasil diedit&lt;/div&gt;" style="shape=parallelogram;perimeter=parallelogramPerimeter;whiteSpace=wrap;html=1;fixedSize=1;strokeWidth=2;" parent="1" vertex="1">
          <mxGeometry x="1880" y="1820" width="120" height="60" as="geometry" />
        </mxCell>
        <mxCell id="gnuGHhX0t3bhiIQXMIf--164" value="" style="edgeStyle=orthogonalEdgeStyle;rounded=0;orthogonalLoop=1;jettySize=auto;html=1;" parent="1" source="gnuGHhX0t3bhiIQXMIf--160" target="gnuGHhX0t3bhiIQXMIf--163" edge="1">
          <mxGeometry relative="1" as="geometry" />
        </mxCell>
        <mxCell id="gnuGHhX0t3bhiIQXMIf--167" value="true" style="edgeLabel;html=1;align=center;verticalAlign=middle;resizable=0;points=[];" parent="gnuGHhX0t3bhiIQXMIf--164" vertex="1" connectable="0">
          <mxGeometry x="-0.2" y="-1" relative="1" as="geometry">
            <mxPoint as="offset" />
          </mxGeometry>
        </mxCell>
        <mxCell id="T4xbNZwdvt2q2bcjUC-Y-2" value="" style="edgeStyle=orthogonalEdgeStyle;rounded=0;orthogonalLoop=1;jettySize=auto;html=1;" parent="1" source="gnuGHhX0t3bhiIQXMIf--160" target="T4xbNZwdvt2q2bcjUC-Y-1" edge="1">
          <mxGeometry relative="1" as="geometry" />
        </mxCell>
        <mxCell id="T4xbNZwdvt2q2bcjUC-Y-3" value="false" style="edgeLabel;html=1;align=center;verticalAlign=middle;resizable=0;points=[];" parent="T4xbNZwdvt2q2bcjUC-Y-2" vertex="1" connectable="0">
          <mxGeometry x="-0.2088" y="-3" relative="1" as="geometry">
            <mxPoint as="offset" />
          </mxGeometry>
        </mxCell>
        <mxCell id="gnuGHhX0t3bhiIQXMIf--160" value="opsi 4" style="rhombus;whiteSpace=wrap;html=1;strokeWidth=2;" parent="1" vertex="1">
          <mxGeometry x="1055" y="1970" width="80" height="80" as="geometry" />
        </mxCell>
        <mxCell id="gnuGHhX0t3bhiIQXMIf--166" value="" style="edgeStyle=orthogonalEdgeStyle;rounded=0;orthogonalLoop=1;jettySize=auto;html=1;" parent="1" source="gnuGHhX0t3bhiIQXMIf--163" target="gnuGHhX0t3bhiIQXMIf--165" edge="1">
          <mxGeometry relative="1" as="geometry" />
        </mxCell>
        <mxCell id="gnuGHhX0t3bhiIQXMIf--163" value="input&amp;nbsp;&lt;div&gt;masukkan nomor&lt;/div&gt;&lt;div&gt;sandal&lt;/div&gt;" style="shape=parallelogram;perimeter=parallelogramPerimeter;whiteSpace=wrap;html=1;fixedSize=1;strokeWidth=2;" parent="1" vertex="1">
          <mxGeometry x="1180" y="1980" width="120" height="60" as="geometry" />
        </mxCell>
        <mxCell id="gnuGHhX0t3bhiIQXMIf--165" value="output&amp;nbsp;&lt;div&gt;sandal berhasil dihapus&lt;/div&gt;" style="shape=parallelogram;perimeter=parallelogramPerimeter;whiteSpace=wrap;html=1;fixedSize=1;strokeWidth=2;" parent="1" vertex="1">
          <mxGeometry x="1380" y="1980" width="120" height="60" as="geometry" />
        </mxCell>
        <mxCell id="gnuGHhX0t3bhiIQXMIf--172" value="" style="edgeStyle=orthogonalEdgeStyle;rounded=0;orthogonalLoop=1;jettySize=auto;html=1;" parent="1" source="gnuGHhX0t3bhiIQXMIf--168" target="gnuGHhX0t3bhiIQXMIf--171" edge="1">
          <mxGeometry relative="1" as="geometry" />
        </mxCell>
        <mxCell id="gnuGHhX0t3bhiIQXMIf--173" value="true" style="edgeLabel;html=1;align=center;verticalAlign=middle;resizable=0;points=[];" parent="gnuGHhX0t3bhiIQXMIf--172" vertex="1" connectable="0">
          <mxGeometry x="-0.2161" relative="1" as="geometry">
            <mxPoint as="offset" />
          </mxGeometry>
        </mxCell>
        <mxCell id="gnuGHhX0t3bhiIQXMIf--177" value="" style="edgeStyle=orthogonalEdgeStyle;rounded=0;orthogonalLoop=1;jettySize=auto;html=1;" parent="1" source="gnuGHhX0t3bhiIQXMIf--168" target="gnuGHhX0t3bhiIQXMIf--176" edge="1">
          <mxGeometry relative="1" as="geometry" />
        </mxCell>
        <mxCell id="gnuGHhX0t3bhiIQXMIf--168" value="opsi 6" style="rhombus;whiteSpace=wrap;html=1;strokeWidth=2;" parent="1" vertex="1">
          <mxGeometry x="1055" y="2270" width="80" height="80" as="geometry" />
        </mxCell>
        <mxCell id="gnuGHhX0t3bhiIQXMIf--175" value="" style="edgeStyle=orthogonalEdgeStyle;rounded=0;orthogonalLoop=1;jettySize=auto;html=1;" parent="1" source="gnuGHhX0t3bhiIQXMIf--171" target="gnuGHhX0t3bhiIQXMIf--174" edge="1">
          <mxGeometry relative="1" as="geometry" />
        </mxCell>
        <mxCell id="gnuGHhX0t3bhiIQXMIf--171" value="output&lt;div&gt;berhasil logout&lt;/div&gt;" style="shape=parallelogram;perimeter=parallelogramPerimeter;whiteSpace=wrap;html=1;fixedSize=1;strokeWidth=2;" parent="1" vertex="1">
          <mxGeometry x="1185" y="2280" width="120" height="60" as="geometry" />
        </mxCell>
        <mxCell id="gnuGHhX0t3bhiIQXMIf--174" value="" style="ellipse;whiteSpace=wrap;html=1;strokeWidth=2;fillColor=#6d8764;strokeColor=#3A5431;fontColor=#ffffff;" parent="1" vertex="1">
          <mxGeometry x="1360" y="2285" width="50" height="50" as="geometry" />
        </mxCell>
        <mxCell id="gnuGHhX0t3bhiIQXMIf--176" value="&lt;div&gt;output&lt;/div&gt;input tidak valid" style="shape=parallelogram;perimeter=parallelogramPerimeter;whiteSpace=wrap;html=1;fixedSize=1;strokeWidth=2;" parent="1" vertex="1">
          <mxGeometry x="1035" y="2430" width="120" height="60" as="geometry" />
        </mxCell>
        <mxCell id="gnuGHhX0t3bhiIQXMIf--178" value="" style="endArrow=classic;html=1;rounded=0;exitX=1;exitY=0.5;exitDx=0;exitDy=0;entryX=1;entryY=0.5;entryDx=0;entryDy=0;" parent="1" source="gnuGHhX0t3bhiIQXMIf--176" target="gnuGHhX0t3bhiIQXMIf--111" edge="1">
          <mxGeometry width="50" height="50" relative="1" as="geometry">
            <mxPoint x="1190" y="2260" as="sourcePoint" />
            <mxPoint x="2060" y="1300" as="targetPoint" />
            <Array as="points">
              <mxPoint x="2080" y="2460" />
              <mxPoint x="2080" y="1310" />
            </Array>
          </mxGeometry>
        </mxCell>
        <mxCell id="gnuGHhX0t3bhiIQXMIf--179" value="" style="endArrow=classic;html=1;rounded=0;exitX=1;exitY=0.75;exitDx=0;exitDy=0;" parent="1" source="gnuGHhX0t3bhiIQXMIf--121" edge="1">
          <mxGeometry width="50" height="50" relative="1" as="geometry">
            <mxPoint x="1630" y="1690" as="sourcePoint" />
            <mxPoint x="2080" y="1477" as="targetPoint" />
          </mxGeometry>
        </mxCell>
        <mxCell id="gnuGHhX0t3bhiIQXMIf--180" value="" style="endArrow=classic;html=1;rounded=0;exitX=1;exitY=0.75;exitDx=0;exitDy=0;" parent="1" edge="1">
          <mxGeometry width="50" height="50" relative="1" as="geometry">
            <mxPoint x="1410" y="1559.6" as="sourcePoint" />
            <mxPoint x="2079" y="1559.6" as="targetPoint" />
          </mxGeometry>
        </mxCell>
        <mxCell id="gnuGHhX0t3bhiIQXMIf--181" value="" style="edgeStyle=orthogonalEdgeStyle;rounded=0;orthogonalLoop=1;jettySize=auto;html=1;exitX=1;exitY=0.5;exitDx=0;exitDy=0;" parent="1" source="gnuGHhX0t3bhiIQXMIf--140" edge="1">
          <mxGeometry relative="1" as="geometry">
            <mxPoint x="1975" y="1739.6" as="sourcePoint" />
            <mxPoint x="2080" y="1740" as="targetPoint" />
          </mxGeometry>
        </mxCell>
        <mxCell id="gnuGHhX0t3bhiIQXMIf--182" value="" style="edgeStyle=orthogonalEdgeStyle;rounded=0;orthogonalLoop=1;jettySize=auto;html=1;" parent="1" edge="1">
          <mxGeometry relative="1" as="geometry">
            <mxPoint x="1990" y="1849.6" as="sourcePoint" />
            <mxPoint x="2080" y="1850" as="targetPoint" />
          </mxGeometry>
        </mxCell>
        <mxCell id="gnuGHhX0t3bhiIQXMIf--183" value="" style="edgeStyle=orthogonalEdgeStyle;rounded=0;orthogonalLoop=1;jettySize=auto;html=1;" parent="1" edge="1">
          <mxGeometry relative="1" as="geometry">
            <mxPoint x="1490" y="2009.6" as="sourcePoint" />
            <mxPoint x="2080" y="2010" as="targetPoint" />
          </mxGeometry>
        </mxCell>
        <mxCell id="gnuGHhX0t3bhiIQXMIf--186" value="" style="edgeStyle=orthogonalEdgeStyle;rounded=0;orthogonalLoop=1;jettySize=auto;html=1;" parent="1" source="gnuGHhX0t3bhiIQXMIf--184" target="gnuGHhX0t3bhiIQXMIf--185" edge="1">
          <mxGeometry relative="1" as="geometry" />
        </mxCell>
        <mxCell id="gnuGHhX0t3bhiIQXMIf--184" value="" style="ellipse;whiteSpace=wrap;html=1;strokeWidth=2;fillColor=#76608a;strokeColor=#432D57;fontColor=#ffffff;" parent="1" vertex="1">
          <mxGeometry x="2620" y="30" width="50" height="50" as="geometry" />
        </mxCell>
        <mxCell id="gnuGHhX0t3bhiIQXMIf--188" value="" style="edgeStyle=orthogonalEdgeStyle;rounded=0;orthogonalLoop=1;jettySize=auto;html=1;" parent="1" source="gnuGHhX0t3bhiIQXMIf--185" target="gnuGHhX0t3bhiIQXMIf--187" edge="1">
          <mxGeometry relative="1" as="geometry" />
        </mxCell>
        <mxCell id="gnuGHhX0t3bhiIQXMIf--185" value="output&lt;div&gt;&lt;div&gt;1. Lihat Daftar Sandal&lt;/div&gt;&lt;div&gt;2. Beli Sandal&lt;/div&gt;&lt;div&gt;3.Urutkan Sandal&lt;/div&gt;&lt;div&gt;4. Logout&lt;/div&gt;&lt;/div&gt;" style="shape=parallelogram;perimeter=parallelogramPerimeter;whiteSpace=wrap;html=1;fixedSize=1;strokeWidth=2;" parent="1" vertex="1">
          <mxGeometry x="2570" y="150" width="150" height="80" as="geometry" />
        </mxCell>
        <mxCell id="gnuGHhX0t3bhiIQXMIf--191" value="" style="edgeStyle=orthogonalEdgeStyle;rounded=0;orthogonalLoop=1;jettySize=auto;html=1;" parent="1" source="gnuGHhX0t3bhiIQXMIf--187" target="gnuGHhX0t3bhiIQXMIf--189" edge="1">
          <mxGeometry relative="1" as="geometry" />
        </mxCell>
        <mxCell id="gnuGHhX0t3bhiIQXMIf--193" value="true" style="edgeLabel;html=1;align=center;verticalAlign=middle;resizable=0;points=[];" parent="gnuGHhX0t3bhiIQXMIf--191" vertex="1" connectable="0">
          <mxGeometry x="-0.0588" y="-1" relative="1" as="geometry">
            <mxPoint as="offset" />
          </mxGeometry>
        </mxCell>
        <mxCell id="gnuGHhX0t3bhiIQXMIf--197" value="" style="edgeStyle=orthogonalEdgeStyle;rounded=0;orthogonalLoop=1;jettySize=auto;html=1;" parent="1" source="gnuGHhX0t3bhiIQXMIf--187" target="gnuGHhX0t3bhiIQXMIf--196" edge="1">
          <mxGeometry relative="1" as="geometry" />
        </mxCell>
        <mxCell id="gnuGHhX0t3bhiIQXMIf--208" value="false" style="edgeLabel;html=1;align=center;verticalAlign=middle;resizable=0;points=[];" parent="gnuGHhX0t3bhiIQXMIf--197" vertex="1" connectable="0">
          <mxGeometry x="-0.24" y="-2" relative="1" as="geometry">
            <mxPoint as="offset" />
          </mxGeometry>
        </mxCell>
        <mxCell id="gnuGHhX0t3bhiIQXMIf--187" value="opsi 1" style="rhombus;whiteSpace=wrap;html=1;strokeWidth=2;" parent="1" vertex="1">
          <mxGeometry x="2605" y="310" width="80" height="80" as="geometry" />
        </mxCell>
        <mxCell id="gnuGHhX0t3bhiIQXMIf--192" value="" style="edgeStyle=orthogonalEdgeStyle;rounded=0;orthogonalLoop=1;jettySize=auto;html=1;" parent="1" source="gnuGHhX0t3bhiIQXMIf--189" target="gnuGHhX0t3bhiIQXMIf--190" edge="1">
          <mxGeometry relative="1" as="geometry" />
        </mxCell>
        <mxCell id="gnuGHhX0t3bhiIQXMIf--189" value="data_sandal" style="strokeWidth=2;html=1;shape=mxgraph.flowchart.database;whiteSpace=wrap;" parent="1" vertex="1">
          <mxGeometry x="2740" y="315" width="70" height="70" as="geometry" />
        </mxCell>
        <mxCell id="gnuGHhX0t3bhiIQXMIf--190" value="output&lt;div&gt;menampilkan&amp;nbsp;&lt;/div&gt;&lt;div&gt;data_sandal&lt;/div&gt;" style="shape=parallelogram;perimeter=parallelogramPerimeter;whiteSpace=wrap;html=1;fixedSize=1;strokeWidth=2;" parent="1" vertex="1">
          <mxGeometry x="2870" y="320" width="120" height="60" as="geometry" />
        </mxCell>
        <mxCell id="gnuGHhX0t3bhiIQXMIf--199" value="" style="edgeStyle=orthogonalEdgeStyle;rounded=0;orthogonalLoop=1;jettySize=auto;html=1;" parent="1" source="gnuGHhX0t3bhiIQXMIf--196" target="gnuGHhX0t3bhiIQXMIf--198" edge="1">
          <mxGeometry relative="1" as="geometry" />
        </mxCell>
        <mxCell id="gnuGHhX0t3bhiIQXMIf--200" value="true" style="edgeLabel;html=1;align=center;verticalAlign=middle;resizable=0;points=[];" parent="gnuGHhX0t3bhiIQXMIf--199" vertex="1" connectable="0">
          <mxGeometry x="-0.0252" y="-1" relative="1" as="geometry">
            <mxPoint as="offset" />
          </mxGeometry>
        </mxCell>
        <mxCell id="DdCmtkIL3VwHRusY-l9i-2" value="" style="edgeStyle=orthogonalEdgeStyle;rounded=0;orthogonalLoop=1;jettySize=auto;html=1;" parent="1" source="gnuGHhX0t3bhiIQXMIf--196" target="DdCmtkIL3VwHRusY-l9i-1" edge="1">
          <mxGeometry relative="1" as="geometry" />
        </mxCell>
        <mxCell id="DdCmtkIL3VwHRusY-l9i-14" value="false" style="edgeLabel;html=1;align=center;verticalAlign=middle;resizable=0;points=[];" parent="DdCmtkIL3VwHRusY-l9i-2" vertex="1" connectable="0">
          <mxGeometry x="-0.1846" y="1" relative="1" as="geometry">
            <mxPoint as="offset" />
          </mxGeometry>
        </mxCell>
        <mxCell id="gnuGHhX0t3bhiIQXMIf--196" value="opsi 2" style="rhombus;whiteSpace=wrap;html=1;strokeWidth=2;" parent="1" vertex="1">
          <mxGeometry x="2605" y="440" width="80" height="80" as="geometry" />
        </mxCell>
        <mxCell id="gnuGHhX0t3bhiIQXMIf--202" value="" style="edgeStyle=orthogonalEdgeStyle;rounded=0;orthogonalLoop=1;jettySize=auto;html=1;" parent="1" source="gnuGHhX0t3bhiIQXMIf--198" target="gnuGHhX0t3bhiIQXMIf--201" edge="1">
          <mxGeometry relative="1" as="geometry" />
        </mxCell>
        <mxCell id="gnuGHhX0t3bhiIQXMIf--198" value="input&lt;div&gt;masukkan&lt;/div&gt;&lt;div&gt;nomor sandal&lt;/div&gt;" style="shape=parallelogram;perimeter=parallelogramPerimeter;whiteSpace=wrap;html=1;fixedSize=1;strokeWidth=2;" parent="1" vertex="1">
          <mxGeometry x="2745" y="450" width="120" height="60" as="geometry" />
        </mxCell>
        <mxCell id="gnuGHhX0t3bhiIQXMIf--206" value="" style="edgeStyle=orthogonalEdgeStyle;rounded=0;orthogonalLoop=1;jettySize=auto;html=1;" parent="1" source="gnuGHhX0t3bhiIQXMIf--201" target="gnuGHhX0t3bhiIQXMIf--205" edge="1">
          <mxGeometry relative="1" as="geometry" />
        </mxCell>
        <mxCell id="gnuGHhX0t3bhiIQXMIf--201" value="input&lt;div&gt;jumlah yang dibeli&lt;/div&gt;" style="shape=parallelogram;perimeter=parallelogramPerimeter;whiteSpace=wrap;html=1;fixedSize=1;strokeWidth=2;" parent="1" vertex="1">
          <mxGeometry x="2910" y="450" width="120" height="60" as="geometry" />
        </mxCell>
        <mxCell id="gnuGHhX0t3bhiIQXMIf--203" value="output&lt;div&gt;berhasil dibeli&lt;/div&gt;" style="shape=parallelogram;perimeter=parallelogramPerimeter;whiteSpace=wrap;html=1;fixedSize=1;strokeWidth=2;" parent="1" vertex="1">
          <mxGeometry x="3190" y="450" width="120" height="60" as="geometry" />
        </mxCell>
        <mxCell id="gnuGHhX0t3bhiIQXMIf--207" value="" style="edgeStyle=orthogonalEdgeStyle;rounded=0;orthogonalLoop=1;jettySize=auto;html=1;" parent="1" source="gnuGHhX0t3bhiIQXMIf--205" target="gnuGHhX0t3bhiIQXMIf--203" edge="1">
          <mxGeometry relative="1" as="geometry" />
        </mxCell>
        <mxCell id="gnuGHhX0t3bhiIQXMIf--205" value="data_sandal" style="strokeWidth=2;html=1;shape=mxgraph.flowchart.database;whiteSpace=wrap;" parent="1" vertex="1">
          <mxGeometry x="3070" y="445" width="70" height="70" as="geometry" />
        </mxCell>
        <mxCell id="gnuGHhX0t3bhiIQXMIf--212" value="" style="edgeStyle=orthogonalEdgeStyle;rounded=0;orthogonalLoop=1;jettySize=auto;html=1;" parent="1" source="gnuGHhX0t3bhiIQXMIf--209" target="gnuGHhX0t3bhiIQXMIf--211" edge="1">
          <mxGeometry relative="1" as="geometry" />
        </mxCell>
        <mxCell id="gnuGHhX0t3bhiIQXMIf--214" value="true" style="edgeLabel;html=1;align=center;verticalAlign=middle;resizable=0;points=[];" parent="gnuGHhX0t3bhiIQXMIf--212" vertex="1" connectable="0">
          <mxGeometry x="-0.0924" y="3" relative="1" as="geometry">
            <mxPoint as="offset" />
          </mxGeometry>
        </mxCell>
        <mxCell id="gnuGHhX0t3bhiIQXMIf--218" value="" style="edgeStyle=orthogonalEdgeStyle;rounded=0;orthogonalLoop=1;jettySize=auto;html=1;" parent="1" source="gnuGHhX0t3bhiIQXMIf--209" target="gnuGHhX0t3bhiIQXMIf--217" edge="1">
          <mxGeometry relative="1" as="geometry" />
        </mxCell>
        <mxCell id="gnuGHhX0t3bhiIQXMIf--219" value="false" style="edgeLabel;html=1;align=center;verticalAlign=middle;resizable=0;points=[];" parent="gnuGHhX0t3bhiIQXMIf--218" vertex="1" connectable="0">
          <mxGeometry x="-0.1007" y="2" relative="1" as="geometry">
            <mxPoint as="offset" />
          </mxGeometry>
        </mxCell>
        <mxCell id="gnuGHhX0t3bhiIQXMIf--209" value="opsi 4" style="rhombus;whiteSpace=wrap;html=1;strokeWidth=2;" parent="1" vertex="1">
          <mxGeometry x="2605" y="727.73" width="80" height="80" as="geometry" />
        </mxCell>
        <mxCell id="gnuGHhX0t3bhiIQXMIf--223" value="" style="edgeStyle=orthogonalEdgeStyle;rounded=0;orthogonalLoop=1;jettySize=auto;html=1;" parent="1" source="gnuGHhX0t3bhiIQXMIf--211" target="gnuGHhX0t3bhiIQXMIf--220" edge="1">
          <mxGeometry relative="1" as="geometry" />
        </mxCell>
        <mxCell id="gnuGHhX0t3bhiIQXMIf--211" value="output&lt;div&gt;berhasil logout&lt;/div&gt;" style="shape=parallelogram;perimeter=parallelogramPerimeter;whiteSpace=wrap;html=1;fixedSize=1;strokeWidth=2;" parent="1" vertex="1">
          <mxGeometry x="2745" y="737.73" width="120" height="60" as="geometry" />
        </mxCell>
        <mxCell id="gnuGHhX0t3bhiIQXMIf--217" value="output&lt;div&gt;input tidak valid&lt;/div&gt;" style="shape=parallelogram;perimeter=parallelogramPerimeter;whiteSpace=wrap;html=1;fixedSize=1;strokeWidth=2;" parent="1" vertex="1">
          <mxGeometry x="2585" y="897.73" width="120" height="60" as="geometry" />
        </mxCell>
        <mxCell id="gnuGHhX0t3bhiIQXMIf--220" value="" style="ellipse;whiteSpace=wrap;html=1;strokeWidth=2;fillColor=#6d8764;strokeColor=#3A5431;fontColor=#ffffff;" parent="1" vertex="1">
          <mxGeometry x="2905" y="742.73" width="50" height="50" as="geometry" />
        </mxCell>
        <mxCell id="gnuGHhX0t3bhiIQXMIf--224" value=" " style="endArrow=classic;html=1;rounded=0;exitX=1;exitY=0.5;exitDx=0;exitDy=0;entryX=1;entryY=0.5;entryDx=0;entryDy=0;" parent="1" source="gnuGHhX0t3bhiIQXMIf--217" target="gnuGHhX0t3bhiIQXMIf--185" edge="1">
          <mxGeometry width="50" height="50" relative="1" as="geometry">
            <mxPoint x="2850" y="850" as="sourcePoint" />
            <mxPoint x="3360" y="150" as="targetPoint" />
            <Array as="points">
              <mxPoint x="3360" y="920" />
              <mxPoint x="3360" y="190" />
            </Array>
          </mxGeometry>
        </mxCell>
        <mxCell id="gnuGHhX0t3bhiIQXMIf--225" value="" style="endArrow=classic;html=1;rounded=0;exitX=1;exitY=0.5;exitDx=0;exitDy=0;" parent="1" source="gnuGHhX0t3bhiIQXMIf--190" edge="1">
          <mxGeometry width="50" height="50" relative="1" as="geometry">
            <mxPoint x="3290" y="410" as="sourcePoint" />
            <mxPoint x="3360" y="350" as="targetPoint" />
          </mxGeometry>
        </mxCell>
        <mxCell id="gnuGHhX0t3bhiIQXMIf--226" value="" style="endArrow=classic;html=1;rounded=0;exitX=1;exitY=0.5;exitDx=0;exitDy=0;" parent="1" source="gnuGHhX0t3bhiIQXMIf--203" edge="1">
          <mxGeometry width="50" height="50" relative="1" as="geometry">
            <mxPoint x="3180" y="400" as="sourcePoint" />
            <mxPoint x="3360" y="480" as="targetPoint" />
          </mxGeometry>
        </mxCell>
        <mxCell id="DdCmtkIL3VwHRusY-l9i-13" value="" style="edgeStyle=orthogonalEdgeStyle;rounded=0;orthogonalLoop=1;jettySize=auto;html=1;" parent="1" source="DdCmtkIL3VwHRusY-l9i-1" target="gnuGHhX0t3bhiIQXMIf--209" edge="1">
          <mxGeometry relative="1" as="geometry" />
        </mxCell>
        <mxCell id="DdCmtkIL3VwHRusY-l9i-15" value="false" style="edgeLabel;html=1;align=center;verticalAlign=middle;resizable=0;points=[];" parent="DdCmtkIL3VwHRusY-l9i-13" vertex="1" connectable="0">
          <mxGeometry x="-0.1551" y="-3" relative="1" as="geometry">
            <mxPoint as="offset" />
          </mxGeometry>
        </mxCell>
        <mxCell id="BLRBtb4IrekvnqkR0Oa8-152" value="" style="edgeStyle=orthogonalEdgeStyle;rounded=0;orthogonalLoop=1;jettySize=auto;html=1;" edge="1" parent="1" source="DdCmtkIL3VwHRusY-l9i-1" target="BLRBtb4IrekvnqkR0Oa8-151">
          <mxGeometry relative="1" as="geometry" />
        </mxCell>
        <mxCell id="BLRBtb4IrekvnqkR0Oa8-153" value="true" style="edgeLabel;html=1;align=center;verticalAlign=middle;resizable=0;points=[];" vertex="1" connectable="0" parent="BLRBtb4IrekvnqkR0Oa8-152">
          <mxGeometry x="-0.1419" relative="1" as="geometry">
            <mxPoint as="offset" />
          </mxGeometry>
        </mxCell>
        <mxCell id="DdCmtkIL3VwHRusY-l9i-1" value="opsi 3" style="rhombus;whiteSpace=wrap;html=1;strokeWidth=2;" parent="1" vertex="1">
          <mxGeometry x="2605" y="585" width="80" height="80" as="geometry" />
        </mxCell>
        <mxCell id="BLRBtb4IrekvnqkR0Oa8-6" value="" style="edgeStyle=orthogonalEdgeStyle;rounded=0;orthogonalLoop=1;jettySize=auto;html=1;" edge="1" parent="1" source="T4xbNZwdvt2q2bcjUC-Y-1">
          <mxGeometry relative="1" as="geometry">
            <mxPoint x="1190" y="2170" as="targetPoint" />
          </mxGeometry>
        </mxCell>
        <mxCell id="BLRBtb4IrekvnqkR0Oa8-7" value="true" style="edgeLabel;html=1;align=center;verticalAlign=middle;resizable=0;points=[];" vertex="1" connectable="0" parent="BLRBtb4IrekvnqkR0Oa8-6">
          <mxGeometry x="-0.1429" relative="1" as="geometry">
            <mxPoint as="offset" />
          </mxGeometry>
        </mxCell>
        <mxCell id="BLRBtb4IrekvnqkR0Oa8-8" value="" style="edgeStyle=orthogonalEdgeStyle;rounded=0;orthogonalLoop=1;jettySize=auto;html=1;" edge="1" parent="1" source="T4xbNZwdvt2q2bcjUC-Y-1" target="gnuGHhX0t3bhiIQXMIf--168">
          <mxGeometry relative="1" as="geometry" />
        </mxCell>
        <mxCell id="T4xbNZwdvt2q2bcjUC-Y-1" value="opsi 5" style="rhombus;whiteSpace=wrap;html=1;strokeWidth=2;" parent="1" vertex="1">
          <mxGeometry x="1055" y="2130" width="80" height="80" as="geometry" />
        </mxCell>
        <mxCell id="BLRBtb4IrekvnqkR0Oa8-10" value=" " style="ellipse;whiteSpace=wrap;html=1;strokeWidth=2;fillColor=#a0522d;strokeColor=#6D1F00;fontColor=#ffffff;" vertex="1" parent="1">
          <mxGeometry x="1190" y="2145" width="50" height="50" as="geometry" />
        </mxCell>
        <mxCell id="BLRBtb4IrekvnqkR0Oa8-13" value="" style="edgeStyle=orthogonalEdgeStyle;rounded=0;orthogonalLoop=1;jettySize=auto;html=1;" edge="1" parent="1" source="BLRBtb4IrekvnqkR0Oa8-11" target="BLRBtb4IrekvnqkR0Oa8-12">
          <mxGeometry relative="1" as="geometry" />
        </mxCell>
        <mxCell id="BLRBtb4IrekvnqkR0Oa8-11" value=" " style="ellipse;whiteSpace=wrap;html=1;strokeWidth=2;fillColor=#a0522d;strokeColor=#6D1F00;fontColor=#ffffff;" vertex="1" parent="1">
          <mxGeometry x="2680" y="1160" width="50" height="50" as="geometry" />
        </mxCell>
        <mxCell id="BLRBtb4IrekvnqkR0Oa8-15" value="" style="edgeStyle=orthogonalEdgeStyle;rounded=0;orthogonalLoop=1;jettySize=auto;html=1;" edge="1" parent="1" source="BLRBtb4IrekvnqkR0Oa8-12" target="BLRBtb4IrekvnqkR0Oa8-14">
          <mxGeometry relative="1" as="geometry" />
        </mxCell>
        <mxCell id="BLRBtb4IrekvnqkR0Oa8-12" value="output&lt;div&gt;&lt;div&gt;1. Urutkan berdasarkan nama&amp;nbsp;&lt;/div&gt;&lt;div&gt;2. Urutkan berdasarkan harga&amp;nbsp;&lt;/div&gt;&lt;div&gt;3. Urutkan berdasarkan stok&amp;nbsp;&amp;nbsp;&lt;/div&gt;&lt;div&gt;4. Kembali&lt;/div&gt;&lt;/div&gt;" style="shape=parallelogram;perimeter=parallelogramPerimeter;whiteSpace=wrap;html=1;fixedSize=1;strokeWidth=2;" vertex="1" parent="1">
          <mxGeometry x="2605" y="1280" width="200" height="110" as="geometry" />
        </mxCell>
        <mxCell id="BLRBtb4IrekvnqkR0Oa8-17" value="" style="edgeStyle=orthogonalEdgeStyle;rounded=0;orthogonalLoop=1;jettySize=auto;html=1;" edge="1" parent="1" source="BLRBtb4IrekvnqkR0Oa8-14" target="BLRBtb4IrekvnqkR0Oa8-16">
          <mxGeometry relative="1" as="geometry" />
        </mxCell>
        <mxCell id="BLRBtb4IrekvnqkR0Oa8-22" value="true" style="edgeLabel;html=1;align=center;verticalAlign=middle;resizable=0;points=[];" vertex="1" connectable="0" parent="BLRBtb4IrekvnqkR0Oa8-17">
          <mxGeometry x="-0.0778" y="2" relative="1" as="geometry">
            <mxPoint as="offset" />
          </mxGeometry>
        </mxCell>
        <mxCell id="BLRBtb4IrekvnqkR0Oa8-24" value="" style="edgeStyle=orthogonalEdgeStyle;rounded=0;orthogonalLoop=1;jettySize=auto;html=1;" edge="1" parent="1" source="BLRBtb4IrekvnqkR0Oa8-14" target="BLRBtb4IrekvnqkR0Oa8-23">
          <mxGeometry relative="1" as="geometry" />
        </mxCell>
        <mxCell id="BLRBtb4IrekvnqkR0Oa8-25" value="false" style="edgeLabel;html=1;align=center;verticalAlign=middle;resizable=0;points=[];" vertex="1" connectable="0" parent="BLRBtb4IrekvnqkR0Oa8-24">
          <mxGeometry x="-0.0333" y="2" relative="1" as="geometry">
            <mxPoint as="offset" />
          </mxGeometry>
        </mxCell>
        <mxCell id="BLRBtb4IrekvnqkR0Oa8-14" value="opsi 1" style="rhombus;whiteSpace=wrap;html=1;strokeWidth=2;" vertex="1" parent="1">
          <mxGeometry x="2665" y="1485" width="80" height="80" as="geometry" />
        </mxCell>
        <mxCell id="BLRBtb4IrekvnqkR0Oa8-19" value="" style="edgeStyle=orthogonalEdgeStyle;rounded=0;orthogonalLoop=1;jettySize=auto;html=1;" edge="1" parent="1" source="BLRBtb4IrekvnqkR0Oa8-16" target="BLRBtb4IrekvnqkR0Oa8-18">
          <mxGeometry relative="1" as="geometry" />
        </mxCell>
        <mxCell id="BLRBtb4IrekvnqkR0Oa8-16" value="data_sandal" style="strokeWidth=2;html=1;shape=mxgraph.flowchart.database;whiteSpace=wrap;" vertex="1" parent="1">
          <mxGeometry x="2805" y="1490" width="70" height="70" as="geometry" />
        </mxCell>
        <mxCell id="BLRBtb4IrekvnqkR0Oa8-21" value="" style="edgeStyle=orthogonalEdgeStyle;rounded=0;orthogonalLoop=1;jettySize=auto;html=1;" edge="1" parent="1" source="BLRBtb4IrekvnqkR0Oa8-18" target="BLRBtb4IrekvnqkR0Oa8-20">
          <mxGeometry relative="1" as="geometry" />
        </mxCell>
        <mxCell id="BLRBtb4IrekvnqkR0Oa8-18" value="urut_namaSendal=&lt;div&gt;data_sandal dari abjad Z ke A&lt;/div&gt;" style="whiteSpace=wrap;html=1;strokeWidth=2;" vertex="1" parent="1">
          <mxGeometry x="2930" y="1495" width="120" height="60" as="geometry" />
        </mxCell>
        <mxCell id="BLRBtb4IrekvnqkR0Oa8-20" value="output&lt;div&gt;urut_namaSendal&lt;/div&gt;" style="shape=parallelogram;perimeter=parallelogramPerimeter;whiteSpace=wrap;html=1;fixedSize=1;strokeWidth=2;" vertex="1" parent="1">
          <mxGeometry x="3115" y="1495" width="120" height="60" as="geometry" />
        </mxCell>
        <mxCell id="BLRBtb4IrekvnqkR0Oa8-27" value="" style="edgeStyle=orthogonalEdgeStyle;rounded=0;orthogonalLoop=1;jettySize=auto;html=1;" edge="1" parent="1" source="BLRBtb4IrekvnqkR0Oa8-23" target="BLRBtb4IrekvnqkR0Oa8-26">
          <mxGeometry relative="1" as="geometry" />
        </mxCell>
        <mxCell id="BLRBtb4IrekvnqkR0Oa8-28" value="true" style="edgeLabel;html=1;align=center;verticalAlign=middle;resizable=0;points=[];" vertex="1" connectable="0" parent="BLRBtb4IrekvnqkR0Oa8-27">
          <mxGeometry x="-0.1667" y="1" relative="1" as="geometry">
            <mxPoint as="offset" />
          </mxGeometry>
        </mxCell>
        <mxCell id="BLRBtb4IrekvnqkR0Oa8-34" value="" style="edgeStyle=orthogonalEdgeStyle;rounded=0;orthogonalLoop=1;jettySize=auto;html=1;" edge="1" parent="1" source="BLRBtb4IrekvnqkR0Oa8-23" target="BLRBtb4IrekvnqkR0Oa8-33">
          <mxGeometry relative="1" as="geometry" />
        </mxCell>
        <mxCell id="BLRBtb4IrekvnqkR0Oa8-44" value="false" style="edgeLabel;html=1;align=center;verticalAlign=middle;resizable=0;points=[];" vertex="1" connectable="0" parent="BLRBtb4IrekvnqkR0Oa8-34">
          <mxGeometry x="-0.1722" y="3" relative="1" as="geometry">
            <mxPoint as="offset" />
          </mxGeometry>
        </mxCell>
        <mxCell id="BLRBtb4IrekvnqkR0Oa8-23" value="opsi 2" style="rhombus;whiteSpace=wrap;html=1;strokeWidth=2;" vertex="1" parent="1">
          <mxGeometry x="2665" y="1645" width="80" height="80" as="geometry" />
        </mxCell>
        <mxCell id="BLRBtb4IrekvnqkR0Oa8-30" value="" style="edgeStyle=orthogonalEdgeStyle;rounded=0;orthogonalLoop=1;jettySize=auto;html=1;" edge="1" parent="1" source="BLRBtb4IrekvnqkR0Oa8-26" target="BLRBtb4IrekvnqkR0Oa8-29">
          <mxGeometry relative="1" as="geometry" />
        </mxCell>
        <mxCell id="BLRBtb4IrekvnqkR0Oa8-26" value="data_sandal" style="strokeWidth=2;html=1;shape=mxgraph.flowchart.database;whiteSpace=wrap;" vertex="1" parent="1">
          <mxGeometry x="2805" y="1650" width="70" height="70" as="geometry" />
        </mxCell>
        <mxCell id="BLRBtb4IrekvnqkR0Oa8-32" value="" style="edgeStyle=orthogonalEdgeStyle;rounded=0;orthogonalLoop=1;jettySize=auto;html=1;" edge="1" parent="1" source="BLRBtb4IrekvnqkR0Oa8-29" target="BLRBtb4IrekvnqkR0Oa8-31">
          <mxGeometry relative="1" as="geometry" />
        </mxCell>
        <mxCell id="BLRBtb4IrekvnqkR0Oa8-29" value="urut_hargaSendal=&lt;div&gt;data_sandal dari harga min -&amp;gt; maks&lt;/div&gt;" style="whiteSpace=wrap;html=1;strokeWidth=2;" vertex="1" parent="1">
          <mxGeometry x="2930" y="1655" width="120" height="60" as="geometry" />
        </mxCell>
        <mxCell id="BLRBtb4IrekvnqkR0Oa8-31" value="output&lt;div&gt;urut_hargaSendal&lt;/div&gt;" style="shape=parallelogram;perimeter=parallelogramPerimeter;whiteSpace=wrap;html=1;fixedSize=1;strokeWidth=2;" vertex="1" parent="1">
          <mxGeometry x="3105" y="1655" width="120" height="60" as="geometry" />
        </mxCell>
        <mxCell id="BLRBtb4IrekvnqkR0Oa8-36" value="" style="edgeStyle=orthogonalEdgeStyle;rounded=0;orthogonalLoop=1;jettySize=auto;html=1;" edge="1" parent="1" source="BLRBtb4IrekvnqkR0Oa8-33" target="BLRBtb4IrekvnqkR0Oa8-35">
          <mxGeometry relative="1" as="geometry" />
        </mxCell>
        <mxCell id="BLRBtb4IrekvnqkR0Oa8-37" value="true" style="edgeLabel;html=1;align=center;verticalAlign=middle;resizable=0;points=[];" vertex="1" connectable="0" parent="BLRBtb4IrekvnqkR0Oa8-36">
          <mxGeometry x="-0.2143" y="-1" relative="1" as="geometry">
            <mxPoint as="offset" />
          </mxGeometry>
        </mxCell>
        <mxCell id="BLRBtb4IrekvnqkR0Oa8-43" value="" style="edgeStyle=orthogonalEdgeStyle;rounded=0;orthogonalLoop=1;jettySize=auto;html=1;" edge="1" parent="1" source="BLRBtb4IrekvnqkR0Oa8-33" target="BLRBtb4IrekvnqkR0Oa8-42">
          <mxGeometry relative="1" as="geometry" />
        </mxCell>
        <mxCell id="BLRBtb4IrekvnqkR0Oa8-45" value="false" style="edgeLabel;html=1;align=center;verticalAlign=middle;resizable=0;points=[];" vertex="1" connectable="0" parent="BLRBtb4IrekvnqkR0Oa8-43">
          <mxGeometry x="-0.1917" relative="1" as="geometry">
            <mxPoint as="offset" />
          </mxGeometry>
        </mxCell>
        <mxCell id="BLRBtb4IrekvnqkR0Oa8-33" value="opsi 3" style="rhombus;whiteSpace=wrap;html=1;strokeWidth=2;" vertex="1" parent="1">
          <mxGeometry x="2665" y="1785" width="80" height="80" as="geometry" />
        </mxCell>
        <mxCell id="BLRBtb4IrekvnqkR0Oa8-39" value="" style="edgeStyle=orthogonalEdgeStyle;rounded=0;orthogonalLoop=1;jettySize=auto;html=1;" edge="1" parent="1" source="BLRBtb4IrekvnqkR0Oa8-35" target="BLRBtb4IrekvnqkR0Oa8-38">
          <mxGeometry relative="1" as="geometry" />
        </mxCell>
        <mxCell id="BLRBtb4IrekvnqkR0Oa8-35" value="data_sandal" style="strokeWidth=2;html=1;shape=mxgraph.flowchart.database;whiteSpace=wrap;" vertex="1" parent="1">
          <mxGeometry x="2805" y="1790" width="70" height="70" as="geometry" />
        </mxCell>
        <mxCell id="BLRBtb4IrekvnqkR0Oa8-41" value="" style="edgeStyle=orthogonalEdgeStyle;rounded=0;orthogonalLoop=1;jettySize=auto;html=1;" edge="1" parent="1" source="BLRBtb4IrekvnqkR0Oa8-38" target="BLRBtb4IrekvnqkR0Oa8-40">
          <mxGeometry relative="1" as="geometry" />
        </mxCell>
        <mxCell id="BLRBtb4IrekvnqkR0Oa8-38" value="urut_stokSendal=&lt;div&gt;data_sandal dari stok maks -&amp;gt; min&lt;/div&gt;" style="whiteSpace=wrap;html=1;strokeWidth=2;" vertex="1" parent="1">
          <mxGeometry x="2930" y="1795" width="120" height="60" as="geometry" />
        </mxCell>
        <mxCell id="BLRBtb4IrekvnqkR0Oa8-40" value="output&lt;div&gt;urut_stokSendal&lt;/div&gt;" style="shape=parallelogram;perimeter=parallelogramPerimeter;whiteSpace=wrap;html=1;fixedSize=1;strokeWidth=2;" vertex="1" parent="1">
          <mxGeometry x="3095" y="1795" width="120" height="60" as="geometry" />
        </mxCell>
        <mxCell id="BLRBtb4IrekvnqkR0Oa8-47" value="" style="edgeStyle=orthogonalEdgeStyle;rounded=0;orthogonalLoop=1;jettySize=auto;html=1;" edge="1" parent="1" source="BLRBtb4IrekvnqkR0Oa8-42" target="BLRBtb4IrekvnqkR0Oa8-46">
          <mxGeometry relative="1" as="geometry" />
        </mxCell>
        <mxCell id="BLRBtb4IrekvnqkR0Oa8-48" value="true" style="edgeLabel;html=1;align=center;verticalAlign=middle;resizable=0;points=[];" vertex="1" connectable="0" parent="BLRBtb4IrekvnqkR0Oa8-47">
          <mxGeometry x="-0.1216" y="1" relative="1" as="geometry">
            <mxPoint as="offset" />
          </mxGeometry>
        </mxCell>
        <mxCell id="BLRBtb4IrekvnqkR0Oa8-52" value="" style="edgeStyle=orthogonalEdgeStyle;rounded=0;orthogonalLoop=1;jettySize=auto;html=1;" edge="1" parent="1" source="BLRBtb4IrekvnqkR0Oa8-42" target="BLRBtb4IrekvnqkR0Oa8-51">
          <mxGeometry relative="1" as="geometry" />
        </mxCell>
        <mxCell id="BLRBtb4IrekvnqkR0Oa8-53" value="false" style="edgeLabel;html=1;align=center;verticalAlign=middle;resizable=0;points=[];" vertex="1" connectable="0" parent="BLRBtb4IrekvnqkR0Oa8-52">
          <mxGeometry x="-0.1701" y="-1" relative="1" as="geometry">
            <mxPoint as="offset" />
          </mxGeometry>
        </mxCell>
        <mxCell id="BLRBtb4IrekvnqkR0Oa8-42" value="opsi 4" style="rhombus;whiteSpace=wrap;html=1;strokeWidth=2;" vertex="1" parent="1">
          <mxGeometry x="2665" y="1945" width="80" height="80" as="geometry" />
        </mxCell>
        <mxCell id="BLRBtb4IrekvnqkR0Oa8-46" value="" style="ellipse;whiteSpace=wrap;html=1;strokeWidth=2;fillColor=#647687;strokeColor=#314354;fontColor=#ffffff;" vertex="1" parent="1">
          <mxGeometry x="2805" y="1960" width="50" height="50" as="geometry" />
        </mxCell>
        <mxCell id="BLRBtb4IrekvnqkR0Oa8-51" value="output&lt;div&gt;pilihan tidak valid&lt;/div&gt;" style="shape=parallelogram;perimeter=parallelogramPerimeter;whiteSpace=wrap;html=1;fixedSize=1;strokeWidth=2;" vertex="1" parent="1">
          <mxGeometry x="2645" y="2080" width="120" height="60" as="geometry" />
        </mxCell>
        <mxCell id="BLRBtb4IrekvnqkR0Oa8-54" value="" style="endArrow=classic;html=1;rounded=0;exitX=1;exitY=0.5;exitDx=0;exitDy=0;entryX=1;entryY=0.5;entryDx=0;entryDy=0;" edge="1" parent="1" source="BLRBtb4IrekvnqkR0Oa8-51" target="BLRBtb4IrekvnqkR0Oa8-12">
          <mxGeometry width="50" height="50" relative="1" as="geometry">
            <mxPoint x="2950" y="2090" as="sourcePoint" />
            <mxPoint x="2810" y="1330" as="targetPoint" />
            <Array as="points">
              <mxPoint x="3310" y="2110" />
              <mxPoint x="3310" y="1330" />
            </Array>
          </mxGeometry>
        </mxCell>
        <mxCell id="BLRBtb4IrekvnqkR0Oa8-55" value="" style="endArrow=classic;html=1;rounded=0;exitX=1;exitY=0.5;exitDx=0;exitDy=0;" edge="1" parent="1" source="BLRBtb4IrekvnqkR0Oa8-20">
          <mxGeometry width="50" height="50" relative="1" as="geometry">
            <mxPoint x="2870" y="1680" as="sourcePoint" />
            <mxPoint x="3310" y="1525" as="targetPoint" />
          </mxGeometry>
        </mxCell>
        <mxCell id="BLRBtb4IrekvnqkR0Oa8-56" value="" style="endArrow=classic;html=1;rounded=0;exitX=1;exitY=0.5;exitDx=0;exitDy=0;" edge="1" parent="1" source="BLRBtb4IrekvnqkR0Oa8-40">
          <mxGeometry width="50" height="50" relative="1" as="geometry">
            <mxPoint x="2980" y="1660" as="sourcePoint" />
            <mxPoint x="3310" y="1825" as="targetPoint" />
          </mxGeometry>
        </mxCell>
        <mxCell id="BLRBtb4IrekvnqkR0Oa8-57" value="" style="endArrow=classic;html=1;rounded=0;exitX=1;exitY=0.5;exitDx=0;exitDy=0;" edge="1" parent="1" source="BLRBtb4IrekvnqkR0Oa8-31">
          <mxGeometry width="50" height="50" relative="1" as="geometry">
            <mxPoint x="2980" y="1660" as="sourcePoint" />
            <mxPoint x="3310" y="1685" as="targetPoint" />
          </mxGeometry>
        </mxCell>
        <mxCell id="BLRBtb4IrekvnqkR0Oa8-58" value="" style="endArrow=classic;html=1;rounded=0;exitX=1;exitY=0.5;exitDx=0;exitDy=0;" edge="1" parent="1" source="BLRBtb4IrekvnqkR0Oa8-46">
          <mxGeometry width="50" height="50" relative="1" as="geometry">
            <mxPoint x="2970" y="2080" as="sourcePoint" />
            <mxPoint x="3310" y="1985" as="targetPoint" />
          </mxGeometry>
        </mxCell>
        <mxCell id="BLRBtb4IrekvnqkR0Oa8-105" value="" style="edgeStyle=orthogonalEdgeStyle;rounded=0;orthogonalLoop=1;jettySize=auto;html=1;" edge="1" parent="1" source="BLRBtb4IrekvnqkR0Oa8-106" target="BLRBtb4IrekvnqkR0Oa8-108">
          <mxGeometry relative="1" as="geometry" />
        </mxCell>
        <mxCell id="BLRBtb4IrekvnqkR0Oa8-106" value=" " style="ellipse;whiteSpace=wrap;html=1;strokeWidth=2;fillColor=#ffe6cc;strokeColor=#d79b00;" vertex="1" parent="1">
          <mxGeometry x="3535" y="40" width="50" height="50" as="geometry" />
        </mxCell>
        <mxCell id="BLRBtb4IrekvnqkR0Oa8-107" value="" style="edgeStyle=orthogonalEdgeStyle;rounded=0;orthogonalLoop=1;jettySize=auto;html=1;" edge="1" parent="1" source="BLRBtb4IrekvnqkR0Oa8-108" target="BLRBtb4IrekvnqkR0Oa8-113">
          <mxGeometry relative="1" as="geometry" />
        </mxCell>
        <mxCell id="BLRBtb4IrekvnqkR0Oa8-108" value="output&lt;div&gt;&lt;div&gt;1. Urutkan berdasarkan nama&amp;nbsp;&lt;/div&gt;&lt;div&gt;2. Urutkan berdasarkan harga&amp;nbsp;&lt;/div&gt;&lt;div&gt;3. Urutkan berdasarkan stok&amp;nbsp;&amp;nbsp;&lt;/div&gt;&lt;div&gt;4. Kembali&lt;/div&gt;&lt;/div&gt;" style="shape=parallelogram;perimeter=parallelogramPerimeter;whiteSpace=wrap;html=1;fixedSize=1;strokeWidth=2;" vertex="1" parent="1">
          <mxGeometry x="3460" y="160" width="200" height="110" as="geometry" />
        </mxCell>
        <mxCell id="BLRBtb4IrekvnqkR0Oa8-109" value="" style="edgeStyle=orthogonalEdgeStyle;rounded=0;orthogonalLoop=1;jettySize=auto;html=1;" edge="1" parent="1" source="BLRBtb4IrekvnqkR0Oa8-113" target="BLRBtb4IrekvnqkR0Oa8-115">
          <mxGeometry relative="1" as="geometry" />
        </mxCell>
        <mxCell id="BLRBtb4IrekvnqkR0Oa8-110" value="true" style="edgeLabel;html=1;align=center;verticalAlign=middle;resizable=0;points=[];" vertex="1" connectable="0" parent="BLRBtb4IrekvnqkR0Oa8-109">
          <mxGeometry x="-0.0778" y="2" relative="1" as="geometry">
            <mxPoint as="offset" />
          </mxGeometry>
        </mxCell>
        <mxCell id="BLRBtb4IrekvnqkR0Oa8-111" value="" style="edgeStyle=orthogonalEdgeStyle;rounded=0;orthogonalLoop=1;jettySize=auto;html=1;" edge="1" parent="1" source="BLRBtb4IrekvnqkR0Oa8-113" target="BLRBtb4IrekvnqkR0Oa8-123">
          <mxGeometry relative="1" as="geometry" />
        </mxCell>
        <mxCell id="BLRBtb4IrekvnqkR0Oa8-112" value="false" style="edgeLabel;html=1;align=center;verticalAlign=middle;resizable=0;points=[];" vertex="1" connectable="0" parent="BLRBtb4IrekvnqkR0Oa8-111">
          <mxGeometry x="-0.0333" y="2" relative="1" as="geometry">
            <mxPoint as="offset" />
          </mxGeometry>
        </mxCell>
        <mxCell id="BLRBtb4IrekvnqkR0Oa8-113" value="opsi 1" style="rhombus;whiteSpace=wrap;html=1;strokeWidth=2;" vertex="1" parent="1">
          <mxGeometry x="3520" y="365" width="80" height="80" as="geometry" />
        </mxCell>
        <mxCell id="BLRBtb4IrekvnqkR0Oa8-114" value="" style="edgeStyle=orthogonalEdgeStyle;rounded=0;orthogonalLoop=1;jettySize=auto;html=1;" edge="1" parent="1" source="BLRBtb4IrekvnqkR0Oa8-115" target="BLRBtb4IrekvnqkR0Oa8-117">
          <mxGeometry relative="1" as="geometry" />
        </mxCell>
        <mxCell id="BLRBtb4IrekvnqkR0Oa8-115" value="data_sandal" style="strokeWidth=2;html=1;shape=mxgraph.flowchart.database;whiteSpace=wrap;" vertex="1" parent="1">
          <mxGeometry x="3660" y="370" width="70" height="70" as="geometry" />
        </mxCell>
        <mxCell id="BLRBtb4IrekvnqkR0Oa8-116" value="" style="edgeStyle=orthogonalEdgeStyle;rounded=0;orthogonalLoop=1;jettySize=auto;html=1;" edge="1" parent="1" source="BLRBtb4IrekvnqkR0Oa8-117" target="BLRBtb4IrekvnqkR0Oa8-118">
          <mxGeometry relative="1" as="geometry" />
        </mxCell>
        <mxCell id="BLRBtb4IrekvnqkR0Oa8-117" value="urut_namaSendal=&lt;div&gt;data_sandal dari abjad Z ke A&lt;/div&gt;" style="whiteSpace=wrap;html=1;strokeWidth=2;" vertex="1" parent="1">
          <mxGeometry x="3785" y="375" width="120" height="60" as="geometry" />
        </mxCell>
        <mxCell id="BLRBtb4IrekvnqkR0Oa8-118" value="output&lt;div&gt;urut_namaSendal&lt;/div&gt;" style="shape=parallelogram;perimeter=parallelogramPerimeter;whiteSpace=wrap;html=1;fixedSize=1;strokeWidth=2;" vertex="1" parent="1">
          <mxGeometry x="3970" y="375" width="120" height="60" as="geometry" />
        </mxCell>
        <mxCell id="BLRBtb4IrekvnqkR0Oa8-119" value="" style="edgeStyle=orthogonalEdgeStyle;rounded=0;orthogonalLoop=1;jettySize=auto;html=1;" edge="1" parent="1" source="BLRBtb4IrekvnqkR0Oa8-123" target="BLRBtb4IrekvnqkR0Oa8-125">
          <mxGeometry relative="1" as="geometry" />
        </mxCell>
        <mxCell id="BLRBtb4IrekvnqkR0Oa8-120" value="true" style="edgeLabel;html=1;align=center;verticalAlign=middle;resizable=0;points=[];" vertex="1" connectable="0" parent="BLRBtb4IrekvnqkR0Oa8-119">
          <mxGeometry x="-0.1667" y="1" relative="1" as="geometry">
            <mxPoint as="offset" />
          </mxGeometry>
        </mxCell>
        <mxCell id="BLRBtb4IrekvnqkR0Oa8-121" value="" style="edgeStyle=orthogonalEdgeStyle;rounded=0;orthogonalLoop=1;jettySize=auto;html=1;" edge="1" parent="1" source="BLRBtb4IrekvnqkR0Oa8-123" target="BLRBtb4IrekvnqkR0Oa8-133">
          <mxGeometry relative="1" as="geometry" />
        </mxCell>
        <mxCell id="BLRBtb4IrekvnqkR0Oa8-122" value="false" style="edgeLabel;html=1;align=center;verticalAlign=middle;resizable=0;points=[];" vertex="1" connectable="0" parent="BLRBtb4IrekvnqkR0Oa8-121">
          <mxGeometry x="-0.1722" y="3" relative="1" as="geometry">
            <mxPoint as="offset" />
          </mxGeometry>
        </mxCell>
        <mxCell id="BLRBtb4IrekvnqkR0Oa8-123" value="opsi 2" style="rhombus;whiteSpace=wrap;html=1;strokeWidth=2;" vertex="1" parent="1">
          <mxGeometry x="3520" y="525" width="80" height="80" as="geometry" />
        </mxCell>
        <mxCell id="BLRBtb4IrekvnqkR0Oa8-124" value="" style="edgeStyle=orthogonalEdgeStyle;rounded=0;orthogonalLoop=1;jettySize=auto;html=1;" edge="1" parent="1" source="BLRBtb4IrekvnqkR0Oa8-125" target="BLRBtb4IrekvnqkR0Oa8-127">
          <mxGeometry relative="1" as="geometry" />
        </mxCell>
        <mxCell id="BLRBtb4IrekvnqkR0Oa8-125" value="data_sandal" style="strokeWidth=2;html=1;shape=mxgraph.flowchart.database;whiteSpace=wrap;" vertex="1" parent="1">
          <mxGeometry x="3660" y="530" width="70" height="70" as="geometry" />
        </mxCell>
        <mxCell id="BLRBtb4IrekvnqkR0Oa8-126" value="" style="edgeStyle=orthogonalEdgeStyle;rounded=0;orthogonalLoop=1;jettySize=auto;html=1;" edge="1" parent="1" source="BLRBtb4IrekvnqkR0Oa8-127" target="BLRBtb4IrekvnqkR0Oa8-128">
          <mxGeometry relative="1" as="geometry" />
        </mxCell>
        <mxCell id="BLRBtb4IrekvnqkR0Oa8-127" value="urut_hargaSendal=&lt;div&gt;data_sandal dari harga min -&amp;gt; maks&lt;/div&gt;" style="whiteSpace=wrap;html=1;strokeWidth=2;" vertex="1" parent="1">
          <mxGeometry x="3785" y="535" width="120" height="60" as="geometry" />
        </mxCell>
        <mxCell id="BLRBtb4IrekvnqkR0Oa8-128" value="output&lt;div&gt;urut_hargaSendal&lt;/div&gt;" style="shape=parallelogram;perimeter=parallelogramPerimeter;whiteSpace=wrap;html=1;fixedSize=1;strokeWidth=2;" vertex="1" parent="1">
          <mxGeometry x="3960" y="535" width="120" height="60" as="geometry" />
        </mxCell>
        <mxCell id="BLRBtb4IrekvnqkR0Oa8-129" value="" style="edgeStyle=orthogonalEdgeStyle;rounded=0;orthogonalLoop=1;jettySize=auto;html=1;" edge="1" parent="1" source="BLRBtb4IrekvnqkR0Oa8-133" target="BLRBtb4IrekvnqkR0Oa8-135">
          <mxGeometry relative="1" as="geometry" />
        </mxCell>
        <mxCell id="BLRBtb4IrekvnqkR0Oa8-130" value="true" style="edgeLabel;html=1;align=center;verticalAlign=middle;resizable=0;points=[];" vertex="1" connectable="0" parent="BLRBtb4IrekvnqkR0Oa8-129">
          <mxGeometry x="-0.2143" y="-1" relative="1" as="geometry">
            <mxPoint as="offset" />
          </mxGeometry>
        </mxCell>
        <mxCell id="BLRBtb4IrekvnqkR0Oa8-131" value="" style="edgeStyle=orthogonalEdgeStyle;rounded=0;orthogonalLoop=1;jettySize=auto;html=1;" edge="1" parent="1" source="BLRBtb4IrekvnqkR0Oa8-133" target="BLRBtb4IrekvnqkR0Oa8-143">
          <mxGeometry relative="1" as="geometry" />
        </mxCell>
        <mxCell id="BLRBtb4IrekvnqkR0Oa8-132" value="false" style="edgeLabel;html=1;align=center;verticalAlign=middle;resizable=0;points=[];" vertex="1" connectable="0" parent="BLRBtb4IrekvnqkR0Oa8-131">
          <mxGeometry x="-0.1917" relative="1" as="geometry">
            <mxPoint as="offset" />
          </mxGeometry>
        </mxCell>
        <mxCell id="BLRBtb4IrekvnqkR0Oa8-133" value="opsi 3" style="rhombus;whiteSpace=wrap;html=1;strokeWidth=2;" vertex="1" parent="1">
          <mxGeometry x="3520" y="665" width="80" height="80" as="geometry" />
        </mxCell>
        <mxCell id="BLRBtb4IrekvnqkR0Oa8-134" value="" style="edgeStyle=orthogonalEdgeStyle;rounded=0;orthogonalLoop=1;jettySize=auto;html=1;" edge="1" parent="1" source="BLRBtb4IrekvnqkR0Oa8-135" target="BLRBtb4IrekvnqkR0Oa8-137">
          <mxGeometry relative="1" as="geometry" />
        </mxCell>
        <mxCell id="BLRBtb4IrekvnqkR0Oa8-135" value="data_sandal" style="strokeWidth=2;html=1;shape=mxgraph.flowchart.database;whiteSpace=wrap;" vertex="1" parent="1">
          <mxGeometry x="3660" y="670" width="70" height="70" as="geometry" />
        </mxCell>
        <mxCell id="BLRBtb4IrekvnqkR0Oa8-136" value="" style="edgeStyle=orthogonalEdgeStyle;rounded=0;orthogonalLoop=1;jettySize=auto;html=1;" edge="1" parent="1" source="BLRBtb4IrekvnqkR0Oa8-137" target="BLRBtb4IrekvnqkR0Oa8-138">
          <mxGeometry relative="1" as="geometry" />
        </mxCell>
        <mxCell id="BLRBtb4IrekvnqkR0Oa8-137" value="urut_stokSendal=&lt;div&gt;data_sandal dari stok maks -&amp;gt; min&lt;/div&gt;" style="whiteSpace=wrap;html=1;strokeWidth=2;" vertex="1" parent="1">
          <mxGeometry x="3785" y="675" width="120" height="60" as="geometry" />
        </mxCell>
        <mxCell id="BLRBtb4IrekvnqkR0Oa8-138" value="output&lt;div&gt;urut_stokSendal&lt;/div&gt;" style="shape=parallelogram;perimeter=parallelogramPerimeter;whiteSpace=wrap;html=1;fixedSize=1;strokeWidth=2;" vertex="1" parent="1">
          <mxGeometry x="3950" y="675" width="120" height="60" as="geometry" />
        </mxCell>
        <mxCell id="BLRBtb4IrekvnqkR0Oa8-139" value="" style="edgeStyle=orthogonalEdgeStyle;rounded=0;orthogonalLoop=1;jettySize=auto;html=1;" edge="1" parent="1" source="BLRBtb4IrekvnqkR0Oa8-143" target="BLRBtb4IrekvnqkR0Oa8-144">
          <mxGeometry relative="1" as="geometry" />
        </mxCell>
        <mxCell id="BLRBtb4IrekvnqkR0Oa8-140" value="true" style="edgeLabel;html=1;align=center;verticalAlign=middle;resizable=0;points=[];" vertex="1" connectable="0" parent="BLRBtb4IrekvnqkR0Oa8-139">
          <mxGeometry x="-0.1216" y="1" relative="1" as="geometry">
            <mxPoint as="offset" />
          </mxGeometry>
        </mxCell>
        <mxCell id="BLRBtb4IrekvnqkR0Oa8-141" value="" style="edgeStyle=orthogonalEdgeStyle;rounded=0;orthogonalLoop=1;jettySize=auto;html=1;" edge="1" parent="1" source="BLRBtb4IrekvnqkR0Oa8-143" target="BLRBtb4IrekvnqkR0Oa8-145">
          <mxGeometry relative="1" as="geometry" />
        </mxCell>
        <mxCell id="BLRBtb4IrekvnqkR0Oa8-142" value="false" style="edgeLabel;html=1;align=center;verticalAlign=middle;resizable=0;points=[];" vertex="1" connectable="0" parent="BLRBtb4IrekvnqkR0Oa8-141">
          <mxGeometry x="-0.1701" y="-1" relative="1" as="geometry">
            <mxPoint as="offset" />
          </mxGeometry>
        </mxCell>
        <mxCell id="BLRBtb4IrekvnqkR0Oa8-143" value="opsi 4" style="rhombus;whiteSpace=wrap;html=1;strokeWidth=2;" vertex="1" parent="1">
          <mxGeometry x="3520" y="825" width="80" height="80" as="geometry" />
        </mxCell>
        <mxCell id="BLRBtb4IrekvnqkR0Oa8-144" value=" " style="ellipse;whiteSpace=wrap;html=1;strokeWidth=2;fillColor=#76608a;strokeColor=#432D57;fontColor=#ffffff;" vertex="1" parent="1">
          <mxGeometry x="3660" y="840" width="50" height="50" as="geometry" />
        </mxCell>
        <mxCell id="BLRBtb4IrekvnqkR0Oa8-145" value="output&lt;div&gt;pilihan tidak valid&lt;/div&gt;" style="shape=parallelogram;perimeter=parallelogramPerimeter;whiteSpace=wrap;html=1;fixedSize=1;strokeWidth=2;" vertex="1" parent="1">
          <mxGeometry x="3500" y="960" width="120" height="60" as="geometry" />
        </mxCell>
        <mxCell id="BLRBtb4IrekvnqkR0Oa8-146" value="" style="endArrow=classic;html=1;rounded=0;exitX=1;exitY=0.5;exitDx=0;exitDy=0;entryX=1;entryY=0.5;entryDx=0;entryDy=0;" edge="1" parent="1" source="BLRBtb4IrekvnqkR0Oa8-145" target="BLRBtb4IrekvnqkR0Oa8-108">
          <mxGeometry width="50" height="50" relative="1" as="geometry">
            <mxPoint x="3805" y="970" as="sourcePoint" />
            <mxPoint x="3665" y="210" as="targetPoint" />
            <Array as="points">
              <mxPoint x="4165" y="990" />
              <mxPoint x="4165" y="210" />
            </Array>
          </mxGeometry>
        </mxCell>
        <mxCell id="BLRBtb4IrekvnqkR0Oa8-147" value="" style="endArrow=classic;html=1;rounded=0;exitX=1;exitY=0.5;exitDx=0;exitDy=0;" edge="1" parent="1" source="BLRBtb4IrekvnqkR0Oa8-118">
          <mxGeometry width="50" height="50" relative="1" as="geometry">
            <mxPoint x="3725" y="560" as="sourcePoint" />
            <mxPoint x="4165" y="405" as="targetPoint" />
          </mxGeometry>
        </mxCell>
        <mxCell id="BLRBtb4IrekvnqkR0Oa8-148" value="" style="endArrow=classic;html=1;rounded=0;exitX=1;exitY=0.5;exitDx=0;exitDy=0;" edge="1" parent="1" source="BLRBtb4IrekvnqkR0Oa8-138">
          <mxGeometry width="50" height="50" relative="1" as="geometry">
            <mxPoint x="3835" y="540" as="sourcePoint" />
            <mxPoint x="4165" y="705" as="targetPoint" />
          </mxGeometry>
        </mxCell>
        <mxCell id="BLRBtb4IrekvnqkR0Oa8-149" value="" style="endArrow=classic;html=1;rounded=0;exitX=1;exitY=0.5;exitDx=0;exitDy=0;" edge="1" parent="1" source="BLRBtb4IrekvnqkR0Oa8-128">
          <mxGeometry width="50" height="50" relative="1" as="geometry">
            <mxPoint x="3835" y="540" as="sourcePoint" />
            <mxPoint x="4165" y="565" as="targetPoint" />
          </mxGeometry>
        </mxCell>
        <mxCell id="BLRBtb4IrekvnqkR0Oa8-150" value="" style="endArrow=classic;html=1;rounded=0;exitX=1;exitY=0.5;exitDx=0;exitDy=0;" edge="1" parent="1" source="BLRBtb4IrekvnqkR0Oa8-144">
          <mxGeometry width="50" height="50" relative="1" as="geometry">
            <mxPoint x="3825" y="960" as="sourcePoint" />
            <mxPoint x="4165" y="865" as="targetPoint" />
          </mxGeometry>
        </mxCell>
        <mxCell id="BLRBtb4IrekvnqkR0Oa8-151" value="" style="ellipse;whiteSpace=wrap;html=1;strokeWidth=2;fillColor=#ffe6cc;strokeColor=#d79b00;" vertex="1" parent="1">
          <mxGeometry x="2745" y="600" width="50" height="50" as="geometry" />
        </mxCell>
        <mxCell id="BLRBtb4IrekvnqkR0Oa8-154" value="" style="endArrow=classic;html=1;rounded=0;exitX=1;exitY=0.5;exitDx=0;exitDy=0;" edge="1" parent="1" source="BLRBtb4IrekvnqkR0Oa8-151">
          <mxGeometry width="50" height="50" relative="1" as="geometry">
            <mxPoint x="3030" y="720" as="sourcePoint" />
            <mxPoint x="3360" y="625" as="targetPoint" />
          </mxGeometry>
        </mxCell>
      </root>
    </mxGraphModel>
  </diagram>
  <diagram id="tczo38LNL5Db-ba-txMx" name="Menu utama">
    <mxGraphModel dx="2514" dy="1337" grid="1" gridSize="10" guides="1" tooltips="1" connect="1" arrows="1" fold="1" page="1" pageScale="1" pageWidth="850" pageHeight="1100" math="0" shadow="0">
      <root>
        <mxCell id="0" />
        <mxCell id="1" parent="0" />
        <mxCell id="qSPrlSt5gJKBG64hUzID-1" value="" style="edgeStyle=orthogonalEdgeStyle;rounded=0;orthogonalLoop=1;jettySize=auto;html=1;" parent="1" source="qSPrlSt5gJKBG64hUzID-2" target="qSPrlSt5gJKBG64hUzID-4" edge="1">
          <mxGeometry relative="1" as="geometry" />
        </mxCell>
        <mxCell id="qSPrlSt5gJKBG64hUzID-2" value="Start" style="strokeWidth=2;html=1;shape=mxgraph.flowchart.start_1;whiteSpace=wrap;" parent="1" vertex="1">
          <mxGeometry x="90" y="50" width="100" height="60" as="geometry" />
        </mxCell>
        <mxCell id="qSPrlSt5gJKBG64hUzID-3" value="" style="edgeStyle=orthogonalEdgeStyle;rounded=0;orthogonalLoop=1;jettySize=auto;html=1;" parent="1" source="qSPrlSt5gJKBG64hUzID-4" target="qSPrlSt5gJKBG64hUzID-9" edge="1">
          <mxGeometry relative="1" as="geometry" />
        </mxCell>
        <mxCell id="qSPrlSt5gJKBG64hUzID-4" value="output&lt;div&gt;&lt;div&gt;1. Login&lt;/div&gt;&lt;div&gt;2. Daftar&lt;/div&gt;&lt;div&gt;3. Keluar&lt;/div&gt;&lt;/div&gt;" style="shape=parallelogram;perimeter=parallelogramPerimeter;whiteSpace=wrap;html=1;fixedSize=1;strokeWidth=2;" parent="1" vertex="1">
          <mxGeometry x="80" y="160" width="120" height="60" as="geometry" />
        </mxCell>
        <mxCell id="qSPrlSt5gJKBG64hUzID-5" value="" style="edgeStyle=orthogonalEdgeStyle;rounded=0;orthogonalLoop=1;jettySize=auto;html=1;" parent="1" source="qSPrlSt5gJKBG64hUzID-9" target="qSPrlSt5gJKBG64hUzID-14" edge="1">
          <mxGeometry relative="1" as="geometry" />
        </mxCell>
        <mxCell id="qSPrlSt5gJKBG64hUzID-6" value="false" style="edgeLabel;html=1;align=center;verticalAlign=middle;resizable=0;points=[];" parent="qSPrlSt5gJKBG64hUzID-5" vertex="1" connectable="0">
          <mxGeometry x="-0.1319" y="-2" relative="1" as="geometry">
            <mxPoint as="offset" />
          </mxGeometry>
        </mxCell>
        <mxCell id="qSPrlSt5gJKBG64hUzID-7" value="" style="edgeStyle=orthogonalEdgeStyle;rounded=0;orthogonalLoop=1;jettySize=auto;html=1;" parent="1" source="qSPrlSt5gJKBG64hUzID-9" target="qSPrlSt5gJKBG64hUzID-21" edge="1">
          <mxGeometry relative="1" as="geometry" />
        </mxCell>
        <mxCell id="qSPrlSt5gJKBG64hUzID-8" value="true" style="edgeLabel;html=1;align=center;verticalAlign=middle;resizable=0;points=[];" parent="qSPrlSt5gJKBG64hUzID-7" vertex="1" connectable="0">
          <mxGeometry x="-0.219" y="-1" relative="1" as="geometry">
            <mxPoint as="offset" />
          </mxGeometry>
        </mxCell>
        <mxCell id="qSPrlSt5gJKBG64hUzID-9" value="opsi 1" style="rhombus;whiteSpace=wrap;html=1;strokeWidth=2;" parent="1" vertex="1">
          <mxGeometry x="250" y="150" width="80" height="80" as="geometry" />
        </mxCell>
        <mxCell id="qSPrlSt5gJKBG64hUzID-10" value="" style="edgeStyle=orthogonalEdgeStyle;rounded=0;orthogonalLoop=1;jettySize=auto;html=1;" parent="1" source="qSPrlSt5gJKBG64hUzID-14" target="qSPrlSt5gJKBG64hUzID-19" edge="1">
          <mxGeometry relative="1" as="geometry" />
        </mxCell>
        <mxCell id="qSPrlSt5gJKBG64hUzID-11" value="false" style="edgeLabel;html=1;align=center;verticalAlign=middle;resizable=0;points=[];" parent="qSPrlSt5gJKBG64hUzID-10" vertex="1" connectable="0">
          <mxGeometry x="0.0922" relative="1" as="geometry">
            <mxPoint as="offset" />
          </mxGeometry>
        </mxCell>
        <mxCell id="qSPrlSt5gJKBG64hUzID-12" value="" style="edgeStyle=orthogonalEdgeStyle;rounded=0;orthogonalLoop=1;jettySize=auto;html=1;" parent="1" source="qSPrlSt5gJKBG64hUzID-14" target="qSPrlSt5gJKBG64hUzID-23" edge="1">
          <mxGeometry relative="1" as="geometry" />
        </mxCell>
        <mxCell id="qSPrlSt5gJKBG64hUzID-13" value="true" style="edgeLabel;html=1;align=center;verticalAlign=middle;resizable=0;points=[];" parent="qSPrlSt5gJKBG64hUzID-12" vertex="1" connectable="0">
          <mxGeometry x="-0.219" y="3" relative="1" as="geometry">
            <mxPoint as="offset" />
          </mxGeometry>
        </mxCell>
        <mxCell id="qSPrlSt5gJKBG64hUzID-14" value="opsi 2" style="rhombus;whiteSpace=wrap;html=1;strokeWidth=2;" parent="1" vertex="1">
          <mxGeometry x="410" y="150" width="80" height="80" as="geometry" />
        </mxCell>
        <mxCell id="qSPrlSt5gJKBG64hUzID-15" value="" style="edgeStyle=orthogonalEdgeStyle;rounded=0;orthogonalLoop=1;jettySize=auto;html=1;" parent="1" source="qSPrlSt5gJKBG64hUzID-19" target="qSPrlSt5gJKBG64hUzID-26" edge="1">
          <mxGeometry relative="1" as="geometry" />
        </mxCell>
        <mxCell id="qSPrlSt5gJKBG64hUzID-16" value="false" style="edgeLabel;html=1;align=center;verticalAlign=middle;resizable=0;points=[];" parent="qSPrlSt5gJKBG64hUzID-15" vertex="1" connectable="0">
          <mxGeometry x="-0.1867" y="-1" relative="1" as="geometry">
            <mxPoint as="offset" />
          </mxGeometry>
        </mxCell>
        <mxCell id="qSPrlSt5gJKBG64hUzID-17" value="" style="edgeStyle=orthogonalEdgeStyle;rounded=0;orthogonalLoop=1;jettySize=auto;html=1;" parent="1" source="qSPrlSt5gJKBG64hUzID-19" target="qSPrlSt5gJKBG64hUzID-27" edge="1">
          <mxGeometry relative="1" as="geometry" />
        </mxCell>
        <mxCell id="qSPrlSt5gJKBG64hUzID-18" value="true" style="edgeLabel;html=1;align=center;verticalAlign=middle;resizable=0;points=[];" parent="qSPrlSt5gJKBG64hUzID-17" vertex="1" connectable="0">
          <mxGeometry x="-0.0214" relative="1" as="geometry">
            <mxPoint as="offset" />
          </mxGeometry>
        </mxCell>
        <mxCell id="qSPrlSt5gJKBG64hUzID-19" value="opsi 3" style="rhombus;whiteSpace=wrap;html=1;strokeWidth=2;" parent="1" vertex="1">
          <mxGeometry x="570" y="150" width="80" height="80" as="geometry" />
        </mxCell>
        <mxCell id="qSPrlSt5gJKBG64hUzID-20" value="" style="edgeStyle=orthogonalEdgeStyle;rounded=0;orthogonalLoop=1;jettySize=auto;html=1;" parent="1" source="qSPrlSt5gJKBG64hUzID-21" target="qSPrlSt5gJKBG64hUzID-24" edge="1">
          <mxGeometry relative="1" as="geometry" />
        </mxCell>
        <mxCell id="qSPrlSt5gJKBG64hUzID-21" value="login" style="shape=process;whiteSpace=wrap;html=1;backgroundOutline=1;strokeWidth=2;" parent="1" vertex="1">
          <mxGeometry x="240" y="270" width="100" height="50" as="geometry" />
        </mxCell>
        <mxCell id="qSPrlSt5gJKBG64hUzID-22" value="" style="edgeStyle=orthogonalEdgeStyle;rounded=0;orthogonalLoop=1;jettySize=auto;html=1;" parent="1" source="qSPrlSt5gJKBG64hUzID-23" target="qSPrlSt5gJKBG64hUzID-25" edge="1">
          <mxGeometry relative="1" as="geometry" />
        </mxCell>
        <mxCell id="qSPrlSt5gJKBG64hUzID-23" value="daftar" style="shape=process;whiteSpace=wrap;html=1;backgroundOutline=1;strokeWidth=2;" parent="1" vertex="1">
          <mxGeometry x="400" y="270" width="100" height="50" as="geometry" />
        </mxCell>
        <mxCell id="qSPrlSt5gJKBG64hUzID-24" value="1" style="ellipse;whiteSpace=wrap;html=1;strokeWidth=2;fillColor=#dae8fc;strokeColor=#6c8ebf;" parent="1" vertex="1">
          <mxGeometry x="265" y="350" width="50" height="50" as="geometry" />
        </mxCell>
        <mxCell id="qSPrlSt5gJKBG64hUzID-25" value="2" style="ellipse;whiteSpace=wrap;html=1;strokeWidth=2;fillColor=#d5e8d4;strokeColor=#82b366;" parent="1" vertex="1">
          <mxGeometry x="425" y="350" width="50" height="50" as="geometry" />
        </mxCell>
        <mxCell id="qSPrlSt5gJKBG64hUzID-26" value="output&lt;div&gt;input tidak valid&lt;/div&gt;" style="shape=parallelogram;perimeter=parallelogramPerimeter;whiteSpace=wrap;html=1;fixedSize=1;strokeWidth=2;" parent="1" vertex="1">
          <mxGeometry x="690" y="160" width="120" height="60" as="geometry" />
        </mxCell>
        <mxCell id="qSPrlSt5gJKBG64hUzID-27" value="end" style="strokeWidth=2;html=1;shape=mxgraph.flowchart.start_1;whiteSpace=wrap;" parent="1" vertex="1">
          <mxGeometry x="560" y="270" width="100" height="60" as="geometry" />
        </mxCell>
        <mxCell id="qSPrlSt5gJKBG64hUzID-28" value="" style="endArrow=classic;html=1;rounded=0;exitX=0.5;exitY=1;exitDx=0;exitDy=0;entryX=0.5;entryY=1;entryDx=0;entryDy=0;" parent="1" source="qSPrlSt5gJKBG64hUzID-26" target="qSPrlSt5gJKBG64hUzID-4" edge="1">
          <mxGeometry width="50" height="50" relative="1" as="geometry">
            <mxPoint x="740" y="230" as="sourcePoint" />
            <mxPoint x="130" y="420" as="targetPoint" />
            <Array as="points">
              <mxPoint x="750" y="420" />
              <mxPoint x="140" y="420" />
            </Array>
          </mxGeometry>
        </mxCell>
        <mxCell id="qSPrlSt5gJKBG64hUzID-29" value="" style="edgeStyle=orthogonalEdgeStyle;rounded=0;orthogonalLoop=1;jettySize=auto;html=1;" parent="1" source="qSPrlSt5gJKBG64hUzID-30" target="qSPrlSt5gJKBG64hUzID-4" edge="1">
          <mxGeometry relative="1" as="geometry">
            <Array as="points">
              <mxPoint x="50" y="190" />
            </Array>
          </mxGeometry>
        </mxCell>
        <mxCell id="qSPrlSt5gJKBG64hUzID-30" value="" style="ellipse;whiteSpace=wrap;html=1;strokeWidth=2;fillColor=#6d8764;strokeColor=#3A5431;fontColor=#ffffff;" parent="1" vertex="1">
          <mxGeometry x="20" y="130" width="50" height="50" as="geometry" />
        </mxCell>
      </root>
    </mxGraphModel>
  </diagram>
  <diagram id="jDxnXy53-rarSD4itVyk" name="Login">
    <mxGraphModel dx="30" dy="468" grid="1" gridSize="10" guides="1" tooltips="1" connect="1" arrows="1" fold="1" page="1" pageScale="1" pageWidth="850" pageHeight="1100" math="0" shadow="0">
      <root>
        <mxCell id="0" />
        <mxCell id="1" parent="0" />
        <mxCell id="AUmyEadydIkbe0MT5-__-1" value="" style="edgeStyle=orthogonalEdgeStyle;rounded=0;orthogonalLoop=1;jettySize=auto;html=1;" parent="1" source="AUmyEadydIkbe0MT5-__-2" target="AUmyEadydIkbe0MT5-__-4" edge="1">
          <mxGeometry relative="1" as="geometry" />
        </mxCell>
        <mxCell id="AUmyEadydIkbe0MT5-__-2" value="1" style="ellipse;whiteSpace=wrap;html=1;strokeWidth=2;fillColor=#dae8fc;strokeColor=#6c8ebf;" parent="1" vertex="1">
          <mxGeometry x="1060" y="40" width="50" height="50" as="geometry" />
        </mxCell>
        <mxCell id="AUmyEadydIkbe0MT5-__-3" value="" style="edgeStyle=orthogonalEdgeStyle;rounded=0;orthogonalLoop=1;jettySize=auto;html=1;" parent="1" source="AUmyEadydIkbe0MT5-__-4" target="AUmyEadydIkbe0MT5-__-6" edge="1">
          <mxGeometry relative="1" as="geometry" />
        </mxCell>
        <mxCell id="AUmyEadydIkbe0MT5-__-4" value="akun_admin =&amp;nbsp;&lt;div&gt;MarshaAuliaFakhriza,&lt;/div&gt;&lt;div&gt;2409106116&lt;br&gt;&lt;/div&gt;" style="whiteSpace=wrap;html=1;strokeWidth=2;" parent="1" vertex="1">
          <mxGeometry x="1025" y="150" width="120" height="60" as="geometry" />
        </mxCell>
        <mxCell id="AUmyEadydIkbe0MT5-__-5" value="" style="edgeStyle=orthogonalEdgeStyle;rounded=0;orthogonalLoop=1;jettySize=auto;html=1;" parent="1" source="AUmyEadydIkbe0MT5-__-6" target="AUmyEadydIkbe0MT5-__-8" edge="1">
          <mxGeometry relative="1" as="geometry" />
        </mxCell>
        <mxCell id="AUmyEadydIkbe0MT5-__-6" value="input&lt;div&gt;masukkan usn&lt;/div&gt;" style="shape=parallelogram;perimeter=parallelogramPerimeter;whiteSpace=wrap;html=1;fixedSize=1;strokeWidth=2;" parent="1" vertex="1">
          <mxGeometry x="1025" y="260" width="120" height="60" as="geometry" />
        </mxCell>
        <mxCell id="AUmyEadydIkbe0MT5-__-7" value="" style="edgeStyle=orthogonalEdgeStyle;rounded=0;orthogonalLoop=1;jettySize=auto;html=1;" parent="1" source="AUmyEadydIkbe0MT5-__-8" target="AUmyEadydIkbe0MT5-__-10" edge="1">
          <mxGeometry relative="1" as="geometry" />
        </mxCell>
        <mxCell id="AUmyEadydIkbe0MT5-__-8" value="input&lt;div&gt;masukkan pw&lt;/div&gt;" style="shape=parallelogram;perimeter=parallelogramPerimeter;whiteSpace=wrap;html=1;fixedSize=1;strokeWidth=2;" parent="1" vertex="1">
          <mxGeometry x="1025" y="360" width="120" height="60" as="geometry" />
        </mxCell>
        <mxCell id="AUmyEadydIkbe0MT5-__-9" value="" style="edgeStyle=orthogonalEdgeStyle;rounded=0;orthogonalLoop=1;jettySize=auto;html=1;" parent="1" source="AUmyEadydIkbe0MT5-__-10" target="AUmyEadydIkbe0MT5-__-15" edge="1">
          <mxGeometry relative="1" as="geometry" />
        </mxCell>
        <mxCell id="AUmyEadydIkbe0MT5-__-10" value="cek data_akun" style="whiteSpace=wrap;html=1;strokeWidth=2;" parent="1" vertex="1">
          <mxGeometry x="1025" y="480" width="120" height="60" as="geometry" />
        </mxCell>
        <mxCell id="AUmyEadydIkbe0MT5-__-11" value="" style="edgeStyle=orthogonalEdgeStyle;rounded=0;orthogonalLoop=1;jettySize=auto;html=1;" parent="1" source="AUmyEadydIkbe0MT5-__-15" target="AUmyEadydIkbe0MT5-__-17" edge="1">
          <mxGeometry relative="1" as="geometry" />
        </mxCell>
        <mxCell id="AUmyEadydIkbe0MT5-__-12" value="true" style="edgeLabel;html=1;align=center;verticalAlign=middle;resizable=0;points=[];" parent="AUmyEadydIkbe0MT5-__-11" vertex="1" connectable="0">
          <mxGeometry x="-0.0667" y="-1" relative="1" as="geometry">
            <mxPoint as="offset" />
          </mxGeometry>
        </mxCell>
        <mxCell id="AUmyEadydIkbe0MT5-__-13" value="" style="edgeStyle=orthogonalEdgeStyle;rounded=0;orthogonalLoop=1;jettySize=auto;html=1;" parent="1" source="AUmyEadydIkbe0MT5-__-15" target="AUmyEadydIkbe0MT5-__-22" edge="1">
          <mxGeometry relative="1" as="geometry" />
        </mxCell>
        <mxCell id="AUmyEadydIkbe0MT5-__-14" value="false" style="edgeLabel;html=1;align=center;verticalAlign=middle;resizable=0;points=[];" parent="AUmyEadydIkbe0MT5-__-13" vertex="1" connectable="0">
          <mxGeometry x="-0.2213" y="1" relative="1" as="geometry">
            <mxPoint as="offset" />
          </mxGeometry>
        </mxCell>
        <mxCell id="AUmyEadydIkbe0MT5-__-15" value="akun_admin ==&lt;div&gt;usn,pw&lt;/div&gt;" style="rhombus;whiteSpace=wrap;html=1;strokeWidth=2;" parent="1" vertex="1">
          <mxGeometry x="1030" y="580" width="110" height="90" as="geometry" />
        </mxCell>
        <mxCell id="AUmyEadydIkbe0MT5-__-16" value="" style="edgeStyle=orthogonalEdgeStyle;rounded=0;orthogonalLoop=1;jettySize=auto;html=1;" parent="1" source="AUmyEadydIkbe0MT5-__-17" target="AUmyEadydIkbe0MT5-__-36" edge="1">
          <mxGeometry relative="1" as="geometry" />
        </mxCell>
        <mxCell id="AUmyEadydIkbe0MT5-__-17" value="output&lt;div&gt;login berhasil&lt;/div&gt;&lt;div&gt;sebagai admin&lt;/div&gt;" style="shape=parallelogram;perimeter=parallelogramPerimeter;whiteSpace=wrap;html=1;fixedSize=1;strokeWidth=2;" parent="1" vertex="1">
          <mxGeometry x="1190" y="595" width="120" height="60" as="geometry" />
        </mxCell>
        <mxCell id="AUmyEadydIkbe0MT5-__-18" value="" style="edgeStyle=orthogonalEdgeStyle;rounded=0;orthogonalLoop=1;jettySize=auto;html=1;" parent="1" source="AUmyEadydIkbe0MT5-__-22" target="AUmyEadydIkbe0MT5-__-24" edge="1">
          <mxGeometry relative="1" as="geometry" />
        </mxCell>
        <mxCell id="AUmyEadydIkbe0MT5-__-19" value="true" style="edgeLabel;html=1;align=center;verticalAlign=middle;resizable=0;points=[];" parent="AUmyEadydIkbe0MT5-__-18" vertex="1" connectable="0">
          <mxGeometry x="0.0321" y="-1" relative="1" as="geometry">
            <mxPoint as="offset" />
          </mxGeometry>
        </mxCell>
        <mxCell id="AUmyEadydIkbe0MT5-__-20" value="" style="edgeStyle=orthogonalEdgeStyle;rounded=0;orthogonalLoop=1;jettySize=auto;html=1;" parent="1" source="AUmyEadydIkbe0MT5-__-22" target="AUmyEadydIkbe0MT5-__-29" edge="1">
          <mxGeometry relative="1" as="geometry" />
        </mxCell>
        <mxCell id="AUmyEadydIkbe0MT5-__-21" value="false" style="edgeLabel;html=1;align=center;verticalAlign=middle;resizable=0;points=[];" parent="AUmyEadydIkbe0MT5-__-20" vertex="1" connectable="0">
          <mxGeometry x="-0.1418" y="1" relative="1" as="geometry">
            <mxPoint as="offset" />
          </mxGeometry>
        </mxCell>
        <mxCell id="AUmyEadydIkbe0MT5-__-22" value="data_akun ==&lt;div&gt;usn,pw&lt;/div&gt;" style="rhombus;whiteSpace=wrap;html=1;strokeWidth=2;" parent="1" vertex="1">
          <mxGeometry x="1030" y="730" width="110" height="90" as="geometry" />
        </mxCell>
        <mxCell id="AUmyEadydIkbe0MT5-__-23" value="" style="edgeStyle=orthogonalEdgeStyle;rounded=0;orthogonalLoop=1;jettySize=auto;html=1;" parent="1" source="AUmyEadydIkbe0MT5-__-24" target="AUmyEadydIkbe0MT5-__-39" edge="1">
          <mxGeometry relative="1" as="geometry" />
        </mxCell>
        <mxCell id="AUmyEadydIkbe0MT5-__-24" value="output&lt;div&gt;login berhasil&amp;nbsp;&lt;/div&gt;&lt;div&gt;sebagai user&lt;/div&gt;" style="shape=parallelogram;perimeter=parallelogramPerimeter;whiteSpace=wrap;html=1;fixedSize=1;strokeWidth=2;" parent="1" vertex="1">
          <mxGeometry x="1190" y="745" width="120" height="60" as="geometry" />
        </mxCell>
        <mxCell id="AUmyEadydIkbe0MT5-__-25" value="" style="edgeStyle=orthogonalEdgeStyle;rounded=0;orthogonalLoop=1;jettySize=auto;html=1;" parent="1" source="AUmyEadydIkbe0MT5-__-29" target="AUmyEadydIkbe0MT5-__-32" edge="1">
          <mxGeometry relative="1" as="geometry" />
        </mxCell>
        <mxCell id="AUmyEadydIkbe0MT5-__-26" value="false" style="edgeLabel;html=1;align=center;verticalAlign=middle;resizable=0;points=[];" parent="AUmyEadydIkbe0MT5-__-25" vertex="1" connectable="0">
          <mxGeometry x="-0.2083" y="2" relative="1" as="geometry">
            <mxPoint as="offset" />
          </mxGeometry>
        </mxCell>
        <mxCell id="AUmyEadydIkbe0MT5-__-27" value="" style="edgeStyle=orthogonalEdgeStyle;rounded=0;orthogonalLoop=1;jettySize=auto;html=1;" parent="1" source="AUmyEadydIkbe0MT5-__-29" target="AUmyEadydIkbe0MT5-__-33" edge="1">
          <mxGeometry relative="1" as="geometry" />
        </mxCell>
        <mxCell id="AUmyEadydIkbe0MT5-__-28" value="true" style="edgeLabel;html=1;align=center;verticalAlign=middle;resizable=0;points=[];" parent="AUmyEadydIkbe0MT5-__-27" vertex="1" connectable="0">
          <mxGeometry x="-0.08" y="-2" relative="1" as="geometry">
            <mxPoint as="offset" />
          </mxGeometry>
        </mxCell>
        <mxCell id="AUmyEadydIkbe0MT5-__-29" value="login &amp;lt; 3" style="rhombus;whiteSpace=wrap;html=1;strokeWidth=2;" parent="1" vertex="1">
          <mxGeometry x="1030" y="890" width="110" height="90" as="geometry" />
        </mxCell>
        <mxCell id="AUmyEadydIkbe0MT5-__-30" value="" style="endArrow=classic;html=1;rounded=0;" parent="1" target="AUmyEadydIkbe0MT5-__-6" edge="1">
          <mxGeometry width="50" height="50" relative="1" as="geometry">
            <mxPoint x="940" y="900" as="sourcePoint" />
            <mxPoint x="960" y="248.5185185185185" as="targetPoint" />
            <Array as="points">
              <mxPoint x="940" y="290" />
            </Array>
          </mxGeometry>
        </mxCell>
        <mxCell id="AUmyEadydIkbe0MT5-__-31" value="" style="edgeStyle=orthogonalEdgeStyle;rounded=0;orthogonalLoop=1;jettySize=auto;html=1;" parent="1" source="AUmyEadydIkbe0MT5-__-32" target="AUmyEadydIkbe0MT5-__-34" edge="1">
          <mxGeometry relative="1" as="geometry" />
        </mxCell>
        <mxCell id="AUmyEadydIkbe0MT5-__-32" value="output&lt;div&gt;Anda telah gagal&amp;nbsp;&lt;/div&gt;&lt;div&gt;login 3 kali. Kembali ke menu utama&lt;br&gt;&lt;div&gt;&lt;br&gt;&lt;/div&gt;&lt;/div&gt;" style="shape=parallelogram;perimeter=parallelogramPerimeter;whiteSpace=wrap;html=1;fixedSize=1;strokeWidth=2;" parent="1" vertex="1">
          <mxGeometry x="1010" y="1020" width="150" height="70" as="geometry" />
        </mxCell>
        <mxCell id="AUmyEadydIkbe0MT5-__-33" value="output&lt;div&gt;Login gagal! Username atau password salah.&lt;br&gt;&lt;/div&gt;" style="shape=parallelogram;perimeter=parallelogramPerimeter;whiteSpace=wrap;html=1;fixedSize=1;strokeWidth=2;" parent="1" vertex="1">
          <mxGeometry x="870" y="905" width="120" height="60" as="geometry" />
        </mxCell>
        <mxCell id="AUmyEadydIkbe0MT5-__-34" value="" style="ellipse;whiteSpace=wrap;html=1;strokeWidth=2;fillColor=#6d8764;strokeColor=#3A5431;fontColor=#ffffff;" parent="1" vertex="1">
          <mxGeometry x="1200" y="1030" width="50" height="50" as="geometry" />
        </mxCell>
        <mxCell id="AUmyEadydIkbe0MT5-__-35" value="" style="edgeStyle=orthogonalEdgeStyle;rounded=0;orthogonalLoop=1;jettySize=auto;html=1;" parent="1" source="AUmyEadydIkbe0MT5-__-36" target="AUmyEadydIkbe0MT5-__-37" edge="1">
          <mxGeometry relative="1" as="geometry" />
        </mxCell>
        <mxCell id="AUmyEadydIkbe0MT5-__-36" value="admin" style="shape=process;whiteSpace=wrap;html=1;backgroundOutline=1;strokeWidth=2;" parent="1" vertex="1">
          <mxGeometry x="1350" y="595" width="120" height="60" as="geometry" />
        </mxCell>
        <mxCell id="AUmyEadydIkbe0MT5-__-37" value="" style="ellipse;whiteSpace=wrap;html=1;strokeWidth=2;fillColor=#647687;strokeColor=#314354;fontColor=#ffffff;" parent="1" vertex="1">
          <mxGeometry x="1520" y="600" width="50" height="50" as="geometry" />
        </mxCell>
        <mxCell id="AUmyEadydIkbe0MT5-__-38" value="" style="edgeStyle=orthogonalEdgeStyle;rounded=0;orthogonalLoop=1;jettySize=auto;html=1;" parent="1" source="AUmyEadydIkbe0MT5-__-39" target="AUmyEadydIkbe0MT5-__-40" edge="1">
          <mxGeometry relative="1" as="geometry" />
        </mxCell>
        <mxCell id="AUmyEadydIkbe0MT5-__-39" value="user" style="shape=process;whiteSpace=wrap;html=1;backgroundOutline=1;strokeWidth=2;" parent="1" vertex="1">
          <mxGeometry x="1350" y="745" width="120" height="60" as="geometry" />
        </mxCell>
        <mxCell id="AUmyEadydIkbe0MT5-__-40" value="" style="ellipse;whiteSpace=wrap;html=1;strokeWidth=2;fillColor=#76608a;strokeColor=#432D57;fontColor=#ffffff;" parent="1" vertex="1">
          <mxGeometry x="1520" y="750" width="50" height="50" as="geometry" />
        </mxCell>
      </root>
    </mxGraphModel>
  </diagram>
  <diagram id="qiS4LpFi_dRnf9upsP1N" name="Daftar akun">
    <mxGraphModel dx="-820" dy="468" grid="1" gridSize="10" guides="1" tooltips="1" connect="1" arrows="1" fold="1" page="1" pageScale="1" pageWidth="850" pageHeight="1100" math="0" shadow="0">
      <root>
        <mxCell id="0" />
        <mxCell id="1" parent="0" />
        <mxCell id="Vd3WeystQ6cYr2M4h5LH-1" value="" style="edgeStyle=orthogonalEdgeStyle;rounded=0;orthogonalLoop=1;jettySize=auto;html=1;" parent="1" source="Vd3WeystQ6cYr2M4h5LH-2" target="Vd3WeystQ6cYr2M4h5LH-4" edge="1">
          <mxGeometry relative="1" as="geometry" />
        </mxCell>
        <mxCell id="Vd3WeystQ6cYr2M4h5LH-2" value="output&lt;div&gt;daftar akun&lt;/div&gt;" style="shape=parallelogram;perimeter=parallelogramPerimeter;whiteSpace=wrap;html=1;fixedSize=1;strokeWidth=2;" parent="1" vertex="1">
          <mxGeometry x="2040" y="130" width="120" height="60" as="geometry" />
        </mxCell>
        <mxCell id="Vd3WeystQ6cYr2M4h5LH-3" value="" style="edgeStyle=orthogonalEdgeStyle;rounded=0;orthogonalLoop=1;jettySize=auto;html=1;entryX=0.5;entryY=0;entryDx=0;entryDy=0;" parent="1" source="Vd3WeystQ6cYr2M4h5LH-4" target="Vd3WeystQ6cYr2M4h5LH-6" edge="1">
          <mxGeometry relative="1" as="geometry">
            <mxPoint x="2100" y="344.9999999999999" as="targetPoint" />
          </mxGeometry>
        </mxCell>
        <mxCell id="Vd3WeystQ6cYr2M4h5LH-4" value="input&lt;div&gt;usn&lt;/div&gt;" style="shape=parallelogram;perimeter=parallelogramPerimeter;whiteSpace=wrap;html=1;fixedSize=1;strokeWidth=2;" parent="1" vertex="1">
          <mxGeometry x="2040" y="240" width="120" height="60" as="geometry" />
        </mxCell>
        <mxCell id="Vd3WeystQ6cYr2M4h5LH-5" value="" style="edgeStyle=orthogonalEdgeStyle;rounded=0;orthogonalLoop=1;jettySize=auto;html=1;" parent="1" source="Vd3WeystQ6cYr2M4h5LH-6" target="Vd3WeystQ6cYr2M4h5LH-8" edge="1">
          <mxGeometry relative="1" as="geometry" />
        </mxCell>
        <mxCell id="Vd3WeystQ6cYr2M4h5LH-6" value="input&lt;div&gt;pw&lt;/div&gt;" style="shape=parallelogram;perimeter=parallelogramPerimeter;whiteSpace=wrap;html=1;fixedSize=1;strokeWidth=2;" parent="1" vertex="1">
          <mxGeometry x="2040" y="350" width="120" height="60" as="geometry" />
        </mxCell>
        <mxCell id="Vd3WeystQ6cYr2M4h5LH-7" value="" style="edgeStyle=orthogonalEdgeStyle;rounded=0;orthogonalLoop=1;jettySize=auto;html=1;" parent="1" source="Vd3WeystQ6cYr2M4h5LH-8" target="Vd3WeystQ6cYr2M4h5LH-15" edge="1">
          <mxGeometry relative="1" as="geometry" />
        </mxCell>
        <mxCell id="Vd3WeystQ6cYr2M4h5LH-8" value="masukkan akun&lt;div&gt;ke data_akun&lt;/div&gt;" style="whiteSpace=wrap;html=1;strokeWidth=2;" parent="1" vertex="1">
          <mxGeometry x="2040" y="460" width="120" height="60" as="geometry" />
        </mxCell>
        <mxCell id="Vd3WeystQ6cYr2M4h5LH-9" value="" style="edgeStyle=orthogonalEdgeStyle;rounded=0;orthogonalLoop=1;jettySize=auto;html=1;" parent="1" source="Vd3WeystQ6cYr2M4h5LH-10" target="Vd3WeystQ6cYr2M4h5LH-11" edge="1">
          <mxGeometry relative="1" as="geometry" />
        </mxCell>
        <mxCell id="Vd3WeystQ6cYr2M4h5LH-10" value="output&lt;div&gt;pendaftaran akun&lt;/div&gt;&lt;div&gt;berhasil&lt;/div&gt;" style="shape=parallelogram;perimeter=parallelogramPerimeter;whiteSpace=wrap;html=1;fixedSize=1;strokeWidth=2;" parent="1" vertex="1">
          <mxGeometry x="2040" y="670" width="120" height="60" as="geometry" />
        </mxCell>
        <mxCell id="Vd3WeystQ6cYr2M4h5LH-11" value="" style="ellipse;whiteSpace=wrap;html=1;strokeWidth=2;fillColor=#6d8764;strokeColor=#3A5431;fontColor=#ffffff;" parent="1" vertex="1">
          <mxGeometry x="2075" y="780" width="50" height="50" as="geometry" />
        </mxCell>
        <mxCell id="Vd3WeystQ6cYr2M4h5LH-12" value="" style="edgeStyle=orthogonalEdgeStyle;rounded=0;orthogonalLoop=1;jettySize=auto;html=1;" parent="1" source="Vd3WeystQ6cYr2M4h5LH-13" target="Vd3WeystQ6cYr2M4h5LH-2" edge="1">
          <mxGeometry relative="1" as="geometry" />
        </mxCell>
        <mxCell id="Vd3WeystQ6cYr2M4h5LH-13" value="2" style="ellipse;whiteSpace=wrap;html=1;strokeWidth=2;fillColor=#d5e8d4;strokeColor=#82b366;" parent="1" vertex="1">
          <mxGeometry x="2075" y="40" width="50" height="50" as="geometry" />
        </mxCell>
        <mxCell id="Vd3WeystQ6cYr2M4h5LH-14" value="" style="edgeStyle=orthogonalEdgeStyle;rounded=0;orthogonalLoop=1;jettySize=auto;html=1;" parent="1" source="Vd3WeystQ6cYr2M4h5LH-15" target="Vd3WeystQ6cYr2M4h5LH-10" edge="1">
          <mxGeometry relative="1" as="geometry" />
        </mxCell>
        <mxCell id="Vd3WeystQ6cYr2M4h5LH-15" value="data_akun" style="strokeWidth=2;html=1;shape=mxgraph.flowchart.database;whiteSpace=wrap;" parent="1" vertex="1">
          <mxGeometry x="2070" y="570" width="60" height="60" as="geometry" />
        </mxCell>
      </root>
    </mxGraphModel>
  </diagram>
  <diagram id="DTU5rnqT5f7bA8lvK5Z4" name="Menu admin">
    <mxGraphModel dx="22" dy="-589" grid="1" gridSize="10" guides="1" tooltips="1" connect="1" arrows="1" fold="1" page="1" pageScale="1" pageWidth="850" pageHeight="1100" math="0" shadow="0">
      <root>
        <mxCell id="0" />
        <mxCell id="1" parent="0" />
        <mxCell id="7t_8KM3C-EM3amEqB24O-1" value="" style="edgeStyle=orthogonalEdgeStyle;rounded=0;orthogonalLoop=1;jettySize=auto;html=1;" edge="1" parent="1" source="7t_8KM3C-EM3amEqB24O-2" target="7t_8KM3C-EM3amEqB24O-4">
          <mxGeometry relative="1" as="geometry" />
        </mxCell>
        <mxCell id="7t_8KM3C-EM3amEqB24O-2" value="" style="ellipse;whiteSpace=wrap;html=1;strokeWidth=2;fillColor=#647687;strokeColor=#314354;fontColor=#ffffff;" vertex="1" parent="1">
          <mxGeometry x="1070" y="1140" width="50" height="50" as="geometry" />
        </mxCell>
        <mxCell id="7t_8KM3C-EM3amEqB24O-3" value="" style="edgeStyle=orthogonalEdgeStyle;rounded=0;orthogonalLoop=1;jettySize=auto;html=1;" edge="1" parent="1" source="7t_8KM3C-EM3amEqB24O-4" target="7t_8KM3C-EM3amEqB24O-9">
          <mxGeometry relative="1" as="geometry" />
        </mxCell>
        <mxCell id="7t_8KM3C-EM3amEqB24O-4" value="output&lt;div&gt;&lt;div&gt;1. Lihat Daftar Sandal&lt;/div&gt;&lt;div&gt;2. Tambah Sandal&lt;/div&gt;&lt;div&gt;3. Edit Sandal&lt;/div&gt;&lt;div&gt;4. Hapus Sandal&lt;/div&gt;&lt;div&gt;5.Urutkan sendal&lt;/div&gt;&lt;div&gt;6. Log out&lt;/div&gt;&lt;/div&gt;" style="shape=parallelogram;perimeter=parallelogramPerimeter;whiteSpace=wrap;html=1;fixedSize=1;strokeWidth=2;" vertex="1" parent="1">
          <mxGeometry x="1000" y="1250" width="190" height="120" as="geometry" />
        </mxCell>
        <mxCell id="7t_8KM3C-EM3amEqB24O-5" value="" style="edgeStyle=orthogonalEdgeStyle;rounded=0;orthogonalLoop=1;jettySize=auto;html=1;" edge="1" parent="1" source="7t_8KM3C-EM3amEqB24O-9" target="7t_8KM3C-EM3amEqB24O-14">
          <mxGeometry relative="1" as="geometry" />
        </mxCell>
        <mxCell id="7t_8KM3C-EM3amEqB24O-6" value="false" style="edgeLabel;html=1;align=center;verticalAlign=middle;resizable=0;points=[];" vertex="1" connectable="0" parent="7t_8KM3C-EM3amEqB24O-5">
          <mxGeometry x="-0.125" y="1" relative="1" as="geometry">
            <mxPoint as="offset" />
          </mxGeometry>
        </mxCell>
        <mxCell id="7t_8KM3C-EM3amEqB24O-7" value="" style="edgeStyle=orthogonalEdgeStyle;rounded=0;orthogonalLoop=1;jettySize=auto;html=1;" edge="1" parent="1" source="7t_8KM3C-EM3amEqB24O-9" target="7t_8KM3C-EM3amEqB24O-16">
          <mxGeometry relative="1" as="geometry" />
        </mxCell>
        <mxCell id="7t_8KM3C-EM3amEqB24O-8" value="true" style="edgeLabel;html=1;align=center;verticalAlign=middle;resizable=0;points=[];" vertex="1" connectable="0" parent="7t_8KM3C-EM3amEqB24O-7">
          <mxGeometry x="-0.1387" relative="1" as="geometry">
            <mxPoint as="offset" />
          </mxGeometry>
        </mxCell>
        <mxCell id="7t_8KM3C-EM3amEqB24O-9" value="opsi 1" style="rhombus;whiteSpace=wrap;html=1;strokeWidth=2;" vertex="1" parent="1">
          <mxGeometry x="1055" y="1425" width="80" height="80" as="geometry" />
        </mxCell>
        <mxCell id="7t_8KM3C-EM3amEqB24O-10" value="" style="edgeStyle=orthogonalEdgeStyle;rounded=0;orthogonalLoop=1;jettySize=auto;html=1;" edge="1" parent="1" source="7t_8KM3C-EM3amEqB24O-14" target="7t_8KM3C-EM3amEqB24O-22">
          <mxGeometry relative="1" as="geometry" />
        </mxCell>
        <mxCell id="7t_8KM3C-EM3amEqB24O-11" value="true" style="edgeLabel;html=1;align=center;verticalAlign=middle;resizable=0;points=[];" vertex="1" connectable="0" parent="7t_8KM3C-EM3amEqB24O-10">
          <mxGeometry x="-0.1385" y="-4" relative="1" as="geometry">
            <mxPoint as="offset" />
          </mxGeometry>
        </mxCell>
        <mxCell id="7t_8KM3C-EM3amEqB24O-12" value="" style="edgeStyle=orthogonalEdgeStyle;rounded=0;orthogonalLoop=1;jettySize=auto;html=1;" edge="1" parent="1" source="7t_8KM3C-EM3amEqB24O-14" target="7t_8KM3C-EM3amEqB24O-37">
          <mxGeometry relative="1" as="geometry" />
        </mxCell>
        <mxCell id="7t_8KM3C-EM3amEqB24O-13" value="false" style="edgeLabel;html=1;align=center;verticalAlign=middle;resizable=0;points=[];" vertex="1" connectable="0" parent="7t_8KM3C-EM3amEqB24O-12">
          <mxGeometry x="-0.0578" y="1" relative="1" as="geometry">
            <mxPoint as="offset" />
          </mxGeometry>
        </mxCell>
        <mxCell id="7t_8KM3C-EM3amEqB24O-14" value="opsi 2" style="rhombus;whiteSpace=wrap;html=1;strokeWidth=2;" vertex="1" parent="1">
          <mxGeometry x="1055" y="1614.67" width="80" height="80" as="geometry" />
        </mxCell>
        <mxCell id="7t_8KM3C-EM3amEqB24O-15" value="" style="edgeStyle=orthogonalEdgeStyle;rounded=0;orthogonalLoop=1;jettySize=auto;html=1;" edge="1" parent="1" source="7t_8KM3C-EM3amEqB24O-16" target="7t_8KM3C-EM3amEqB24O-17">
          <mxGeometry relative="1" as="geometry" />
        </mxCell>
        <mxCell id="7t_8KM3C-EM3amEqB24O-16" value="data_sandal" style="strokeWidth=2;html=1;shape=mxgraph.flowchart.database;whiteSpace=wrap;" vertex="1" parent="1">
          <mxGeometry x="1180" y="1430" width="70" height="70" as="geometry" />
        </mxCell>
        <mxCell id="7t_8KM3C-EM3amEqB24O-17" value="output&lt;div&gt;menampilkan&amp;nbsp;&lt;/div&gt;&lt;div&gt;data_sandal&lt;/div&gt;" style="shape=parallelogram;perimeter=parallelogramPerimeter;whiteSpace=wrap;html=1;fixedSize=1;strokeWidth=2;" vertex="1" parent="1">
          <mxGeometry x="1305" y="1435" width="120" height="60" as="geometry" />
        </mxCell>
        <mxCell id="7t_8KM3C-EM3amEqB24O-18" value="" style="edgeStyle=orthogonalEdgeStyle;rounded=0;orthogonalLoop=1;jettySize=auto;html=1;" edge="1" parent="1" source="7t_8KM3C-EM3amEqB24O-22" target="7t_8KM3C-EM3amEqB24O-23">
          <mxGeometry relative="1" as="geometry">
            <Array as="points">
              <mxPoint x="1240" y="1560" />
            </Array>
          </mxGeometry>
        </mxCell>
        <mxCell id="7t_8KM3C-EM3amEqB24O-19" value="true" style="edgeLabel;html=1;align=center;verticalAlign=middle;resizable=0;points=[];" vertex="1" connectable="0" parent="7t_8KM3C-EM3amEqB24O-18">
          <mxGeometry x="-0.5877" y="-1" relative="1" as="geometry">
            <mxPoint as="offset" />
          </mxGeometry>
        </mxCell>
        <mxCell id="7t_8KM3C-EM3amEqB24O-20" value="" style="edgeStyle=orthogonalEdgeStyle;rounded=0;orthogonalLoop=1;jettySize=auto;html=1;" edge="1" parent="1" source="7t_8KM3C-EM3amEqB24O-22" target="7t_8KM3C-EM3amEqB24O-25">
          <mxGeometry relative="1" as="geometry">
            <Array as="points">
              <mxPoint x="1240" y="1740" />
            </Array>
          </mxGeometry>
        </mxCell>
        <mxCell id="7t_8KM3C-EM3amEqB24O-21" value="false" style="edgeLabel;html=1;align=center;verticalAlign=middle;resizable=0;points=[];" vertex="1" connectable="0" parent="7t_8KM3C-EM3amEqB24O-20">
          <mxGeometry x="-0.5996" relative="1" as="geometry">
            <mxPoint as="offset" />
          </mxGeometry>
        </mxCell>
        <mxCell id="7t_8KM3C-EM3amEqB24O-22" value="data_sandal&lt;div&gt;== 5&lt;/div&gt;" style="rhombus;whiteSpace=wrap;html=1;strokeWidth=2;" vertex="1" parent="1">
          <mxGeometry x="1200" y="1614.67" width="80" height="80" as="geometry" />
        </mxCell>
        <mxCell id="7t_8KM3C-EM3amEqB24O-23" value="output&lt;div&gt;kapasitas penuh&lt;/div&gt;" style="shape=parallelogram;perimeter=parallelogramPerimeter;whiteSpace=wrap;html=1;fixedSize=1;strokeWidth=2;" vertex="1" parent="1">
          <mxGeometry x="1300" y="1530" width="120" height="60" as="geometry" />
        </mxCell>
        <mxCell id="7t_8KM3C-EM3amEqB24O-24" value="" style="edgeStyle=orthogonalEdgeStyle;rounded=0;orthogonalLoop=1;jettySize=auto;html=1;" edge="1" parent="1" source="7t_8KM3C-EM3amEqB24O-25" target="7t_8KM3C-EM3amEqB24O-27">
          <mxGeometry relative="1" as="geometry" />
        </mxCell>
        <mxCell id="7t_8KM3C-EM3amEqB24O-25" value="input&lt;div&gt;nama sandal&lt;/div&gt;" style="shape=parallelogram;perimeter=parallelogramPerimeter;whiteSpace=wrap;html=1;fixedSize=1;strokeWidth=2;" vertex="1" parent="1">
          <mxGeometry x="1280" y="1710" width="120" height="60" as="geometry" />
        </mxCell>
        <mxCell id="7t_8KM3C-EM3amEqB24O-26" value="" style="edgeStyle=orthogonalEdgeStyle;rounded=0;orthogonalLoop=1;jettySize=auto;html=1;" edge="1" parent="1" source="7t_8KM3C-EM3amEqB24O-27" target="7t_8KM3C-EM3amEqB24O-29">
          <mxGeometry relative="1" as="geometry" />
        </mxCell>
        <mxCell id="7t_8KM3C-EM3amEqB24O-27" value="input&lt;div&gt;harga&lt;/div&gt;" style="shape=parallelogram;perimeter=parallelogramPerimeter;whiteSpace=wrap;html=1;fixedSize=1;strokeWidth=2;" vertex="1" parent="1">
          <mxGeometry x="1430" y="1710" width="120" height="60" as="geometry" />
        </mxCell>
        <mxCell id="7t_8KM3C-EM3amEqB24O-28" value="" style="edgeStyle=orthogonalEdgeStyle;rounded=0;orthogonalLoop=1;jettySize=auto;html=1;" edge="1" parent="1" source="7t_8KM3C-EM3amEqB24O-29" target="7t_8KM3C-EM3amEqB24O-31">
          <mxGeometry relative="1" as="geometry" />
        </mxCell>
        <mxCell id="7t_8KM3C-EM3amEqB24O-29" value="input&lt;div&gt;stok&lt;/div&gt;" style="shape=parallelogram;perimeter=parallelogramPerimeter;whiteSpace=wrap;html=1;fixedSize=1;strokeWidth=2;" vertex="1" parent="1">
          <mxGeometry x="1580" y="1710" width="120" height="60" as="geometry" />
        </mxCell>
        <mxCell id="7t_8KM3C-EM3amEqB24O-30" value="" style="edgeStyle=orthogonalEdgeStyle;rounded=0;orthogonalLoop=1;jettySize=auto;html=1;" edge="1" parent="1" source="7t_8KM3C-EM3amEqB24O-31" target="7t_8KM3C-EM3amEqB24O-32">
          <mxGeometry relative="1" as="geometry" />
        </mxCell>
        <mxCell id="7t_8KM3C-EM3amEqB24O-31" value="data_sandal" style="strokeWidth=2;html=1;shape=mxgraph.flowchart.database;whiteSpace=wrap;" vertex="1" parent="1">
          <mxGeometry x="1730" y="1705" width="70" height="70" as="geometry" />
        </mxCell>
        <mxCell id="7t_8KM3C-EM3amEqB24O-32" value="output&lt;div&gt;berhasil ditambah&lt;/div&gt;" style="shape=parallelogram;perimeter=parallelogramPerimeter;whiteSpace=wrap;html=1;fixedSize=1;strokeWidth=2;" vertex="1" parent="1">
          <mxGeometry x="1855" y="1710" width="120" height="60" as="geometry" />
        </mxCell>
        <mxCell id="7t_8KM3C-EM3amEqB24O-33" value="" style="edgeStyle=orthogonalEdgeStyle;rounded=0;orthogonalLoop=1;jettySize=auto;html=1;" edge="1" parent="1" source="7t_8KM3C-EM3amEqB24O-37" target="7t_8KM3C-EM3amEqB24O-39">
          <mxGeometry relative="1" as="geometry" />
        </mxCell>
        <mxCell id="7t_8KM3C-EM3amEqB24O-34" value="true" style="edgeLabel;html=1;align=center;verticalAlign=middle;resizable=0;points=[];" vertex="1" connectable="0" parent="7t_8KM3C-EM3amEqB24O-33">
          <mxGeometry x="-0.1238" y="3" relative="1" as="geometry">
            <mxPoint as="offset" />
          </mxGeometry>
        </mxCell>
        <mxCell id="7t_8KM3C-EM3amEqB24O-35" value="" style="edgeStyle=orthogonalEdgeStyle;rounded=0;orthogonalLoop=1;jettySize=auto;html=1;" edge="1" parent="1" source="7t_8KM3C-EM3amEqB24O-37" target="7t_8KM3C-EM3amEqB24O-53">
          <mxGeometry relative="1" as="geometry" />
        </mxCell>
        <mxCell id="7t_8KM3C-EM3amEqB24O-36" value="false" style="edgeLabel;html=1;align=center;verticalAlign=middle;resizable=0;points=[];" vertex="1" connectable="0" parent="7t_8KM3C-EM3amEqB24O-35">
          <mxGeometry x="-0.0611" y="-2" relative="1" as="geometry">
            <mxPoint as="offset" />
          </mxGeometry>
        </mxCell>
        <mxCell id="7t_8KM3C-EM3amEqB24O-37" value="opsi 3" style="rhombus;whiteSpace=wrap;html=1;strokeWidth=2;" vertex="1" parent="1">
          <mxGeometry x="1055" y="1810" width="80" height="80" as="geometry" />
        </mxCell>
        <mxCell id="7t_8KM3C-EM3amEqB24O-38" value="" style="edgeStyle=orthogonalEdgeStyle;rounded=0;orthogonalLoop=1;jettySize=auto;html=1;" edge="1" parent="1" source="7t_8KM3C-EM3amEqB24O-39" target="7t_8KM3C-EM3amEqB24O-41">
          <mxGeometry relative="1" as="geometry" />
        </mxCell>
        <mxCell id="7t_8KM3C-EM3amEqB24O-39" value="inpu&lt;div&gt;masukkan nomor&lt;/div&gt;&lt;div&gt;sandal yg di edit&lt;/div&gt;" style="shape=parallelogram;perimeter=parallelogramPerimeter;whiteSpace=wrap;html=1;fixedSize=1;strokeWidth=2;" vertex="1" parent="1">
          <mxGeometry x="1195" y="1820" width="120" height="60" as="geometry" />
        </mxCell>
        <mxCell id="7t_8KM3C-EM3amEqB24O-40" value="" style="edgeStyle=orthogonalEdgeStyle;rounded=0;orthogonalLoop=1;jettySize=auto;html=1;" edge="1" parent="1" source="7t_8KM3C-EM3amEqB24O-41" target="7t_8KM3C-EM3amEqB24O-43">
          <mxGeometry relative="1" as="geometry" />
        </mxCell>
        <mxCell id="7t_8KM3C-EM3amEqB24O-41" value="input&lt;div&gt;nama sandal&amp;nbsp;&lt;/div&gt;&lt;div&gt;baru&lt;/div&gt;" style="shape=parallelogram;perimeter=parallelogramPerimeter;whiteSpace=wrap;html=1;fixedSize=1;strokeWidth=2;" vertex="1" parent="1">
          <mxGeometry x="1340" y="1820" width="120" height="60" as="geometry" />
        </mxCell>
        <mxCell id="7t_8KM3C-EM3amEqB24O-42" value="" style="edgeStyle=orthogonalEdgeStyle;rounded=0;orthogonalLoop=1;jettySize=auto;html=1;" edge="1" parent="1" source="7t_8KM3C-EM3amEqB24O-43" target="7t_8KM3C-EM3amEqB24O-45">
          <mxGeometry relative="1" as="geometry" />
        </mxCell>
        <mxCell id="7t_8KM3C-EM3amEqB24O-43" value="input&lt;div&gt;harga baru&lt;/div&gt;" style="shape=parallelogram;perimeter=parallelogramPerimeter;whiteSpace=wrap;html=1;fixedSize=1;strokeWidth=2;" vertex="1" parent="1">
          <mxGeometry x="1490" y="1820" width="120" height="60" as="geometry" />
        </mxCell>
        <mxCell id="7t_8KM3C-EM3amEqB24O-44" value="" style="edgeStyle=orthogonalEdgeStyle;rounded=0;orthogonalLoop=1;jettySize=auto;html=1;" edge="1" parent="1" source="7t_8KM3C-EM3amEqB24O-45" target="7t_8KM3C-EM3amEqB24O-47">
          <mxGeometry relative="1" as="geometry" />
        </mxCell>
        <mxCell id="7t_8KM3C-EM3amEqB24O-45" value="input&lt;div&gt;stok baru&lt;/div&gt;" style="shape=parallelogram;perimeter=parallelogramPerimeter;whiteSpace=wrap;html=1;fixedSize=1;strokeWidth=2;" vertex="1" parent="1">
          <mxGeometry x="1630" y="1820" width="120" height="60" as="geometry" />
        </mxCell>
        <mxCell id="7t_8KM3C-EM3amEqB24O-46" value="" style="edgeStyle=orthogonalEdgeStyle;rounded=0;orthogonalLoop=1;jettySize=auto;html=1;" edge="1" parent="1" source="7t_8KM3C-EM3amEqB24O-47" target="7t_8KM3C-EM3amEqB24O-48">
          <mxGeometry relative="1" as="geometry" />
        </mxCell>
        <mxCell id="7t_8KM3C-EM3amEqB24O-47" value="data_sandal" style="strokeWidth=2;html=1;shape=mxgraph.flowchart.database;whiteSpace=wrap;" vertex="1" parent="1">
          <mxGeometry x="1780" y="1815" width="70" height="70" as="geometry" />
        </mxCell>
        <mxCell id="7t_8KM3C-EM3amEqB24O-48" value="output&lt;div&gt;berhasil diedit&lt;/div&gt;" style="shape=parallelogram;perimeter=parallelogramPerimeter;whiteSpace=wrap;html=1;fixedSize=1;strokeWidth=2;" vertex="1" parent="1">
          <mxGeometry x="1880" y="1820" width="120" height="60" as="geometry" />
        </mxCell>
        <mxCell id="7t_8KM3C-EM3amEqB24O-49" value="" style="edgeStyle=orthogonalEdgeStyle;rounded=0;orthogonalLoop=1;jettySize=auto;html=1;" edge="1" parent="1" source="7t_8KM3C-EM3amEqB24O-53" target="7t_8KM3C-EM3amEqB24O-55">
          <mxGeometry relative="1" as="geometry" />
        </mxCell>
        <mxCell id="7t_8KM3C-EM3amEqB24O-50" value="true" style="edgeLabel;html=1;align=center;verticalAlign=middle;resizable=0;points=[];" vertex="1" connectable="0" parent="7t_8KM3C-EM3amEqB24O-49">
          <mxGeometry x="-0.2" y="-1" relative="1" as="geometry">
            <mxPoint as="offset" />
          </mxGeometry>
        </mxCell>
        <mxCell id="7t_8KM3C-EM3amEqB24O-51" value="" style="edgeStyle=orthogonalEdgeStyle;rounded=0;orthogonalLoop=1;jettySize=auto;html=1;" edge="1" parent="1" source="7t_8KM3C-EM3amEqB24O-53" target="7t_8KM3C-EM3amEqB24O-74">
          <mxGeometry relative="1" as="geometry" />
        </mxCell>
        <mxCell id="7t_8KM3C-EM3amEqB24O-52" value="false" style="edgeLabel;html=1;align=center;verticalAlign=middle;resizable=0;points=[];" vertex="1" connectable="0" parent="7t_8KM3C-EM3amEqB24O-51">
          <mxGeometry x="-0.2088" y="-3" relative="1" as="geometry">
            <mxPoint as="offset" />
          </mxGeometry>
        </mxCell>
        <mxCell id="7t_8KM3C-EM3amEqB24O-53" value="opsi 4" style="rhombus;whiteSpace=wrap;html=1;strokeWidth=2;" vertex="1" parent="1">
          <mxGeometry x="1055" y="1970" width="80" height="80" as="geometry" />
        </mxCell>
        <mxCell id="7t_8KM3C-EM3amEqB24O-54" value="" style="edgeStyle=orthogonalEdgeStyle;rounded=0;orthogonalLoop=1;jettySize=auto;html=1;" edge="1" parent="1" source="7t_8KM3C-EM3amEqB24O-55" target="7t_8KM3C-EM3amEqB24O-56">
          <mxGeometry relative="1" as="geometry" />
        </mxCell>
        <mxCell id="7t_8KM3C-EM3amEqB24O-55" value="input&amp;nbsp;&lt;div&gt;masukkan nomor&lt;/div&gt;&lt;div&gt;sandal&lt;/div&gt;" style="shape=parallelogram;perimeter=parallelogramPerimeter;whiteSpace=wrap;html=1;fixedSize=1;strokeWidth=2;" vertex="1" parent="1">
          <mxGeometry x="1180" y="1980" width="120" height="60" as="geometry" />
        </mxCell>
        <mxCell id="7t_8KM3C-EM3amEqB24O-56" value="output&amp;nbsp;&lt;div&gt;sandal berhasil dihapus&lt;/div&gt;" style="shape=parallelogram;perimeter=parallelogramPerimeter;whiteSpace=wrap;html=1;fixedSize=1;strokeWidth=2;" vertex="1" parent="1">
          <mxGeometry x="1380" y="1980" width="120" height="60" as="geometry" />
        </mxCell>
        <mxCell id="7t_8KM3C-EM3amEqB24O-57" value="" style="edgeStyle=orthogonalEdgeStyle;rounded=0;orthogonalLoop=1;jettySize=auto;html=1;" edge="1" parent="1" source="7t_8KM3C-EM3amEqB24O-60" target="7t_8KM3C-EM3amEqB24O-62">
          <mxGeometry relative="1" as="geometry" />
        </mxCell>
        <mxCell id="7t_8KM3C-EM3amEqB24O-58" value="true" style="edgeLabel;html=1;align=center;verticalAlign=middle;resizable=0;points=[];" vertex="1" connectable="0" parent="7t_8KM3C-EM3amEqB24O-57">
          <mxGeometry x="-0.2161" relative="1" as="geometry">
            <mxPoint as="offset" />
          </mxGeometry>
        </mxCell>
        <mxCell id="7t_8KM3C-EM3amEqB24O-59" value="" style="edgeStyle=orthogonalEdgeStyle;rounded=0;orthogonalLoop=1;jettySize=auto;html=1;" edge="1" parent="1" source="7t_8KM3C-EM3amEqB24O-60" target="7t_8KM3C-EM3amEqB24O-64">
          <mxGeometry relative="1" as="geometry" />
        </mxCell>
        <mxCell id="7t_8KM3C-EM3amEqB24O-60" value="opsi 6" style="rhombus;whiteSpace=wrap;html=1;strokeWidth=2;" vertex="1" parent="1">
          <mxGeometry x="1055" y="2270" width="80" height="80" as="geometry" />
        </mxCell>
        <mxCell id="7t_8KM3C-EM3amEqB24O-61" value="" style="edgeStyle=orthogonalEdgeStyle;rounded=0;orthogonalLoop=1;jettySize=auto;html=1;" edge="1" parent="1" source="7t_8KM3C-EM3amEqB24O-62" target="7t_8KM3C-EM3amEqB24O-63">
          <mxGeometry relative="1" as="geometry" />
        </mxCell>
        <mxCell id="7t_8KM3C-EM3amEqB24O-62" value="output&lt;div&gt;berhasil logout&lt;/div&gt;" style="shape=parallelogram;perimeter=parallelogramPerimeter;whiteSpace=wrap;html=1;fixedSize=1;strokeWidth=2;" vertex="1" parent="1">
          <mxGeometry x="1185" y="2280" width="120" height="60" as="geometry" />
        </mxCell>
        <mxCell id="7t_8KM3C-EM3amEqB24O-63" value="" style="ellipse;whiteSpace=wrap;html=1;strokeWidth=2;fillColor=#6d8764;strokeColor=#3A5431;fontColor=#ffffff;" vertex="1" parent="1">
          <mxGeometry x="1360" y="2285" width="50" height="50" as="geometry" />
        </mxCell>
        <mxCell id="7t_8KM3C-EM3amEqB24O-64" value="&lt;div&gt;output&lt;/div&gt;input tidak valid" style="shape=parallelogram;perimeter=parallelogramPerimeter;whiteSpace=wrap;html=1;fixedSize=1;strokeWidth=2;" vertex="1" parent="1">
          <mxGeometry x="1035" y="2430" width="120" height="60" as="geometry" />
        </mxCell>
        <mxCell id="7t_8KM3C-EM3amEqB24O-65" value="" style="endArrow=classic;html=1;rounded=0;exitX=1;exitY=0.5;exitDx=0;exitDy=0;entryX=1;entryY=0.5;entryDx=0;entryDy=0;" edge="1" parent="1" source="7t_8KM3C-EM3amEqB24O-64" target="7t_8KM3C-EM3amEqB24O-4">
          <mxGeometry width="50" height="50" relative="1" as="geometry">
            <mxPoint x="1190" y="2260" as="sourcePoint" />
            <mxPoint x="2060" y="1300" as="targetPoint" />
            <Array as="points">
              <mxPoint x="2080" y="2460" />
              <mxPoint x="2080" y="1310" />
            </Array>
          </mxGeometry>
        </mxCell>
        <mxCell id="7t_8KM3C-EM3amEqB24O-66" value="" style="endArrow=classic;html=1;rounded=0;exitX=1;exitY=0.75;exitDx=0;exitDy=0;" edge="1" parent="1" source="7t_8KM3C-EM3amEqB24O-17">
          <mxGeometry width="50" height="50" relative="1" as="geometry">
            <mxPoint x="1630" y="1690" as="sourcePoint" />
            <mxPoint x="2080" y="1477" as="targetPoint" />
          </mxGeometry>
        </mxCell>
        <mxCell id="7t_8KM3C-EM3amEqB24O-67" value="" style="endArrow=classic;html=1;rounded=0;exitX=1;exitY=0.75;exitDx=0;exitDy=0;" edge="1" parent="1">
          <mxGeometry width="50" height="50" relative="1" as="geometry">
            <mxPoint x="1410" y="1559.6" as="sourcePoint" />
            <mxPoint x="2079" y="1559.6" as="targetPoint" />
          </mxGeometry>
        </mxCell>
        <mxCell id="7t_8KM3C-EM3amEqB24O-68" value="" style="edgeStyle=orthogonalEdgeStyle;rounded=0;orthogonalLoop=1;jettySize=auto;html=1;exitX=1;exitY=0.5;exitDx=0;exitDy=0;" edge="1" parent="1" source="7t_8KM3C-EM3amEqB24O-32">
          <mxGeometry relative="1" as="geometry">
            <mxPoint x="1975" y="1739.6" as="sourcePoint" />
            <mxPoint x="2080" y="1740" as="targetPoint" />
          </mxGeometry>
        </mxCell>
        <mxCell id="7t_8KM3C-EM3amEqB24O-69" value="" style="edgeStyle=orthogonalEdgeStyle;rounded=0;orthogonalLoop=1;jettySize=auto;html=1;" edge="1" parent="1">
          <mxGeometry relative="1" as="geometry">
            <mxPoint x="1990" y="1849.6" as="sourcePoint" />
            <mxPoint x="2080" y="1850" as="targetPoint" />
          </mxGeometry>
        </mxCell>
        <mxCell id="7t_8KM3C-EM3amEqB24O-70" value="" style="edgeStyle=orthogonalEdgeStyle;rounded=0;orthogonalLoop=1;jettySize=auto;html=1;" edge="1" parent="1">
          <mxGeometry relative="1" as="geometry">
            <mxPoint x="1490" y="2009.6" as="sourcePoint" />
            <mxPoint x="2080" y="2010" as="targetPoint" />
          </mxGeometry>
        </mxCell>
        <mxCell id="7t_8KM3C-EM3amEqB24O-71" value="" style="edgeStyle=orthogonalEdgeStyle;rounded=0;orthogonalLoop=1;jettySize=auto;html=1;" edge="1" parent="1" source="7t_8KM3C-EM3amEqB24O-74">
          <mxGeometry relative="1" as="geometry">
            <mxPoint x="1190" y="2170" as="targetPoint" />
          </mxGeometry>
        </mxCell>
        <mxCell id="7t_8KM3C-EM3amEqB24O-72" value="true" style="edgeLabel;html=1;align=center;verticalAlign=middle;resizable=0;points=[];" vertex="1" connectable="0" parent="7t_8KM3C-EM3amEqB24O-71">
          <mxGeometry x="-0.1429" relative="1" as="geometry">
            <mxPoint as="offset" />
          </mxGeometry>
        </mxCell>
        <mxCell id="7t_8KM3C-EM3amEqB24O-73" value="" style="edgeStyle=orthogonalEdgeStyle;rounded=0;orthogonalLoop=1;jettySize=auto;html=1;" edge="1" parent="1" source="7t_8KM3C-EM3amEqB24O-74" target="7t_8KM3C-EM3amEqB24O-60">
          <mxGeometry relative="1" as="geometry" />
        </mxCell>
        <mxCell id="7t_8KM3C-EM3amEqB24O-74" value="opsi 5" style="rhombus;whiteSpace=wrap;html=1;strokeWidth=2;" vertex="1" parent="1">
          <mxGeometry x="1055" y="2130" width="80" height="80" as="geometry" />
        </mxCell>
        <mxCell id="7t_8KM3C-EM3amEqB24O-75" value=" " style="ellipse;whiteSpace=wrap;html=1;strokeWidth=2;fillColor=#a0522d;strokeColor=#6D1F00;fontColor=#ffffff;" vertex="1" parent="1">
          <mxGeometry x="1190" y="2145" width="50" height="50" as="geometry" />
        </mxCell>
      </root>
    </mxGraphModel>
  </diagram>
  <diagram id="t3hswHjqCR0vPLP3RFTV" name="Menu user">
    <mxGraphModel dx="-1676" dy="473" grid="1" gridSize="10" guides="1" tooltips="1" connect="1" arrows="1" fold="1" page="1" pageScale="1" pageWidth="850" pageHeight="1100" math="0" shadow="0">
      <root>
        <mxCell id="0" />
        <mxCell id="1" parent="0" />
        <mxCell id="Ikc_Q_AK-7FjT6aPCm2P-1" value="" style="edgeStyle=orthogonalEdgeStyle;rounded=0;orthogonalLoop=1;jettySize=auto;html=1;" edge="1" parent="1" source="Ikc_Q_AK-7FjT6aPCm2P-2" target="Ikc_Q_AK-7FjT6aPCm2P-4">
          <mxGeometry relative="1" as="geometry" />
        </mxCell>
        <mxCell id="Ikc_Q_AK-7FjT6aPCm2P-2" value="" style="ellipse;whiteSpace=wrap;html=1;strokeWidth=2;fillColor=#76608a;strokeColor=#432D57;fontColor=#ffffff;" vertex="1" parent="1">
          <mxGeometry x="2620" y="30" width="50" height="50" as="geometry" />
        </mxCell>
        <mxCell id="Ikc_Q_AK-7FjT6aPCm2P-3" value="" style="edgeStyle=orthogonalEdgeStyle;rounded=0;orthogonalLoop=1;jettySize=auto;html=1;" edge="1" parent="1" source="Ikc_Q_AK-7FjT6aPCm2P-4" target="Ikc_Q_AK-7FjT6aPCm2P-9">
          <mxGeometry relative="1" as="geometry" />
        </mxCell>
        <mxCell id="Ikc_Q_AK-7FjT6aPCm2P-4" value="output&lt;div&gt;&lt;div&gt;1. Lihat Daftar Sandal&lt;/div&gt;&lt;div&gt;2. Beli Sandal&lt;/div&gt;&lt;div&gt;3.Lihat Detail Sandal&lt;/div&gt;&lt;div&gt;4. Logout&lt;/div&gt;&lt;/div&gt;" style="shape=parallelogram;perimeter=parallelogramPerimeter;whiteSpace=wrap;html=1;fixedSize=1;strokeWidth=2;" vertex="1" parent="1">
          <mxGeometry x="2570" y="150" width="150" height="80" as="geometry" />
        </mxCell>
        <mxCell id="Ikc_Q_AK-7FjT6aPCm2P-5" value="" style="edgeStyle=orthogonalEdgeStyle;rounded=0;orthogonalLoop=1;jettySize=auto;html=1;" edge="1" parent="1" source="Ikc_Q_AK-7FjT6aPCm2P-9" target="Ikc_Q_AK-7FjT6aPCm2P-11">
          <mxGeometry relative="1" as="geometry" />
        </mxCell>
        <mxCell id="Ikc_Q_AK-7FjT6aPCm2P-6" value="true" style="edgeLabel;html=1;align=center;verticalAlign=middle;resizable=0;points=[];" vertex="1" connectable="0" parent="Ikc_Q_AK-7FjT6aPCm2P-5">
          <mxGeometry x="-0.0588" y="-1" relative="1" as="geometry">
            <mxPoint as="offset" />
          </mxGeometry>
        </mxCell>
        <mxCell id="Ikc_Q_AK-7FjT6aPCm2P-7" value="" style="edgeStyle=orthogonalEdgeStyle;rounded=0;orthogonalLoop=1;jettySize=auto;html=1;" edge="1" parent="1" source="Ikc_Q_AK-7FjT6aPCm2P-9" target="Ikc_Q_AK-7FjT6aPCm2P-17">
          <mxGeometry relative="1" as="geometry" />
        </mxCell>
        <mxCell id="Ikc_Q_AK-7FjT6aPCm2P-8" value="false" style="edgeLabel;html=1;align=center;verticalAlign=middle;resizable=0;points=[];" vertex="1" connectable="0" parent="Ikc_Q_AK-7FjT6aPCm2P-7">
          <mxGeometry x="-0.24" y="-2" relative="1" as="geometry">
            <mxPoint as="offset" />
          </mxGeometry>
        </mxCell>
        <mxCell id="Ikc_Q_AK-7FjT6aPCm2P-9" value="opsi 1" style="rhombus;whiteSpace=wrap;html=1;strokeWidth=2;" vertex="1" parent="1">
          <mxGeometry x="2605" y="310" width="80" height="80" as="geometry" />
        </mxCell>
        <mxCell id="Ikc_Q_AK-7FjT6aPCm2P-10" value="" style="edgeStyle=orthogonalEdgeStyle;rounded=0;orthogonalLoop=1;jettySize=auto;html=1;" edge="1" parent="1" source="Ikc_Q_AK-7FjT6aPCm2P-11" target="Ikc_Q_AK-7FjT6aPCm2P-12">
          <mxGeometry relative="1" as="geometry" />
        </mxCell>
        <mxCell id="Ikc_Q_AK-7FjT6aPCm2P-11" value="data_sandal" style="strokeWidth=2;html=1;shape=mxgraph.flowchart.database;whiteSpace=wrap;" vertex="1" parent="1">
          <mxGeometry x="2740" y="315" width="70" height="70" as="geometry" />
        </mxCell>
        <mxCell id="Ikc_Q_AK-7FjT6aPCm2P-12" value="output&lt;div&gt;menampilkan&amp;nbsp;&lt;/div&gt;&lt;div&gt;data_sandal&lt;/div&gt;" style="shape=parallelogram;perimeter=parallelogramPerimeter;whiteSpace=wrap;html=1;fixedSize=1;strokeWidth=2;" vertex="1" parent="1">
          <mxGeometry x="2870" y="320" width="120" height="60" as="geometry" />
        </mxCell>
        <mxCell id="Ikc_Q_AK-7FjT6aPCm2P-13" value="" style="edgeStyle=orthogonalEdgeStyle;rounded=0;orthogonalLoop=1;jettySize=auto;html=1;" edge="1" parent="1" source="Ikc_Q_AK-7FjT6aPCm2P-17" target="Ikc_Q_AK-7FjT6aPCm2P-19">
          <mxGeometry relative="1" as="geometry" />
        </mxCell>
        <mxCell id="Ikc_Q_AK-7FjT6aPCm2P-14" value="true" style="edgeLabel;html=1;align=center;verticalAlign=middle;resizable=0;points=[];" vertex="1" connectable="0" parent="Ikc_Q_AK-7FjT6aPCm2P-13">
          <mxGeometry x="-0.0252" y="-1" relative="1" as="geometry">
            <mxPoint as="offset" />
          </mxGeometry>
        </mxCell>
        <mxCell id="Ikc_Q_AK-7FjT6aPCm2P-15" value="" style="edgeStyle=orthogonalEdgeStyle;rounded=0;orthogonalLoop=1;jettySize=auto;html=1;" edge="1" parent="1" source="Ikc_Q_AK-7FjT6aPCm2P-17" target="Ikc_Q_AK-7FjT6aPCm2P-41">
          <mxGeometry relative="1" as="geometry" />
        </mxCell>
        <mxCell id="Ikc_Q_AK-7FjT6aPCm2P-16" value="false" style="edgeLabel;html=1;align=center;verticalAlign=middle;resizable=0;points=[];" vertex="1" connectable="0" parent="Ikc_Q_AK-7FjT6aPCm2P-15">
          <mxGeometry x="-0.1846" y="1" relative="1" as="geometry">
            <mxPoint as="offset" />
          </mxGeometry>
        </mxCell>
        <mxCell id="Ikc_Q_AK-7FjT6aPCm2P-17" value="opsi 2" style="rhombus;whiteSpace=wrap;html=1;strokeWidth=2;" vertex="1" parent="1">
          <mxGeometry x="2605" y="440" width="80" height="80" as="geometry" />
        </mxCell>
        <mxCell id="Ikc_Q_AK-7FjT6aPCm2P-18" value="" style="edgeStyle=orthogonalEdgeStyle;rounded=0;orthogonalLoop=1;jettySize=auto;html=1;" edge="1" parent="1" source="Ikc_Q_AK-7FjT6aPCm2P-19" target="Ikc_Q_AK-7FjT6aPCm2P-21">
          <mxGeometry relative="1" as="geometry" />
        </mxCell>
        <mxCell id="Ikc_Q_AK-7FjT6aPCm2P-19" value="input&lt;div&gt;masukkan&lt;/div&gt;&lt;div&gt;nomor sandal&lt;/div&gt;" style="shape=parallelogram;perimeter=parallelogramPerimeter;whiteSpace=wrap;html=1;fixedSize=1;strokeWidth=2;" vertex="1" parent="1">
          <mxGeometry x="2745" y="450" width="120" height="60" as="geometry" />
        </mxCell>
        <mxCell id="Ikc_Q_AK-7FjT6aPCm2P-20" value="" style="edgeStyle=orthogonalEdgeStyle;rounded=0;orthogonalLoop=1;jettySize=auto;html=1;" edge="1" parent="1" source="Ikc_Q_AK-7FjT6aPCm2P-21" target="Ikc_Q_AK-7FjT6aPCm2P-24">
          <mxGeometry relative="1" as="geometry" />
        </mxCell>
        <mxCell id="Ikc_Q_AK-7FjT6aPCm2P-21" value="input&lt;div&gt;jumlah yang dibeli&lt;/div&gt;" style="shape=parallelogram;perimeter=parallelogramPerimeter;whiteSpace=wrap;html=1;fixedSize=1;strokeWidth=2;" vertex="1" parent="1">
          <mxGeometry x="2910" y="450" width="120" height="60" as="geometry" />
        </mxCell>
        <mxCell id="Ikc_Q_AK-7FjT6aPCm2P-22" value="output&lt;div&gt;berhasil dibeli&lt;/div&gt;" style="shape=parallelogram;perimeter=parallelogramPerimeter;whiteSpace=wrap;html=1;fixedSize=1;strokeWidth=2;" vertex="1" parent="1">
          <mxGeometry x="3190" y="450" width="120" height="60" as="geometry" />
        </mxCell>
        <mxCell id="Ikc_Q_AK-7FjT6aPCm2P-23" value="" style="edgeStyle=orthogonalEdgeStyle;rounded=0;orthogonalLoop=1;jettySize=auto;html=1;" edge="1" parent="1" source="Ikc_Q_AK-7FjT6aPCm2P-24" target="Ikc_Q_AK-7FjT6aPCm2P-22">
          <mxGeometry relative="1" as="geometry" />
        </mxCell>
        <mxCell id="Ikc_Q_AK-7FjT6aPCm2P-24" value="data_sandal" style="strokeWidth=2;html=1;shape=mxgraph.flowchart.database;whiteSpace=wrap;" vertex="1" parent="1">
          <mxGeometry x="3070" y="445" width="70" height="70" as="geometry" />
        </mxCell>
        <mxCell id="Ikc_Q_AK-7FjT6aPCm2P-25" value="" style="edgeStyle=orthogonalEdgeStyle;rounded=0;orthogonalLoop=1;jettySize=auto;html=1;" edge="1" parent="1" source="Ikc_Q_AK-7FjT6aPCm2P-29" target="Ikc_Q_AK-7FjT6aPCm2P-31">
          <mxGeometry relative="1" as="geometry" />
        </mxCell>
        <mxCell id="Ikc_Q_AK-7FjT6aPCm2P-26" value="true" style="edgeLabel;html=1;align=center;verticalAlign=middle;resizable=0;points=[];" vertex="1" connectable="0" parent="Ikc_Q_AK-7FjT6aPCm2P-25">
          <mxGeometry x="-0.0924" y="3" relative="1" as="geometry">
            <mxPoint as="offset" />
          </mxGeometry>
        </mxCell>
        <mxCell id="Ikc_Q_AK-7FjT6aPCm2P-27" value="" style="edgeStyle=orthogonalEdgeStyle;rounded=0;orthogonalLoop=1;jettySize=auto;html=1;" edge="1" parent="1" source="Ikc_Q_AK-7FjT6aPCm2P-29" target="Ikc_Q_AK-7FjT6aPCm2P-32">
          <mxGeometry relative="1" as="geometry" />
        </mxCell>
        <mxCell id="Ikc_Q_AK-7FjT6aPCm2P-28" value="false" style="edgeLabel;html=1;align=center;verticalAlign=middle;resizable=0;points=[];" vertex="1" connectable="0" parent="Ikc_Q_AK-7FjT6aPCm2P-27">
          <mxGeometry x="-0.1007" y="2" relative="1" as="geometry">
            <mxPoint as="offset" />
          </mxGeometry>
        </mxCell>
        <mxCell id="Ikc_Q_AK-7FjT6aPCm2P-29" value="opsi 4" style="rhombus;whiteSpace=wrap;html=1;strokeWidth=2;" vertex="1" parent="1">
          <mxGeometry x="2605" y="727.73" width="80" height="80" as="geometry" />
        </mxCell>
        <mxCell id="Ikc_Q_AK-7FjT6aPCm2P-30" value="" style="edgeStyle=orthogonalEdgeStyle;rounded=0;orthogonalLoop=1;jettySize=auto;html=1;" edge="1" parent="1" source="Ikc_Q_AK-7FjT6aPCm2P-31" target="Ikc_Q_AK-7FjT6aPCm2P-33">
          <mxGeometry relative="1" as="geometry" />
        </mxCell>
        <mxCell id="Ikc_Q_AK-7FjT6aPCm2P-31" value="output&lt;div&gt;berhasil logout&lt;/div&gt;" style="shape=parallelogram;perimeter=parallelogramPerimeter;whiteSpace=wrap;html=1;fixedSize=1;strokeWidth=2;" vertex="1" parent="1">
          <mxGeometry x="2745" y="737.73" width="120" height="60" as="geometry" />
        </mxCell>
        <mxCell id="Ikc_Q_AK-7FjT6aPCm2P-32" value="output&lt;div&gt;input tidak valid&lt;/div&gt;" style="shape=parallelogram;perimeter=parallelogramPerimeter;whiteSpace=wrap;html=1;fixedSize=1;strokeWidth=2;" vertex="1" parent="1">
          <mxGeometry x="2585" y="897.73" width="120" height="60" as="geometry" />
        </mxCell>
        <mxCell id="Ikc_Q_AK-7FjT6aPCm2P-33" value="" style="ellipse;whiteSpace=wrap;html=1;strokeWidth=2;fillColor=#6d8764;strokeColor=#3A5431;fontColor=#ffffff;" vertex="1" parent="1">
          <mxGeometry x="2905" y="742.73" width="50" height="50" as="geometry" />
        </mxCell>
        <mxCell id="Ikc_Q_AK-7FjT6aPCm2P-34" value=" " style="endArrow=classic;html=1;rounded=0;exitX=1;exitY=0.5;exitDx=0;exitDy=0;entryX=1;entryY=0.5;entryDx=0;entryDy=0;" edge="1" parent="1" source="Ikc_Q_AK-7FjT6aPCm2P-32" target="Ikc_Q_AK-7FjT6aPCm2P-4">
          <mxGeometry width="50" height="50" relative="1" as="geometry">
            <mxPoint x="2850" y="850" as="sourcePoint" />
            <mxPoint x="3360" y="150" as="targetPoint" />
            <Array as="points">
              <mxPoint x="3360" y="920" />
              <mxPoint x="3360" y="190" />
            </Array>
          </mxGeometry>
        </mxCell>
        <mxCell id="Ikc_Q_AK-7FjT6aPCm2P-35" value="" style="endArrow=classic;html=1;rounded=0;exitX=1;exitY=0.5;exitDx=0;exitDy=0;" edge="1" parent="1" source="Ikc_Q_AK-7FjT6aPCm2P-12">
          <mxGeometry width="50" height="50" relative="1" as="geometry">
            <mxPoint x="3290" y="410" as="sourcePoint" />
            <mxPoint x="3360" y="350" as="targetPoint" />
          </mxGeometry>
        </mxCell>
        <mxCell id="Ikc_Q_AK-7FjT6aPCm2P-36" value="" style="endArrow=classic;html=1;rounded=0;exitX=1;exitY=0.5;exitDx=0;exitDy=0;" edge="1" parent="1" source="Ikc_Q_AK-7FjT6aPCm2P-22">
          <mxGeometry width="50" height="50" relative="1" as="geometry">
            <mxPoint x="3180" y="400" as="sourcePoint" />
            <mxPoint x="3360" y="480" as="targetPoint" />
          </mxGeometry>
        </mxCell>
        <mxCell id="Ikc_Q_AK-7FjT6aPCm2P-37" value="" style="edgeStyle=orthogonalEdgeStyle;rounded=0;orthogonalLoop=1;jettySize=auto;html=1;" edge="1" parent="1" source="Ikc_Q_AK-7FjT6aPCm2P-41" target="Ikc_Q_AK-7FjT6aPCm2P-43">
          <mxGeometry relative="1" as="geometry" />
        </mxCell>
        <mxCell id="Ikc_Q_AK-7FjT6aPCm2P-38" value="true" style="edgeLabel;html=1;align=center;verticalAlign=middle;resizable=0;points=[];" vertex="1" connectable="0" parent="Ikc_Q_AK-7FjT6aPCm2P-37">
          <mxGeometry x="-0.0805" y="-1" relative="1" as="geometry">
            <mxPoint as="offset" />
          </mxGeometry>
        </mxCell>
        <mxCell id="Ikc_Q_AK-7FjT6aPCm2P-39" value="" style="edgeStyle=orthogonalEdgeStyle;rounded=0;orthogonalLoop=1;jettySize=auto;html=1;" edge="1" parent="1" source="Ikc_Q_AK-7FjT6aPCm2P-41" target="Ikc_Q_AK-7FjT6aPCm2P-29">
          <mxGeometry relative="1" as="geometry" />
        </mxCell>
        <mxCell id="Ikc_Q_AK-7FjT6aPCm2P-40" value="false" style="edgeLabel;html=1;align=center;verticalAlign=middle;resizable=0;points=[];" vertex="1" connectable="0" parent="Ikc_Q_AK-7FjT6aPCm2P-39">
          <mxGeometry x="-0.1551" y="-3" relative="1" as="geometry">
            <mxPoint as="offset" />
          </mxGeometry>
        </mxCell>
        <mxCell id="Ikc_Q_AK-7FjT6aPCm2P-41" value="opsi 3" style="rhombus;whiteSpace=wrap;html=1;strokeWidth=2;" vertex="1" parent="1">
          <mxGeometry x="2605" y="585" width="80" height="80" as="geometry" />
        </mxCell>
        <mxCell id="Ikc_Q_AK-7FjT6aPCm2P-42" value="" style="edgeStyle=orthogonalEdgeStyle;rounded=0;orthogonalLoop=1;jettySize=auto;html=1;" edge="1" parent="1" source="Ikc_Q_AK-7FjT6aPCm2P-43" target="Ikc_Q_AK-7FjT6aPCm2P-45">
          <mxGeometry relative="1" as="geometry" />
        </mxCell>
        <mxCell id="Ikc_Q_AK-7FjT6aPCm2P-43" value="data_sandal" style="strokeWidth=2;html=1;shape=mxgraph.flowchart.database;whiteSpace=wrap;" vertex="1" parent="1">
          <mxGeometry x="2740" y="590" width="70" height="70" as="geometry" />
        </mxCell>
        <mxCell id="Ikc_Q_AK-7FjT6aPCm2P-44" value="" style="edgeStyle=orthogonalEdgeStyle;rounded=0;orthogonalLoop=1;jettySize=auto;html=1;" edge="1" parent="1" source="Ikc_Q_AK-7FjT6aPCm2P-45" target="Ikc_Q_AK-7FjT6aPCm2P-47">
          <mxGeometry relative="1" as="geometry" />
        </mxCell>
        <mxCell id="Ikc_Q_AK-7FjT6aPCm2P-45" value="output&lt;div&gt;menampilkan&amp;nbsp;&lt;/div&gt;&lt;div&gt;data_sandal&lt;/div&gt;" style="shape=parallelogram;perimeter=parallelogramPerimeter;whiteSpace=wrap;html=1;fixedSize=1;strokeWidth=2;" vertex="1" parent="1">
          <mxGeometry x="2865" y="595" width="120" height="60" as="geometry" />
        </mxCell>
        <mxCell id="Ikc_Q_AK-7FjT6aPCm2P-46" value="" style="edgeStyle=orthogonalEdgeStyle;rounded=0;orthogonalLoop=1;jettySize=auto;html=1;" edge="1" parent="1" source="Ikc_Q_AK-7FjT6aPCm2P-47" target="Ikc_Q_AK-7FjT6aPCm2P-48">
          <mxGeometry relative="1" as="geometry" />
        </mxCell>
        <mxCell id="Ikc_Q_AK-7FjT6aPCm2P-47" value="input&lt;div&gt;nomor sandal&lt;/div&gt;" style="shape=parallelogram;perimeter=parallelogramPerimeter;whiteSpace=wrap;html=1;fixedSize=1;strokeWidth=2;" vertex="1" parent="1">
          <mxGeometry x="3020" y="595" width="120" height="60" as="geometry" />
        </mxCell>
        <mxCell id="Ikc_Q_AK-7FjT6aPCm2P-48" value="output&lt;div&gt;menampilkan&amp;nbsp;&lt;/div&gt;&lt;div&gt;detail&amp;nbsp;&lt;/div&gt;&lt;div&gt;data_sandal&lt;/div&gt;" style="shape=parallelogram;perimeter=parallelogramPerimeter;whiteSpace=wrap;html=1;fixedSize=1;strokeWidth=2;" vertex="1" parent="1">
          <mxGeometry x="3180" y="595" width="120" height="60" as="geometry" />
        </mxCell>
        <mxCell id="Ikc_Q_AK-7FjT6aPCm2P-49" value="" style="edgeStyle=orthogonalEdgeStyle;rounded=0;orthogonalLoop=1;jettySize=auto;html=1;" edge="1" parent="1">
          <mxGeometry relative="1" as="geometry">
            <mxPoint x="3290" y="624.64" as="sourcePoint" />
            <mxPoint x="3360" y="625" as="targetPoint" />
          </mxGeometry>
        </mxCell>
      </root>
    </mxGraphModel>
  </diagram>
  <diagram id="CAG5Z8SwFZMPx1JkGR26" name="Page-7">
    <mxGraphModel dx="-1304" dy="-370" grid="1" gridSize="10" guides="1" tooltips="1" connect="1" arrows="1" fold="1" page="1" pageScale="1" pageWidth="850" pageHeight="1100" math="0" shadow="0">
      <root>
        <mxCell id="0" />
        <mxCell id="1" parent="0" />
        <mxCell id="ImeZ1fvZ26owQCZtDUsC-1" value="" style="edgeStyle=orthogonalEdgeStyle;rounded=0;orthogonalLoop=1;jettySize=auto;html=1;" edge="1" parent="1" source="ImeZ1fvZ26owQCZtDUsC-2" target="ImeZ1fvZ26owQCZtDUsC-4">
          <mxGeometry relative="1" as="geometry" />
        </mxCell>
        <mxCell id="ImeZ1fvZ26owQCZtDUsC-2" value=" " style="ellipse;whiteSpace=wrap;html=1;strokeWidth=2;fillColor=#a0522d;strokeColor=#6D1F00;fontColor=#ffffff;" vertex="1" parent="1">
          <mxGeometry x="2680" y="1160" width="50" height="50" as="geometry" />
        </mxCell>
        <mxCell id="ImeZ1fvZ26owQCZtDUsC-3" value="" style="edgeStyle=orthogonalEdgeStyle;rounded=0;orthogonalLoop=1;jettySize=auto;html=1;" edge="1" parent="1" source="ImeZ1fvZ26owQCZtDUsC-4" target="ImeZ1fvZ26owQCZtDUsC-9">
          <mxGeometry relative="1" as="geometry" />
        </mxCell>
        <mxCell id="ImeZ1fvZ26owQCZtDUsC-4" value="output&lt;div&gt;&lt;div&gt;1. Urutkan berdasarkan nama&amp;nbsp;&lt;/div&gt;&lt;div&gt;2. Urutkan berdasarkan harga&amp;nbsp;&lt;/div&gt;&lt;div&gt;3. Urutkan berdasarkan stok&amp;nbsp;&amp;nbsp;&lt;/div&gt;&lt;div&gt;4. Kembali&lt;/div&gt;&lt;/div&gt;" style="shape=parallelogram;perimeter=parallelogramPerimeter;whiteSpace=wrap;html=1;fixedSize=1;strokeWidth=2;" vertex="1" parent="1">
          <mxGeometry x="2605" y="1280" width="200" height="110" as="geometry" />
        </mxCell>
        <mxCell id="ImeZ1fvZ26owQCZtDUsC-5" value="" style="edgeStyle=orthogonalEdgeStyle;rounded=0;orthogonalLoop=1;jettySize=auto;html=1;" edge="1" parent="1" source="ImeZ1fvZ26owQCZtDUsC-9" target="ImeZ1fvZ26owQCZtDUsC-11">
          <mxGeometry relative="1" as="geometry" />
        </mxCell>
        <mxCell id="ImeZ1fvZ26owQCZtDUsC-6" value="true" style="edgeLabel;html=1;align=center;verticalAlign=middle;resizable=0;points=[];" vertex="1" connectable="0" parent="ImeZ1fvZ26owQCZtDUsC-5">
          <mxGeometry x="-0.0778" y="2" relative="1" as="geometry">
            <mxPoint as="offset" />
          </mxGeometry>
        </mxCell>
        <mxCell id="ImeZ1fvZ26owQCZtDUsC-7" value="" style="edgeStyle=orthogonalEdgeStyle;rounded=0;orthogonalLoop=1;jettySize=auto;html=1;" edge="1" parent="1" source="ImeZ1fvZ26owQCZtDUsC-9" target="ImeZ1fvZ26owQCZtDUsC-19">
          <mxGeometry relative="1" as="geometry" />
        </mxCell>
        <mxCell id="ImeZ1fvZ26owQCZtDUsC-8" value="false" style="edgeLabel;html=1;align=center;verticalAlign=middle;resizable=0;points=[];" vertex="1" connectable="0" parent="ImeZ1fvZ26owQCZtDUsC-7">
          <mxGeometry x="-0.0333" y="2" relative="1" as="geometry">
            <mxPoint as="offset" />
          </mxGeometry>
        </mxCell>
        <mxCell id="ImeZ1fvZ26owQCZtDUsC-9" value="opsi 1" style="rhombus;whiteSpace=wrap;html=1;strokeWidth=2;" vertex="1" parent="1">
          <mxGeometry x="2665" y="1485" width="80" height="80" as="geometry" />
        </mxCell>
        <mxCell id="ImeZ1fvZ26owQCZtDUsC-10" value="" style="edgeStyle=orthogonalEdgeStyle;rounded=0;orthogonalLoop=1;jettySize=auto;html=1;" edge="1" parent="1" source="ImeZ1fvZ26owQCZtDUsC-11" target="ImeZ1fvZ26owQCZtDUsC-13">
          <mxGeometry relative="1" as="geometry" />
        </mxCell>
        <mxCell id="ImeZ1fvZ26owQCZtDUsC-11" value="data_sandal" style="strokeWidth=2;html=1;shape=mxgraph.flowchart.database;whiteSpace=wrap;" vertex="1" parent="1">
          <mxGeometry x="2805" y="1490" width="70" height="70" as="geometry" />
        </mxCell>
        <mxCell id="ImeZ1fvZ26owQCZtDUsC-12" value="" style="edgeStyle=orthogonalEdgeStyle;rounded=0;orthogonalLoop=1;jettySize=auto;html=1;" edge="1" parent="1" source="ImeZ1fvZ26owQCZtDUsC-13" target="ImeZ1fvZ26owQCZtDUsC-14">
          <mxGeometry relative="1" as="geometry" />
        </mxCell>
        <mxCell id="ImeZ1fvZ26owQCZtDUsC-13" value="urut_namaSendal=&lt;div&gt;data_sandal dari abjad Z ke A&lt;/div&gt;" style="whiteSpace=wrap;html=1;strokeWidth=2;" vertex="1" parent="1">
          <mxGeometry x="2930" y="1495" width="120" height="60" as="geometry" />
        </mxCell>
        <mxCell id="ImeZ1fvZ26owQCZtDUsC-14" value="output&lt;div&gt;urut_namaSendal&lt;/div&gt;" style="shape=parallelogram;perimeter=parallelogramPerimeter;whiteSpace=wrap;html=1;fixedSize=1;strokeWidth=2;" vertex="1" parent="1">
          <mxGeometry x="3115" y="1495" width="120" height="60" as="geometry" />
        </mxCell>
        <mxCell id="ImeZ1fvZ26owQCZtDUsC-15" value="" style="edgeStyle=orthogonalEdgeStyle;rounded=0;orthogonalLoop=1;jettySize=auto;html=1;" edge="1" parent="1" source="ImeZ1fvZ26owQCZtDUsC-19" target="ImeZ1fvZ26owQCZtDUsC-21">
          <mxGeometry relative="1" as="geometry" />
        </mxCell>
        <mxCell id="ImeZ1fvZ26owQCZtDUsC-16" value="true" style="edgeLabel;html=1;align=center;verticalAlign=middle;resizable=0;points=[];" vertex="1" connectable="0" parent="ImeZ1fvZ26owQCZtDUsC-15">
          <mxGeometry x="-0.1667" y="1" relative="1" as="geometry">
            <mxPoint as="offset" />
          </mxGeometry>
        </mxCell>
        <mxCell id="ImeZ1fvZ26owQCZtDUsC-17" value="" style="edgeStyle=orthogonalEdgeStyle;rounded=0;orthogonalLoop=1;jettySize=auto;html=1;" edge="1" parent="1" source="ImeZ1fvZ26owQCZtDUsC-19" target="ImeZ1fvZ26owQCZtDUsC-29">
          <mxGeometry relative="1" as="geometry" />
        </mxCell>
        <mxCell id="ImeZ1fvZ26owQCZtDUsC-18" value="false" style="edgeLabel;html=1;align=center;verticalAlign=middle;resizable=0;points=[];" vertex="1" connectable="0" parent="ImeZ1fvZ26owQCZtDUsC-17">
          <mxGeometry x="-0.1722" y="3" relative="1" as="geometry">
            <mxPoint as="offset" />
          </mxGeometry>
        </mxCell>
        <mxCell id="ImeZ1fvZ26owQCZtDUsC-19" value="opsi 2" style="rhombus;whiteSpace=wrap;html=1;strokeWidth=2;" vertex="1" parent="1">
          <mxGeometry x="2665" y="1645" width="80" height="80" as="geometry" />
        </mxCell>
        <mxCell id="ImeZ1fvZ26owQCZtDUsC-20" value="" style="edgeStyle=orthogonalEdgeStyle;rounded=0;orthogonalLoop=1;jettySize=auto;html=1;" edge="1" parent="1" source="ImeZ1fvZ26owQCZtDUsC-21" target="ImeZ1fvZ26owQCZtDUsC-23">
          <mxGeometry relative="1" as="geometry" />
        </mxCell>
        <mxCell id="ImeZ1fvZ26owQCZtDUsC-21" value="data_sandal" style="strokeWidth=2;html=1;shape=mxgraph.flowchart.database;whiteSpace=wrap;" vertex="1" parent="1">
          <mxGeometry x="2805" y="1650" width="70" height="70" as="geometry" />
        </mxCell>
        <mxCell id="ImeZ1fvZ26owQCZtDUsC-22" value="" style="edgeStyle=orthogonalEdgeStyle;rounded=0;orthogonalLoop=1;jettySize=auto;html=1;" edge="1" parent="1" source="ImeZ1fvZ26owQCZtDUsC-23" target="ImeZ1fvZ26owQCZtDUsC-24">
          <mxGeometry relative="1" as="geometry" />
        </mxCell>
        <mxCell id="ImeZ1fvZ26owQCZtDUsC-23" value="urut_hargaSendal=&lt;div&gt;data_sandal dari harga min -&amp;gt; maks&lt;/div&gt;" style="whiteSpace=wrap;html=1;strokeWidth=2;" vertex="1" parent="1">
          <mxGeometry x="2930" y="1655" width="120" height="60" as="geometry" />
        </mxCell>
        <mxCell id="ImeZ1fvZ26owQCZtDUsC-24" value="output&lt;div&gt;urut_hargaSendal&lt;/div&gt;" style="shape=parallelogram;perimeter=parallelogramPerimeter;whiteSpace=wrap;html=1;fixedSize=1;strokeWidth=2;" vertex="1" parent="1">
          <mxGeometry x="3105" y="1655" width="120" height="60" as="geometry" />
        </mxCell>
        <mxCell id="ImeZ1fvZ26owQCZtDUsC-25" value="" style="edgeStyle=orthogonalEdgeStyle;rounded=0;orthogonalLoop=1;jettySize=auto;html=1;" edge="1" parent="1" source="ImeZ1fvZ26owQCZtDUsC-29" target="ImeZ1fvZ26owQCZtDUsC-31">
          <mxGeometry relative="1" as="geometry" />
        </mxCell>
        <mxCell id="ImeZ1fvZ26owQCZtDUsC-26" value="true" style="edgeLabel;html=1;align=center;verticalAlign=middle;resizable=0;points=[];" vertex="1" connectable="0" parent="ImeZ1fvZ26owQCZtDUsC-25">
          <mxGeometry x="-0.2143" y="-1" relative="1" as="geometry">
            <mxPoint as="offset" />
          </mxGeometry>
        </mxCell>
        <mxCell id="ImeZ1fvZ26owQCZtDUsC-27" value="" style="edgeStyle=orthogonalEdgeStyle;rounded=0;orthogonalLoop=1;jettySize=auto;html=1;" edge="1" parent="1" source="ImeZ1fvZ26owQCZtDUsC-29" target="ImeZ1fvZ26owQCZtDUsC-39">
          <mxGeometry relative="1" as="geometry" />
        </mxCell>
        <mxCell id="ImeZ1fvZ26owQCZtDUsC-28" value="false" style="edgeLabel;html=1;align=center;verticalAlign=middle;resizable=0;points=[];" vertex="1" connectable="0" parent="ImeZ1fvZ26owQCZtDUsC-27">
          <mxGeometry x="-0.1917" relative="1" as="geometry">
            <mxPoint as="offset" />
          </mxGeometry>
        </mxCell>
        <mxCell id="ImeZ1fvZ26owQCZtDUsC-29" value="opsi 3" style="rhombus;whiteSpace=wrap;html=1;strokeWidth=2;" vertex="1" parent="1">
          <mxGeometry x="2665" y="1785" width="80" height="80" as="geometry" />
        </mxCell>
        <mxCell id="ImeZ1fvZ26owQCZtDUsC-30" value="" style="edgeStyle=orthogonalEdgeStyle;rounded=0;orthogonalLoop=1;jettySize=auto;html=1;" edge="1" parent="1" source="ImeZ1fvZ26owQCZtDUsC-31" target="ImeZ1fvZ26owQCZtDUsC-33">
          <mxGeometry relative="1" as="geometry" />
        </mxCell>
        <mxCell id="ImeZ1fvZ26owQCZtDUsC-31" value="data_sandal" style="strokeWidth=2;html=1;shape=mxgraph.flowchart.database;whiteSpace=wrap;" vertex="1" parent="1">
          <mxGeometry x="2805" y="1790" width="70" height="70" as="geometry" />
        </mxCell>
        <mxCell id="ImeZ1fvZ26owQCZtDUsC-32" value="" style="edgeStyle=orthogonalEdgeStyle;rounded=0;orthogonalLoop=1;jettySize=auto;html=1;" edge="1" parent="1" source="ImeZ1fvZ26owQCZtDUsC-33" target="ImeZ1fvZ26owQCZtDUsC-34">
          <mxGeometry relative="1" as="geometry" />
        </mxCell>
        <mxCell id="ImeZ1fvZ26owQCZtDUsC-33" value="urut_stokSendal=&lt;div&gt;data_sandal dari stok maks -&amp;gt; min&lt;/div&gt;" style="whiteSpace=wrap;html=1;strokeWidth=2;" vertex="1" parent="1">
          <mxGeometry x="2930" y="1795" width="120" height="60" as="geometry" />
        </mxCell>
        <mxCell id="ImeZ1fvZ26owQCZtDUsC-34" value="output&lt;div&gt;urut_stokSendal&lt;/div&gt;" style="shape=parallelogram;perimeter=parallelogramPerimeter;whiteSpace=wrap;html=1;fixedSize=1;strokeWidth=2;" vertex="1" parent="1">
          <mxGeometry x="3095" y="1795" width="120" height="60" as="geometry" />
        </mxCell>
        <mxCell id="ImeZ1fvZ26owQCZtDUsC-35" value="" style="edgeStyle=orthogonalEdgeStyle;rounded=0;orthogonalLoop=1;jettySize=auto;html=1;" edge="1" parent="1" source="ImeZ1fvZ26owQCZtDUsC-39" target="ImeZ1fvZ26owQCZtDUsC-40">
          <mxGeometry relative="1" as="geometry" />
        </mxCell>
        <mxCell id="ImeZ1fvZ26owQCZtDUsC-36" value="true" style="edgeLabel;html=1;align=center;verticalAlign=middle;resizable=0;points=[];" vertex="1" connectable="0" parent="ImeZ1fvZ26owQCZtDUsC-35">
          <mxGeometry x="-0.1216" y="1" relative="1" as="geometry">
            <mxPoint as="offset" />
          </mxGeometry>
        </mxCell>
        <mxCell id="ImeZ1fvZ26owQCZtDUsC-37" value="" style="edgeStyle=orthogonalEdgeStyle;rounded=0;orthogonalLoop=1;jettySize=auto;html=1;" edge="1" parent="1" source="ImeZ1fvZ26owQCZtDUsC-39" target="ImeZ1fvZ26owQCZtDUsC-41">
          <mxGeometry relative="1" as="geometry" />
        </mxCell>
        <mxCell id="ImeZ1fvZ26owQCZtDUsC-38" value="false" style="edgeLabel;html=1;align=center;verticalAlign=middle;resizable=0;points=[];" vertex="1" connectable="0" parent="ImeZ1fvZ26owQCZtDUsC-37">
          <mxGeometry x="-0.1701" y="-1" relative="1" as="geometry">
            <mxPoint as="offset" />
          </mxGeometry>
        </mxCell>
        <mxCell id="ImeZ1fvZ26owQCZtDUsC-39" value="opsi 4" style="rhombus;whiteSpace=wrap;html=1;strokeWidth=2;" vertex="1" parent="1">
          <mxGeometry x="2665" y="1945" width="80" height="80" as="geometry" />
        </mxCell>
        <mxCell id="ImeZ1fvZ26owQCZtDUsC-40" value="" style="ellipse;whiteSpace=wrap;html=1;strokeWidth=2;fillColor=#647687;strokeColor=#314354;fontColor=#ffffff;" vertex="1" parent="1">
          <mxGeometry x="2805" y="1960" width="50" height="50" as="geometry" />
        </mxCell>
        <mxCell id="ImeZ1fvZ26owQCZtDUsC-41" value="output&lt;div&gt;pilihan tidak valid&lt;/div&gt;" style="shape=parallelogram;perimeter=parallelogramPerimeter;whiteSpace=wrap;html=1;fixedSize=1;strokeWidth=2;" vertex="1" parent="1">
          <mxGeometry x="2645" y="2080" width="120" height="60" as="geometry" />
        </mxCell>
        <mxCell id="ImeZ1fvZ26owQCZtDUsC-42" value="" style="endArrow=classic;html=1;rounded=0;exitX=1;exitY=0.5;exitDx=0;exitDy=0;entryX=1;entryY=0.5;entryDx=0;entryDy=0;" edge="1" parent="1" source="ImeZ1fvZ26owQCZtDUsC-41" target="ImeZ1fvZ26owQCZtDUsC-4">
          <mxGeometry width="50" height="50" relative="1" as="geometry">
            <mxPoint x="2950" y="2090" as="sourcePoint" />
            <mxPoint x="2810" y="1330" as="targetPoint" />
            <Array as="points">
              <mxPoint x="3310" y="2110" />
              <mxPoint x="3310" y="1330" />
            </Array>
          </mxGeometry>
        </mxCell>
        <mxCell id="ImeZ1fvZ26owQCZtDUsC-43" value="" style="endArrow=classic;html=1;rounded=0;exitX=1;exitY=0.5;exitDx=0;exitDy=0;" edge="1" parent="1" source="ImeZ1fvZ26owQCZtDUsC-14">
          <mxGeometry width="50" height="50" relative="1" as="geometry">
            <mxPoint x="2870" y="1680" as="sourcePoint" />
            <mxPoint x="3310" y="1525" as="targetPoint" />
          </mxGeometry>
        </mxCell>
        <mxCell id="ImeZ1fvZ26owQCZtDUsC-44" value="" style="endArrow=classic;html=1;rounded=0;exitX=1;exitY=0.5;exitDx=0;exitDy=0;" edge="1" parent="1" source="ImeZ1fvZ26owQCZtDUsC-34">
          <mxGeometry width="50" height="50" relative="1" as="geometry">
            <mxPoint x="2980" y="1660" as="sourcePoint" />
            <mxPoint x="3310" y="1825" as="targetPoint" />
          </mxGeometry>
        </mxCell>
        <mxCell id="ImeZ1fvZ26owQCZtDUsC-45" value="" style="endArrow=classic;html=1;rounded=0;exitX=1;exitY=0.5;exitDx=0;exitDy=0;" edge="1" parent="1" source="ImeZ1fvZ26owQCZtDUsC-24">
          <mxGeometry width="50" height="50" relative="1" as="geometry">
            <mxPoint x="2980" y="1660" as="sourcePoint" />
            <mxPoint x="3310" y="1685" as="targetPoint" />
          </mxGeometry>
        </mxCell>
        <mxCell id="ImeZ1fvZ26owQCZtDUsC-46" value="" style="endArrow=classic;html=1;rounded=0;exitX=1;exitY=0.5;exitDx=0;exitDy=0;" edge="1" parent="1" source="ImeZ1fvZ26owQCZtDUsC-40">
          <mxGeometry width="50" height="50" relative="1" as="geometry">
            <mxPoint x="2970" y="2080" as="sourcePoint" />
            <mxPoint x="3310" y="1985" as="targetPoint" />
          </mxGeometry>
        </mxCell>
      </root>
    </mxGraphModel>
  </diagram>
  <diagram id="sNu6SAl9JrHMUu3-6e2W" name="Page-8">
    <mxGraphModel dx="-2528" dy="511" grid="1" gridSize="10" guides="1" tooltips="1" connect="1" arrows="1" fold="1" page="1" pageScale="1" pageWidth="850" pageHeight="1100" math="0" shadow="0">
      <root>
        <mxCell id="0" />
        <mxCell id="1" parent="0" />
        <mxCell id="bjKfjuB21GRCOEqrQklL-1" value="" style="edgeStyle=orthogonalEdgeStyle;rounded=0;orthogonalLoop=1;jettySize=auto;html=1;" edge="1" parent="1" source="bjKfjuB21GRCOEqrQklL-2" target="bjKfjuB21GRCOEqrQklL-4">
          <mxGeometry relative="1" as="geometry" />
        </mxCell>
        <mxCell id="bjKfjuB21GRCOEqrQklL-2" value=" " style="ellipse;whiteSpace=wrap;html=1;strokeWidth=2;fillColor=#ffe6cc;strokeColor=#d79b00;" vertex="1" parent="1">
          <mxGeometry x="3535" y="40" width="50" height="50" as="geometry" />
        </mxCell>
        <mxCell id="bjKfjuB21GRCOEqrQklL-3" value="" style="edgeStyle=orthogonalEdgeStyle;rounded=0;orthogonalLoop=1;jettySize=auto;html=1;" edge="1" parent="1" source="bjKfjuB21GRCOEqrQklL-4" target="bjKfjuB21GRCOEqrQklL-9">
          <mxGeometry relative="1" as="geometry" />
        </mxCell>
        <mxCell id="bjKfjuB21GRCOEqrQklL-4" value="output&lt;div&gt;&lt;div&gt;1. Urutkan berdasarkan nama&amp;nbsp;&lt;/div&gt;&lt;div&gt;2. Urutkan berdasarkan harga&amp;nbsp;&lt;/div&gt;&lt;div&gt;3. Urutkan berdasarkan stok&amp;nbsp;&amp;nbsp;&lt;/div&gt;&lt;div&gt;4. Kembali&lt;/div&gt;&lt;/div&gt;" style="shape=parallelogram;perimeter=parallelogramPerimeter;whiteSpace=wrap;html=1;fixedSize=1;strokeWidth=2;" vertex="1" parent="1">
          <mxGeometry x="3460" y="160" width="200" height="110" as="geometry" />
        </mxCell>
        <mxCell id="bjKfjuB21GRCOEqrQklL-5" value="" style="edgeStyle=orthogonalEdgeStyle;rounded=0;orthogonalLoop=1;jettySize=auto;html=1;" edge="1" parent="1" source="bjKfjuB21GRCOEqrQklL-9" target="bjKfjuB21GRCOEqrQklL-11">
          <mxGeometry relative="1" as="geometry" />
        </mxCell>
        <mxCell id="bjKfjuB21GRCOEqrQklL-6" value="true" style="edgeLabel;html=1;align=center;verticalAlign=middle;resizable=0;points=[];" vertex="1" connectable="0" parent="bjKfjuB21GRCOEqrQklL-5">
          <mxGeometry x="-0.0778" y="2" relative="1" as="geometry">
            <mxPoint as="offset" />
          </mxGeometry>
        </mxCell>
        <mxCell id="bjKfjuB21GRCOEqrQklL-7" value="" style="edgeStyle=orthogonalEdgeStyle;rounded=0;orthogonalLoop=1;jettySize=auto;html=1;" edge="1" parent="1" source="bjKfjuB21GRCOEqrQklL-9" target="bjKfjuB21GRCOEqrQklL-19">
          <mxGeometry relative="1" as="geometry" />
        </mxCell>
        <mxCell id="bjKfjuB21GRCOEqrQklL-8" value="false" style="edgeLabel;html=1;align=center;verticalAlign=middle;resizable=0;points=[];" vertex="1" connectable="0" parent="bjKfjuB21GRCOEqrQklL-7">
          <mxGeometry x="-0.0333" y="2" relative="1" as="geometry">
            <mxPoint as="offset" />
          </mxGeometry>
        </mxCell>
        <mxCell id="bjKfjuB21GRCOEqrQklL-9" value="opsi 1" style="rhombus;whiteSpace=wrap;html=1;strokeWidth=2;" vertex="1" parent="1">
          <mxGeometry x="3520" y="365" width="80" height="80" as="geometry" />
        </mxCell>
        <mxCell id="bjKfjuB21GRCOEqrQklL-10" value="" style="edgeStyle=orthogonalEdgeStyle;rounded=0;orthogonalLoop=1;jettySize=auto;html=1;" edge="1" parent="1" source="bjKfjuB21GRCOEqrQklL-11" target="bjKfjuB21GRCOEqrQklL-13">
          <mxGeometry relative="1" as="geometry" />
        </mxCell>
        <mxCell id="bjKfjuB21GRCOEqrQklL-11" value="data_sandal" style="strokeWidth=2;html=1;shape=mxgraph.flowchart.database;whiteSpace=wrap;" vertex="1" parent="1">
          <mxGeometry x="3660" y="370" width="70" height="70" as="geometry" />
        </mxCell>
        <mxCell id="bjKfjuB21GRCOEqrQklL-12" value="" style="edgeStyle=orthogonalEdgeStyle;rounded=0;orthogonalLoop=1;jettySize=auto;html=1;" edge="1" parent="1" source="bjKfjuB21GRCOEqrQklL-13" target="bjKfjuB21GRCOEqrQklL-14">
          <mxGeometry relative="1" as="geometry" />
        </mxCell>
        <mxCell id="bjKfjuB21GRCOEqrQklL-13" value="urut_namaSendal=&lt;div&gt;data_sandal dari abjad Z ke A&lt;/div&gt;" style="whiteSpace=wrap;html=1;strokeWidth=2;" vertex="1" parent="1">
          <mxGeometry x="3785" y="375" width="120" height="60" as="geometry" />
        </mxCell>
        <mxCell id="bjKfjuB21GRCOEqrQklL-14" value="output&lt;div&gt;urut_namaSendal&lt;/div&gt;" style="shape=parallelogram;perimeter=parallelogramPerimeter;whiteSpace=wrap;html=1;fixedSize=1;strokeWidth=2;" vertex="1" parent="1">
          <mxGeometry x="3970" y="375" width="120" height="60" as="geometry" />
        </mxCell>
        <mxCell id="bjKfjuB21GRCOEqrQklL-15" value="" style="edgeStyle=orthogonalEdgeStyle;rounded=0;orthogonalLoop=1;jettySize=auto;html=1;" edge="1" parent="1" source="bjKfjuB21GRCOEqrQklL-19" target="bjKfjuB21GRCOEqrQklL-21">
          <mxGeometry relative="1" as="geometry" />
        </mxCell>
        <mxCell id="bjKfjuB21GRCOEqrQklL-16" value="true" style="edgeLabel;html=1;align=center;verticalAlign=middle;resizable=0;points=[];" vertex="1" connectable="0" parent="bjKfjuB21GRCOEqrQklL-15">
          <mxGeometry x="-0.1667" y="1" relative="1" as="geometry">
            <mxPoint as="offset" />
          </mxGeometry>
        </mxCell>
        <mxCell id="bjKfjuB21GRCOEqrQklL-17" value="" style="edgeStyle=orthogonalEdgeStyle;rounded=0;orthogonalLoop=1;jettySize=auto;html=1;" edge="1" parent="1" source="bjKfjuB21GRCOEqrQklL-19" target="bjKfjuB21GRCOEqrQklL-29">
          <mxGeometry relative="1" as="geometry" />
        </mxCell>
        <mxCell id="bjKfjuB21GRCOEqrQklL-18" value="false" style="edgeLabel;html=1;align=center;verticalAlign=middle;resizable=0;points=[];" vertex="1" connectable="0" parent="bjKfjuB21GRCOEqrQklL-17">
          <mxGeometry x="-0.1722" y="3" relative="1" as="geometry">
            <mxPoint as="offset" />
          </mxGeometry>
        </mxCell>
        <mxCell id="bjKfjuB21GRCOEqrQklL-19" value="opsi 2" style="rhombus;whiteSpace=wrap;html=1;strokeWidth=2;" vertex="1" parent="1">
          <mxGeometry x="3520" y="525" width="80" height="80" as="geometry" />
        </mxCell>
        <mxCell id="bjKfjuB21GRCOEqrQklL-20" value="" style="edgeStyle=orthogonalEdgeStyle;rounded=0;orthogonalLoop=1;jettySize=auto;html=1;" edge="1" parent="1" source="bjKfjuB21GRCOEqrQklL-21" target="bjKfjuB21GRCOEqrQklL-23">
          <mxGeometry relative="1" as="geometry" />
        </mxCell>
        <mxCell id="bjKfjuB21GRCOEqrQklL-21" value="data_sandal" style="strokeWidth=2;html=1;shape=mxgraph.flowchart.database;whiteSpace=wrap;" vertex="1" parent="1">
          <mxGeometry x="3660" y="530" width="70" height="70" as="geometry" />
        </mxCell>
        <mxCell id="bjKfjuB21GRCOEqrQklL-22" value="" style="edgeStyle=orthogonalEdgeStyle;rounded=0;orthogonalLoop=1;jettySize=auto;html=1;" edge="1" parent="1" source="bjKfjuB21GRCOEqrQklL-23" target="bjKfjuB21GRCOEqrQklL-24">
          <mxGeometry relative="1" as="geometry" />
        </mxCell>
        <mxCell id="bjKfjuB21GRCOEqrQklL-23" value="urut_hargaSendal=&lt;div&gt;data_sandal dari harga min -&amp;gt; maks&lt;/div&gt;" style="whiteSpace=wrap;html=1;strokeWidth=2;" vertex="1" parent="1">
          <mxGeometry x="3785" y="535" width="120" height="60" as="geometry" />
        </mxCell>
        <mxCell id="bjKfjuB21GRCOEqrQklL-24" value="output&lt;div&gt;urut_hargaSendal&lt;/div&gt;" style="shape=parallelogram;perimeter=parallelogramPerimeter;whiteSpace=wrap;html=1;fixedSize=1;strokeWidth=2;" vertex="1" parent="1">
          <mxGeometry x="3960" y="535" width="120" height="60" as="geometry" />
        </mxCell>
        <mxCell id="bjKfjuB21GRCOEqrQklL-25" value="" style="edgeStyle=orthogonalEdgeStyle;rounded=0;orthogonalLoop=1;jettySize=auto;html=1;" edge="1" parent="1" source="bjKfjuB21GRCOEqrQklL-29" target="bjKfjuB21GRCOEqrQklL-31">
          <mxGeometry relative="1" as="geometry" />
        </mxCell>
        <mxCell id="bjKfjuB21GRCOEqrQklL-26" value="true" style="edgeLabel;html=1;align=center;verticalAlign=middle;resizable=0;points=[];" vertex="1" connectable="0" parent="bjKfjuB21GRCOEqrQklL-25">
          <mxGeometry x="-0.2143" y="-1" relative="1" as="geometry">
            <mxPoint as="offset" />
          </mxGeometry>
        </mxCell>
        <mxCell id="bjKfjuB21GRCOEqrQklL-27" value="" style="edgeStyle=orthogonalEdgeStyle;rounded=0;orthogonalLoop=1;jettySize=auto;html=1;" edge="1" parent="1" source="bjKfjuB21GRCOEqrQklL-29" target="bjKfjuB21GRCOEqrQklL-39">
          <mxGeometry relative="1" as="geometry" />
        </mxCell>
        <mxCell id="bjKfjuB21GRCOEqrQklL-28" value="false" style="edgeLabel;html=1;align=center;verticalAlign=middle;resizable=0;points=[];" vertex="1" connectable="0" parent="bjKfjuB21GRCOEqrQklL-27">
          <mxGeometry x="-0.1917" relative="1" as="geometry">
            <mxPoint as="offset" />
          </mxGeometry>
        </mxCell>
        <mxCell id="bjKfjuB21GRCOEqrQklL-29" value="opsi 3" style="rhombus;whiteSpace=wrap;html=1;strokeWidth=2;" vertex="1" parent="1">
          <mxGeometry x="3520" y="665" width="80" height="80" as="geometry" />
        </mxCell>
        <mxCell id="bjKfjuB21GRCOEqrQklL-30" value="" style="edgeStyle=orthogonalEdgeStyle;rounded=0;orthogonalLoop=1;jettySize=auto;html=1;" edge="1" parent="1" source="bjKfjuB21GRCOEqrQklL-31" target="bjKfjuB21GRCOEqrQklL-33">
          <mxGeometry relative="1" as="geometry" />
        </mxCell>
        <mxCell id="bjKfjuB21GRCOEqrQklL-31" value="data_sandal" style="strokeWidth=2;html=1;shape=mxgraph.flowchart.database;whiteSpace=wrap;" vertex="1" parent="1">
          <mxGeometry x="3660" y="670" width="70" height="70" as="geometry" />
        </mxCell>
        <mxCell id="bjKfjuB21GRCOEqrQklL-32" value="" style="edgeStyle=orthogonalEdgeStyle;rounded=0;orthogonalLoop=1;jettySize=auto;html=1;" edge="1" parent="1" source="bjKfjuB21GRCOEqrQklL-33" target="bjKfjuB21GRCOEqrQklL-34">
          <mxGeometry relative="1" as="geometry" />
        </mxCell>
        <mxCell id="bjKfjuB21GRCOEqrQklL-33" value="urut_stokSendal=&lt;div&gt;data_sandal dari stok maks -&amp;gt; min&lt;/div&gt;" style="whiteSpace=wrap;html=1;strokeWidth=2;" vertex="1" parent="1">
          <mxGeometry x="3785" y="675" width="120" height="60" as="geometry" />
        </mxCell>
        <mxCell id="bjKfjuB21GRCOEqrQklL-34" value="output&lt;div&gt;urut_stokSendal&lt;/div&gt;" style="shape=parallelogram;perimeter=parallelogramPerimeter;whiteSpace=wrap;html=1;fixedSize=1;strokeWidth=2;" vertex="1" parent="1">
          <mxGeometry x="3950" y="675" width="120" height="60" as="geometry" />
        </mxCell>
        <mxCell id="bjKfjuB21GRCOEqrQklL-35" value="" style="edgeStyle=orthogonalEdgeStyle;rounded=0;orthogonalLoop=1;jettySize=auto;html=1;" edge="1" parent="1" source="bjKfjuB21GRCOEqrQklL-39" target="bjKfjuB21GRCOEqrQklL-40">
          <mxGeometry relative="1" as="geometry" />
        </mxCell>
        <mxCell id="bjKfjuB21GRCOEqrQklL-36" value="true" style="edgeLabel;html=1;align=center;verticalAlign=middle;resizable=0;points=[];" vertex="1" connectable="0" parent="bjKfjuB21GRCOEqrQklL-35">
          <mxGeometry x="-0.1216" y="1" relative="1" as="geometry">
            <mxPoint as="offset" />
          </mxGeometry>
        </mxCell>
        <mxCell id="bjKfjuB21GRCOEqrQklL-37" value="" style="edgeStyle=orthogonalEdgeStyle;rounded=0;orthogonalLoop=1;jettySize=auto;html=1;" edge="1" parent="1" source="bjKfjuB21GRCOEqrQklL-39" target="bjKfjuB21GRCOEqrQklL-41">
          <mxGeometry relative="1" as="geometry" />
        </mxCell>
        <mxCell id="bjKfjuB21GRCOEqrQklL-38" value="false" style="edgeLabel;html=1;align=center;verticalAlign=middle;resizable=0;points=[];" vertex="1" connectable="0" parent="bjKfjuB21GRCOEqrQklL-37">
          <mxGeometry x="-0.1701" y="-1" relative="1" as="geometry">
            <mxPoint as="offset" />
          </mxGeometry>
        </mxCell>
        <mxCell id="bjKfjuB21GRCOEqrQklL-39" value="opsi 4" style="rhombus;whiteSpace=wrap;html=1;strokeWidth=2;" vertex="1" parent="1">
          <mxGeometry x="3520" y="825" width="80" height="80" as="geometry" />
        </mxCell>
        <mxCell id="bjKfjuB21GRCOEqrQklL-40" value=" " style="ellipse;whiteSpace=wrap;html=1;strokeWidth=2;fillColor=#76608a;strokeColor=#432D57;fontColor=#ffffff;" vertex="1" parent="1">
          <mxGeometry x="3660" y="840" width="50" height="50" as="geometry" />
        </mxCell>
        <mxCell id="bjKfjuB21GRCOEqrQklL-41" value="output&lt;div&gt;pilihan tidak valid&lt;/div&gt;" style="shape=parallelogram;perimeter=parallelogramPerimeter;whiteSpace=wrap;html=1;fixedSize=1;strokeWidth=2;" vertex="1" parent="1">
          <mxGeometry x="3500" y="960" width="120" height="60" as="geometry" />
        </mxCell>
        <mxCell id="bjKfjuB21GRCOEqrQklL-42" value="" style="endArrow=classic;html=1;rounded=0;exitX=1;exitY=0.5;exitDx=0;exitDy=0;entryX=1;entryY=0.5;entryDx=0;entryDy=0;" edge="1" parent="1" source="bjKfjuB21GRCOEqrQklL-41" target="bjKfjuB21GRCOEqrQklL-4">
          <mxGeometry width="50" height="50" relative="1" as="geometry">
            <mxPoint x="3805" y="970" as="sourcePoint" />
            <mxPoint x="3665" y="210" as="targetPoint" />
            <Array as="points">
              <mxPoint x="4165" y="990" />
              <mxPoint x="4165" y="210" />
            </Array>
          </mxGeometry>
        </mxCell>
        <mxCell id="bjKfjuB21GRCOEqrQklL-43" value="" style="endArrow=classic;html=1;rounded=0;exitX=1;exitY=0.5;exitDx=0;exitDy=0;" edge="1" parent="1" source="bjKfjuB21GRCOEqrQklL-14">
          <mxGeometry width="50" height="50" relative="1" as="geometry">
            <mxPoint x="3725" y="560" as="sourcePoint" />
            <mxPoint x="4165" y="405" as="targetPoint" />
          </mxGeometry>
        </mxCell>
        <mxCell id="bjKfjuB21GRCOEqrQklL-44" value="" style="endArrow=classic;html=1;rounded=0;exitX=1;exitY=0.5;exitDx=0;exitDy=0;" edge="1" parent="1" source="bjKfjuB21GRCOEqrQklL-34">
          <mxGeometry width="50" height="50" relative="1" as="geometry">
            <mxPoint x="3835" y="540" as="sourcePoint" />
            <mxPoint x="4165" y="705" as="targetPoint" />
          </mxGeometry>
        </mxCell>
        <mxCell id="bjKfjuB21GRCOEqrQklL-45" value="" style="endArrow=classic;html=1;rounded=0;exitX=1;exitY=0.5;exitDx=0;exitDy=0;" edge="1" parent="1" source="bjKfjuB21GRCOEqrQklL-24">
          <mxGeometry width="50" height="50" relative="1" as="geometry">
            <mxPoint x="3835" y="540" as="sourcePoint" />
            <mxPoint x="4165" y="565" as="targetPoint" />
          </mxGeometry>
        </mxCell>
        <mxCell id="bjKfjuB21GRCOEqrQklL-46" value="" style="endArrow=classic;html=1;rounded=0;exitX=1;exitY=0.5;exitDx=0;exitDy=0;" edge="1" parent="1" source="bjKfjuB21GRCOEqrQklL-40">
          <mxGeometry width="50" height="50" relative="1" as="geometry">
            <mxPoint x="3825" y="960" as="sourcePoint" />
            <mxPoint x="4165" y="865" as="targetPoint" />
          </mxGeometry>
        </mxCell>
      </root>
    </mxGraphModel>
  </diagram>
</mxfile>
